<svg width="44" height="44" viewBox="0 0 44 44" fill="none" xmlns="http://www.w3.org/2000/svg">
<path d="M43.143 2.47701V41.6476C43.1223 41.6665 43.089 41.6827 43.0809 41.7061C42.6075 43.0911 41.8776 43.614 40.4143 43.6149H29.7948V26.9072H35.3881C35.6679 24.7356 35.9424 22.6063 36.2259 20.414H29.7885C29.7885 18.7401 29.7156 17.122 29.811 15.5138C29.892 14.1458 30.5256 13.4439 31.6775 13.2063C32.2283 13.0938 32.8052 13.0911 33.3713 13.0803C34.3693 13.0614 35.3682 13.0749 36.3807 13.0749V7.24317C35.757 7.19278 35.1622 7.10818 34.5673 7.10458C32.9546 7.09558 31.3221 6.96599 29.7327 7.16308C25.8287 7.64725 23.4258 10.4389 23.1289 14.3681C22.9903 16.1851 23.0614 18.0183 23.0389 19.8435C23.0389 20.018 23.0389 20.1935 23.0389 20.4212H17.4708V26.9216H22.9948V43.5906C22.9379 43.6007 22.8805 43.6079 22.8229 43.6122C15.9976 43.6122 9.17205 43.6122 2.34618 43.6122C1.67392 43.6122 1.09975 43.3359 0.636269 42.8418C0.143093 42.3153 0 41.6827 0 40.9825C0.00539973 28.3459 0.00689966 15.7103 0.00449978 3.07548C0.00449978 2.94049 0.00899956 2.80549 0.0179991 2.6714C0.0440955 2.20552 0.211313 1.7586 0.497439 1.39001C0.783566 1.02142 1.17506 0.748608 1.61992 0.607803C1.96646 0.51398 2.32477 0.470934 2.68367 0.480009C15.2722 0.476409 27.8608 0.474609 40.4494 0.474609C40.5835 0.474609 40.7194 0.474609 40.8535 0.485409C41.3581 0.504237 41.8433 0.684301 42.238 0.999174C42.6328 1.31405 42.9162 1.74715 43.0467 2.23492C43.071 2.31772 43.1079 2.39691 43.143 2.47701Z" fill="white" fill-opacity="0.8"/>
</svg>
