<svg xmlns="http://www.w3.org/2000/svg" viewBox="0 0 2114.27 1649.05">
  <defs>
    <style>
      .cls-1 {
        fill: #fff;
      }
    </style>
  </defs>
  <g id="Layer_2" data-name="Layer 2">
    <g id="Layer_1-2" data-name="Layer 1">
      <path class="cls-1" d="M1404,1071.75c14.45-8.08,31.33-28.28,31-42.5-.5-23.2-25.11-23.06-45.28-24.32-77.14-4.8-154.26-10.28-231.27-16.9-25.19-2.17-42.15-24.27-34-46,9.36-25,20.23-51.83,38-70.83Q1439,575.52,1718.75,282.85c35.59-37.18,74.65-73.44,118.29-100,72.82-44.33,156.46-62.78,239.32-80.88,12-2.63,23.47-7.93,37.91-12.94-31.2-46.88-72.55-52.15-120.33-44.45,1.2-9,2.78-15.45,2.8-22,0-18.84-18.65-30.21-25.76-16.69-5.36,10.2.23,26.13,1.06,41.57L1946.11,52c1.27-9.47,3-16.21,2.9-22.93-.17-17.46-18.26-28.52-24-16.5-5.48,11.46-.21,28,.41,44.56l-20.56,1.07c-4.44-16.08-7-28-11.71-39.12-.62-1.48-17.67,1.58-17.68,2.64-.17,13.44,1.39,26.91,2.75,43.24l-22.34,2.22c-3.56-15.59-5.86-28.21-10.08-40.15-.43-1.21-18.24,1.93-18.21,2.6.58,13,2.62,26,4.77,42l-29,5.33c1.88-10.71,3.85-17.3,4.05-24,.59-18.69-18.76-29.33-26.17-15-4.9,9.5,1.59,24.85,3.17,39.31L1756.84,85c1.29-9.76,2.92-16.53,3-23.31.07-19.42-18-30.4-25.46-16.45-5.39,10.14.74,26.38,1.86,41.53l-35,9.69c6.43,34.42,8,64.75-19.13,91.78q-320.54,318.9-639.9,639c-8,8-19.9,12.39-30.3,17.85-29.63,15.56-55.19-1.79-81.43-11C879.5,816.3,861.07,820.79,828,864.21c-25.3,33.22-51.59,66.1-72.87,101.85-29.72,49.93-73.81,74.77-127.62,91.08-201,60.91-401.48,123.7-601.92,186.51C15.42,1246.84.74,1256.24,0,1263.83c-.84,9.11,10.76,19.61,17.64,29,2.26,3.08,6.52,4.79,10,6.87C156.3,1376.41,471.6,1558.58,634,1605.59c22.25,7.61,127,35.27,144.43,40.27,31.09,8.91,46.19-.75,58.66-29.7,37.08-86,77.51-170.61,115.22-256.37,16.76-38.1,42.34-65.38,79.18-85Q1218.62,1174.88,1404,1071.75ZM891.65,1185.1a16.49,16.49,0,0,1-23.3.83l-90.53-84.33a16.5,16.5,0,0,1-.82-23.31l32.23-34.59a16.49,16.49,0,0,1,23.3-.83l90.52,84.33a16.49,16.49,0,0,1,.83,23.31Zm139-149.19a16.49,16.49,0,0,1-23.3.83l-90.52-84.33A16.49,16.49,0,0,1,916,929.1l32.23-34.59a16.48,16.48,0,0,1,23.3-.83L1062,978a16.48,16.48,0,0,1,.82,23.3Zm-234.1,373.27a23.9,23.9,0,1,1,1.2,33.78A23.91,23.91,0,0,1,796.53,1409.18Zm-2.38,125a23.9,23.9,0,1,1-1.19-33.78A23.89,23.89,0,0,1,794.15,1534.14Z"/>
    </g>
  </g>
</svg>
