<svg width="47" height="47" viewBox="0 0 47 47" fill="none" xmlns="http://www.w3.org/2000/svg">
<path d="M40.5859 46.2934H6.63234C6.55109 46.2584 6.46711 46.2301 6.38125 46.2088C4.77288 45.9449 3.31045 45.1186 2.25448 43.877C1.19851 42.6355 0.6176 41.0594 0.615234 39.4295C0.615234 28.6534 0.615234 17.8768 0.615234 7.09948C0.615234 3.38807 3.70658 0.299422 7.4198 0.294922C18.2097 0.294922 28.9989 0.294922 39.7876 0.294922C42.7898 0.294922 45.4933 2.33962 46.3312 5.23208C46.4347 5.59206 46.5112 5.95204 46.6012 6.31202V40.2745C46.5706 40.3726 46.5319 40.4689 46.5112 40.5697C45.9613 43.2912 44.3513 45.0857 41.7459 45.9992C41.3724 46.1306 40.9737 46.1971 40.5859 46.2934ZM23.6091 5.77295C20.0309 5.77295 16.4536 5.76125 12.8762 5.77295C9.08112 5.79275 6.10496 8.7716 6.09596 12.5703C6.08336 19.71 6.08336 26.8514 6.09596 33.9947C6.10496 37.8177 9.07481 40.8046 12.8996 40.8109C20.0393 40.8235 27.1789 40.8235 34.3186 40.8109C38.1434 40.8037 41.1132 37.8231 41.1231 33.9947C41.1339 26.855 41.1318 19.7133 41.1168 12.5694C41.1135 11.9864 41.0382 11.4061 40.8927 10.8415C40.1179 7.82755 37.4729 5.78735 34.3411 5.77655C30.7637 5.76395 27.1864 5.77295 23.6091 5.77295Z" fill="white" fill-opacity="0.8"/>
<path d="M23.6126 8.47205C27.1602 8.47205 30.7078 8.47205 34.2555 8.47205C36.6988 8.47205 38.4267 10.209 38.4276 12.6631C38.4276 19.7602 38.4276 26.8569 38.4276 33.9534C38.4276 36.3707 36.6853 38.1148 34.2717 38.1157C27.1614 38.1157 20.0518 38.1157 12.9427 38.1157C10.5317 38.1157 8.79301 36.368 8.79211 33.9471C8.79211 26.85 8.79211 19.7533 8.79211 12.6568C8.79211 10.209 10.5263 8.47385 12.9715 8.47205C16.5179 8.47025 20.065 8.47025 23.6126 8.47205ZM14.1765 23.2817C14.1693 28.452 18.4117 32.7115 23.5856 32.7313C28.7594 32.751 33.0135 28.5051 33.0414 23.3276C33.0693 18.1502 28.7981 13.8592 23.609 13.8601C18.4342 13.8601 14.1846 18.1079 14.1765 23.2817ZM30.346 13.843C30.3361 15.2964 31.5538 16.5357 33.0117 16.5555C34.4696 16.5752 35.7071 15.3594 35.7341 13.8997C35.7611 12.44 34.52 11.1701 33.0459 11.1665C32.3362 11.1741 31.6574 11.4578 31.1534 11.9575C30.6494 12.4571 30.3598 13.1334 30.346 13.843Z" fill="white" fill-opacity="0.8"/>
<path d="M30.3442 23.2975C30.346 24.1856 30.1718 25.0651 29.8316 25.8854C29.4914 26.7057 28.9921 27.4504 28.3623 28.0766C27.7326 28.7027 26.985 29.1978 26.1628 29.5333C25.3406 29.8687 24.46 30.0379 23.572 30.031C19.8624 30.031 16.871 27.0062 16.8737 23.2687C16.8775 21.4824 17.5907 19.7708 18.8566 18.5104C20.1224 17.25 21.837 16.544 23.6233 16.5479C25.4096 16.5517 27.1213 17.265 28.3817 18.5308C29.6421 19.7966 30.348 21.5112 30.3442 23.2975Z" fill="white" fill-opacity="0.8"/>
</svg>
