<svg width="148" height="145" viewBox="0 0 148 145" fill="none" xmlns="http://www.w3.org/2000/svg">
<path fill-rule="evenodd" clip-rule="evenodd" d="M90.8935 119.865C78.3445 124.315 65.2562 127.795 52.6043 123.48C40.0065 119.183 30.9368 108.871 24.4344 97.1959C17.5731 84.8763 12.0446 70.9748 15.8256 57.4432C19.7332 43.4583 25.7789 37.3528 38.998 31.5C51.6351 25.9049 67.5931 37.4423 80.998 41C95.7121 44.9052 114.497 34.996 123.042 47.6768C132.494 61.7052 137.199 80.5309 130.35 95.9109C123.822 110.569 105.97 114.519 90.8935 119.865Z" stroke="#FF4301" stroke-width="2"/>
<path d="M27.554 83H25.192C25.1377 83 25.1106 82.9661 25.1106 82.8982L25.1513 68.574C25.1513 68.5197 25.1785 68.4926 25.2328 68.4926H27.7779C27.8322 68.4926 27.8797 68.5197 27.9205 68.574L29.8242 71.3228L31.7178 68.574C31.7586 68.5197 31.8095 68.4926 31.8705 68.4926H34.4259C34.487 68.4926 34.5175 68.5197 34.5175 68.574L34.5582 82.8982C34.5582 82.9661 34.5311 83 34.4768 83H32.1149C32.0606 83 32.0334 82.9661 32.0334 82.8982L32.0131 72.2594L29.8242 75.4358L27.6558 72.2594L27.6354 82.8982C27.6354 82.9661 27.6083 83 27.554 83ZM40.1474 83.2036C39.4144 83.2036 38.7357 83.0136 38.1113 82.6335C37.4869 82.2534 36.988 81.7444 36.6147 81.1064C36.2482 80.4616 36.065 79.7592 36.065 78.999L36.1057 68.574C36.1057 68.5197 36.1328 68.4926 36.1871 68.4926H38.5287C38.583 68.4926 38.6101 68.5197 38.6101 68.574V78.999C38.6101 79.4673 38.7594 79.8678 39.0581 80.2003C39.3567 80.5261 39.7198 80.689 40.1474 80.689C40.5954 80.689 40.9686 80.5261 41.2673 80.2003C41.5659 79.8678 41.7152 79.4673 41.7152 78.999V68.574C41.7152 68.5197 41.7424 68.4926 41.7967 68.4926H44.1382C44.1925 68.4926 44.2197 68.5197 44.2197 68.574L44.2604 78.999C44.2604 79.7659 44.0771 80.4718 43.7106 81.1166C43.3373 81.7546 42.8419 82.2636 42.2243 82.6437C41.6066 83.017 40.9144 83.2036 40.1474 83.2036ZM49.4423 83.2036C48.7025 83.2036 48.0204 83.0136 47.396 82.6335C46.7784 82.2534 46.2829 81.7478 45.9097 81.1166C45.5432 80.4786 45.3599 79.7795 45.3599 79.0194V78.0624C45.3599 77.9877 45.3938 77.9504 45.4617 77.9504H47.8033C47.8575 77.9504 47.8847 77.9877 47.8847 78.0624V79.0194C47.8847 79.4741 48.0374 79.8678 48.3428 80.2003C48.6482 80.5261 49.0147 80.689 49.4423 80.689C49.8767 80.689 50.2466 80.5227 50.552 80.1901C50.8574 79.8508 51.0102 79.4605 51.0102 79.0194C51.0102 78.5103 50.6776 78.0658 50.0125 77.6857C49.9039 77.6178 49.7613 77.5364 49.5849 77.4414C49.4152 77.3396 49.2116 77.2242 48.974 77.0952C48.7365 76.9663 48.5057 76.8407 48.2817 76.7185C48.0578 76.5896 47.8406 76.4674 47.6302 76.352C46.87 75.9041 46.3033 75.3442 45.93 74.6722C45.5635 73.9935 45.3803 73.2334 45.3803 72.3918C45.3803 71.618 45.5703 70.919 45.9504 70.2946C46.3305 69.6769 46.8259 69.1883 47.4367 68.8285C48.0544 68.462 48.7229 68.2788 49.4423 68.2788C50.1821 68.2788 50.8608 68.462 51.4785 68.8285C52.0961 69.2018 52.5882 69.6973 52.9547 70.3149C53.3279 70.9325 53.5146 71.6248 53.5146 72.3918V74.1021C53.5146 74.1564 53.4874 74.1836 53.4331 74.1836H51.0916C51.0373 74.1836 51.0102 74.1564 51.0102 74.1021L50.9898 72.3918C50.9898 71.9031 50.8371 71.5061 50.5317 71.2006C50.2262 70.8952 49.8631 70.7425 49.4423 70.7425C49.0147 70.7425 48.6482 70.9054 48.3428 71.2312C48.0374 71.557 47.8847 71.9438 47.8847 72.3918C47.8847 72.8465 47.9797 73.2266 48.1698 73.532C48.3666 73.8374 48.7229 74.1293 49.2387 74.4075C49.293 74.4347 49.4186 74.5026 49.6154 74.6112C49.8122 74.7197 50.0294 74.8419 50.267 74.9777C50.5113 75.1066 50.7319 75.2254 50.9287 75.334C51.1255 75.4358 51.2443 75.4969 51.285 75.5172C51.9773 75.9041 52.5237 76.3792 52.9241 76.9425C53.3313 77.5058 53.535 78.1981 53.535 79.0194C53.535 79.8135 53.3517 80.5261 52.9852 81.1573C52.6119 81.7885 52.1165 82.2874 51.4988 82.6539C50.8812 83.0204 50.1957 83.2036 49.4423 83.2036ZM57.424 83H55.0824C55.0145 83 54.9806 82.9661 54.9806 82.8982L55.0213 68.574C55.0213 68.5197 55.0485 68.4926 55.1028 68.4926H59.1139C60.3899 68.4926 61.3978 68.8828 62.1376 69.6634C62.8842 70.4371 63.2575 71.4925 63.2575 72.8295C63.2575 73.8069 63.064 74.6587 62.6772 75.3849C62.2835 76.1043 61.7745 76.6609 61.1501 77.0545C60.5257 77.4482 59.847 77.645 59.1139 77.645H57.5258V82.8982C57.5258 82.9661 57.4918 83 57.424 83ZM59.1139 70.9665L57.5258 70.9868V75.1202H59.1139C59.5551 75.1202 59.9386 74.9098 60.2644 74.489C60.5901 74.0614 60.753 73.5082 60.753 72.8295C60.753 72.2866 60.6071 71.842 60.3153 71.4959C60.0234 71.1429 59.623 70.9665 59.1139 70.9665ZM71.3307 83H64.5911C64.5368 83 64.5097 82.9661 64.5097 82.8982L64.53 68.574C64.53 68.5197 64.5572 68.4926 64.6115 68.4926H71.3104C71.3647 68.4926 71.3918 68.5265 71.3918 68.5944V70.9258C71.3918 70.9801 71.3647 71.0072 71.3104 71.0072H67.0345V74.265H71.3104C71.3647 74.265 71.3918 74.2922 71.3918 74.3465L71.4122 76.7084C71.4122 76.7627 71.385 76.7898 71.3307 76.7898H67.0345V80.4345H71.3307C71.385 80.4345 71.4122 80.4684 71.4122 80.5363V82.9186C71.4122 82.9729 71.385 83 71.3307 83ZM80.0861 83H73.3465C73.2922 83 73.265 82.9661 73.265 82.8982L73.2854 68.5944C73.2854 68.5265 73.3193 68.4926 73.3872 68.4926H75.7084C75.7763 68.4926 75.8102 68.5265 75.8102 68.5944L75.7898 80.4345H80.0861C80.1539 80.4345 80.1879 80.4684 80.1879 80.5363V82.8982C80.1879 82.9661 80.1539 83 80.0861 83ZM88.3731 83H81.6335C81.5792 83 81.5521 82.9661 81.5521 82.8982L81.5724 68.574C81.5724 68.5197 81.5996 68.4926 81.6539 68.4926H88.3528C88.407 68.4926 88.4342 68.5265 88.4342 68.5944V70.9258C88.4342 70.9801 88.407 71.0072 88.3528 71.0072H84.0769V74.265H88.3528C88.407 74.265 88.4342 74.2922 88.4342 74.3465L88.4546 76.7084C88.4546 76.7627 88.4274 76.7898 88.3731 76.7898H84.0769V80.4345H88.3731C88.4274 80.4345 88.4546 80.4684 88.4546 80.5363V82.9186C88.4546 82.9729 88.4274 83 88.3731 83ZM92.7508 83H90.3889C90.3346 83 90.3074 82.9661 90.3074 82.8982L90.3278 68.574C90.3278 68.5197 90.3617 68.4926 90.4296 68.4926H92.7508C92.8187 68.4926 92.8526 68.5197 92.8526 68.574L92.8322 74.2446H95.9577V68.574C95.9577 68.5197 95.9848 68.4926 96.0391 68.4926H98.3603C98.4282 68.4926 98.4621 68.5197 98.4621 68.574L98.5029 82.8982C98.5029 82.9661 98.4689 83 98.401 83H96.0595C95.9916 83 95.9577 82.9661 95.9577 82.8982V76.7694H92.8322V82.8982C92.8322 82.9661 92.8051 83 92.7508 83ZM107.024 83H100.284C100.23 83 100.203 82.9661 100.203 82.8982L100.223 68.574C100.223 68.5197 100.251 68.4926 100.305 68.4926H107.004C107.058 68.4926 107.085 68.5265 107.085 68.5944V70.9258C107.085 70.9801 107.058 71.0072 107.004 71.0072H102.728V74.265H107.004C107.058 74.265 107.085 74.2922 107.085 74.3465L107.105 76.7084C107.105 76.7627 107.078 76.7898 107.024 76.7898H102.728V80.4345H107.024C107.078 80.4345 107.105 80.4684 107.105 80.5363V82.9186C107.105 82.9729 107.078 83 107.024 83ZM111.422 83H109.06C108.992 83 108.958 82.9661 108.958 82.8982L108.979 68.574C108.979 68.5197 109.006 68.4926 109.06 68.4926H111.402C111.456 68.4926 111.483 68.5197 111.483 68.574L111.504 82.8982C111.504 82.9661 111.476 83 111.422 83ZM115.779 83H113.417C113.363 83 113.336 82.9661 113.336 82.8982L113.377 68.574C113.377 68.5197 113.404 68.4926 113.458 68.4926H116.003C116.058 68.4926 116.105 68.5197 116.146 68.574L118.05 71.3228L119.943 68.574C119.984 68.5197 120.035 68.4926 120.096 68.4926H122.651C122.712 68.4926 122.743 68.5197 122.743 68.574L122.784 82.8982C122.784 82.9661 122.757 83 122.702 83H120.34C120.286 83 120.259 82.9661 120.259 82.8982L120.239 72.2594L118.05 75.4358L115.881 72.2594L115.861 82.8982C115.861 82.9661 115.834 83 115.779 83Z" fill="white"/>
</svg>
