<svg width="155" height="154" viewBox="0 0 155 154" fill="none" xmlns="http://www.w3.org/2000/svg">
<path fill-rule="evenodd" clip-rule="evenodd" d="M110.71 34.7049C122.195 42.516 126.305 57.0743 128.012 70.6915C129.833 85.218 132.265 103.694 120.384 111.885C108.595 120.012 94.0012 122.586 79.498 123C65.4827 123.4 52.0132 121.553 39.8771 114.182C27.8014 106.848 38.3022 89.9746 37.9515 76.0518C37.6238 63.0449 28.6116 47.234 37.9688 38.4345C46.9934 29.9476 61.3075 34.4998 73.8535 33.8565C86.5848 33.2038 100.023 27.4364 110.71 34.7049Z" stroke="#FF4301" stroke-width="2"/>
<path d="M53.5262 83.8982L56.1121 69.574C56.1257 69.5197 56.1596 69.4926 56.2139 69.4926H59.2376C59.2919 69.4926 59.3258 69.5197 59.3394 69.574L61.8235 83.8982C61.8302 83.9661 61.8031 84 61.742 84H59.431C59.3631 84 59.3258 83.9661 59.319 83.8982L59.095 82.3711H56.2546L56.0307 83.8982C56.0239 83.9661 55.9899 84 55.9289 84H53.6077C53.5534 84 53.5262 83.9661 53.5262 83.8982ZM57.6087 74.2877L56.6721 80.1415H58.6776L57.8225 74.2877L57.7003 73.5139L57.6087 74.2877ZM69.9476 84H63.208C63.1537 84 63.1266 83.9661 63.1266 83.8982L63.1469 69.5944C63.1469 69.5265 63.1809 69.4926 63.2487 69.4926H65.5699C65.6378 69.4926 65.6717 69.5265 65.6717 69.5944L65.6514 81.4345H69.9476C70.0155 81.4345 70.0494 81.4684 70.0494 81.5363V83.8982C70.0494 83.9661 70.0155 84 69.9476 84ZM73.857 84H71.5154C71.4476 84 71.4136 83.9661 71.4136 83.8982L71.4543 69.574C71.4543 69.5197 71.4815 69.4926 71.5358 69.4926H78.2143C78.2822 69.4926 78.3161 69.5197 78.3161 69.574V71.9258C78.3161 71.9801 78.289 72.0072 78.2347 72.0072H73.9588V75.2446H78.2347C78.289 75.2446 78.3161 75.2786 78.3161 75.3465L78.3365 77.7084C78.3365 77.7627 78.3025 77.7898 78.2347 77.7898H73.9588V83.8982C73.9588 83.9661 73.9248 84 73.857 84ZM82.6327 84H80.2708C80.2165 84 80.1893 83.9661 80.1893 83.8982L80.2097 69.574C80.2097 69.5197 80.2436 69.4926 80.3115 69.4926H82.6327C82.7006 69.4926 82.7345 69.5197 82.7345 69.574L82.7141 75.2446H85.8396V69.574C85.8396 69.5197 85.8667 69.4926 85.921 69.4926H88.2422C88.3101 69.4926 88.344 69.5197 88.344 69.574L88.3848 83.8982C88.3848 83.9661 88.3508 84 88.2829 84H85.9414C85.8735 84 85.8396 83.9661 85.8396 83.8982V77.7694H82.7141V83.8982C82.7141 83.9661 82.687 84 82.6327 84ZM96.906 84H90.1664C90.1121 84 90.0849 83.9661 90.0849 83.8982L90.1053 69.574C90.1053 69.5197 90.1324 69.4926 90.1867 69.4926H96.8856C96.9399 69.4926 96.967 69.5265 96.967 69.5944V71.9258C96.967 71.9801 96.9399 72.0072 96.8856 72.0072H92.6097V75.265H96.8856C96.9399 75.265 96.967 75.2922 96.967 75.3465L96.9874 77.7084C96.9874 77.7627 96.9603 77.7898 96.906 77.7898H92.6097V81.4345H96.906C96.9603 81.4345 96.9874 81.4684 96.9874 81.5363V83.9186C96.9874 83.9729 96.9603 84 96.906 84ZM101.304 84H98.9421C98.8742 84 98.8403 83.9661 98.8403 83.8982L98.8606 69.574C98.8606 69.5197 98.8878 69.4926 98.9421 69.4926H101.284C101.338 69.4926 101.365 69.5197 101.365 69.574L101.385 83.8982C101.385 83.9661 101.358 84 101.304 84ZM105.661 84H103.299C103.245 84 103.218 83.9661 103.218 83.8982L103.259 69.574C103.259 69.5197 103.286 69.4926 103.34 69.4926H105.885C105.94 69.4926 105.987 69.5197 106.028 69.574L107.932 72.3228L109.825 69.574C109.866 69.5197 109.917 69.4926 109.978 69.4926H112.533C112.594 69.4926 112.625 69.5197 112.625 69.574L112.666 83.8982C112.666 83.9661 112.638 84 112.584 84H110.222C110.168 84 110.141 83.9661 110.141 83.8982L110.12 73.2594L107.932 76.4358L105.763 73.2594L105.743 83.8982C105.743 83.9661 105.716 84 105.661 84Z" fill="white"/>
</svg>
