<svg width="126" height="121" viewBox="0 0 126 121" fill="none" xmlns="http://www.w3.org/2000/svg">
<path fill-rule="evenodd" clip-rule="evenodd" d="M62.8337 7.76727C77.0078 8.66878 92.3733 7.4468 102.715 17.2283C114.375 28.2573 120.165 44.709 118.879 60.7779C117.532 77.6235 109.433 93.8107 95.7974 103.693C82.4915 113.336 64.4388 117.151 49.1195 111.334C35.6129 106.205 32.9038 89.292 25.3239 76.9302C19.0507 66.6997 9.03093 58.2864 9.21525 46.2563C9.41687 33.0968 15.6583 20.0173 26.313 12.369C36.7029 4.91084 50.1092 6.95797 62.8337 7.76727Z" stroke="#FF4301" stroke-width="2"/>
<path d="M36.4233 64H34.3362C34.2277 64 34.1734 63.9525 34.1734 63.8575L34.153 49.6555C34.153 49.5469 34.2073 49.4926 34.3159 49.4926H36.1993L39.7218 57.7084L39.62 49.6555C39.62 49.5469 39.6811 49.4926 39.8033 49.4926H41.8699C41.9514 49.4926 41.9921 49.5469 41.9921 49.6555L42.0124 63.8778C42.0124 63.9593 41.9785 64 41.9106 64H40.0781L36.464 56.3238L36.6167 63.8371C36.6167 63.9457 36.5522 64 36.4233 64ZM46.2883 64H43.9264C43.8585 64 43.8246 63.9661 43.8246 63.8982L43.845 49.574C43.845 49.5197 43.8721 49.4926 43.9264 49.4926H46.268C46.3223 49.4926 46.3494 49.5197 46.3494 49.574L46.3698 63.8982C46.3698 63.9661 46.3426 64 46.2883 64ZM55.0233 64H48.2837C48.2294 64 48.2023 63.9661 48.2023 63.8982L48.2226 49.5944C48.2226 49.5265 48.2566 49.4926 48.3244 49.4926H50.6456C50.7135 49.4926 50.7474 49.5265 50.7474 49.5944L50.7271 61.4345H55.0233C55.0912 61.4345 55.1251 61.4684 55.1251 61.5363V63.8982C55.1251 63.9661 55.0912 64 55.0233 64ZM58.9327 64H56.5911C56.5233 64 56.4893 63.9661 56.4893 63.8982L56.53 49.574C56.53 49.5197 56.5572 49.4926 56.6115 49.4926H63.29C63.3579 49.4926 63.3918 49.5197 63.3918 49.574V51.9258C63.3918 51.9801 63.3647 52.0072 63.3104 52.0072H59.0345V55.2446H63.3104C63.3647 55.2446 63.3918 55.2786 63.3918 55.3465L63.4122 57.7084C63.4122 57.7627 63.3782 57.7898 63.3104 57.7898H59.0345V63.8982C59.0345 63.9661 59.0005 64 58.9327 64ZM67.7084 64H65.3465C65.2922 64 65.265 63.9661 65.265 63.8982L65.2854 49.574C65.2854 49.5197 65.3193 49.4926 65.3872 49.4926H67.7084C67.7763 49.4926 67.8102 49.5197 67.8102 49.574L67.7898 55.2446H70.9153V49.574C70.9153 49.5197 70.9424 49.4926 70.9967 49.4926H73.3179C73.3858 49.4926 73.4197 49.5197 73.4197 49.574L73.4605 63.8982C73.4605 63.9661 73.4265 64 73.3586 64H71.0171C70.9492 64 70.9153 63.9661 70.9153 63.8982V57.7694H67.7898V63.8982C67.7898 63.9661 67.7627 64 67.7084 64ZM81.9817 64H75.2421C75.1878 64 75.1606 63.9661 75.1606 63.8982L75.181 49.574C75.181 49.5197 75.2081 49.4926 75.2624 49.4926H81.9613C82.0156 49.4926 82.0427 49.5265 82.0427 49.5944V51.9258C82.0427 51.9801 82.0156 52.0072 81.9613 52.0072H77.6854V55.265H81.9613C82.0156 55.265 82.0427 55.2922 82.0427 55.3465L82.0631 57.7084C82.0631 57.7627 82.036 57.7898 81.9817 57.7898H77.6854V61.4345H81.9817C82.036 61.4345 82.0631 61.4684 82.0631 61.5363V63.9186C82.0631 63.9729 82.036 64 81.9817 64ZM86.3797 64H84.0178C83.9499 64 83.916 63.9661 83.916 63.8982L83.9363 49.574C83.9363 49.5197 83.9635 49.4926 84.0178 49.4926H86.3593C86.4136 49.4926 86.4408 49.5197 86.4408 49.574L86.4611 63.8982C86.4611 63.9661 86.434 64 86.3797 64ZM90.737 64H88.3751C88.3208 64 88.2937 63.9661 88.2937 63.8982L88.3344 49.574C88.3344 49.5197 88.3615 49.4926 88.4158 49.4926H90.961C91.0153 49.4926 91.0628 49.5197 91.1035 49.574L93.0073 52.3228L94.9009 49.574C94.9416 49.5197 94.9925 49.4926 95.0536 49.4926H97.6089C97.67 49.4926 97.7006 49.5197 97.7006 49.574L97.7413 63.8982C97.7413 63.9661 97.7141 64 97.6598 64H95.2979C95.2436 64 95.2165 63.9661 95.2165 63.8982L95.1961 53.2594L93.0073 56.4358L90.8388 53.2594L90.8185 63.8982C90.8185 63.9661 90.7913 64 90.737 64Z" fill="white"/>
</svg>
