<svg width="119" height="114" viewBox="0 0 119 114" fill="none" xmlns="http://www.w3.org/2000/svg">
<path fill-rule="evenodd" clip-rule="evenodd" d="M52.0357 8.87217C63.867 10.1026 74.2675 14.3555 84.154 20.9512C96.2311 29.0083 110.445 36.2206 114.068 50.2563C118.196 66.2468 115.126 84.8019 103.732 96.7862C92.5846 108.511 74.6633 107.232 58.5299 108.672C41.7543 110.168 20.4572 118.354 10.0565 105.144C-0.490674 91.7486 17.8507 73.573 17.4852 56.5412C17.1543 41.123 -0.980109 25.5396 8.07974 13.0398C17.045 0.67044 36.8188 7.28969 52.0357 8.87217Z" stroke="#FF4301" stroke-width="2"/>
<path d="M36.6834 67H34.3215C34.2672 67 34.24 66.9661 34.24 66.8982L34.2604 52.574C34.2604 52.5197 34.2943 52.4926 34.3622 52.4926H36.6834C36.7513 52.4926 36.7852 52.5197 36.7852 52.574L36.7648 58.2446H39.8903V52.574C39.8903 52.5197 39.9174 52.4926 39.9717 52.4926H42.2929C42.3608 52.4926 42.3947 52.5197 42.3947 52.574L42.4354 66.8982C42.4354 66.9661 42.4015 67 42.3336 67H39.9921C39.9242 67 39.8903 66.9661 39.8903 66.8982V60.7694H36.7648V66.8982C36.7648 66.9661 36.7377 67 36.6834 67ZM50.9566 67H44.2171C44.1628 67 44.1356 66.9661 44.1356 66.8982L44.156 52.574C44.156 52.5197 44.1831 52.4926 44.2374 52.4926H50.9363C50.9906 52.4926 51.0177 52.5265 51.0177 52.5944V54.9258C51.0177 54.9801 50.9906 55.0072 50.9363 55.0072H46.6604V58.265H50.9363C50.9906 58.265 51.0177 58.2922 51.0177 58.3465L51.0381 60.7084C51.0381 60.7627 51.0109 60.7898 50.9566 60.7898H46.6604V64.4345H50.9566C51.0109 64.4345 51.0381 64.4684 51.0381 64.5363V66.9186C51.0381 66.9729 51.0109 67 50.9566 67ZM59.712 67H52.9724C52.9181 67 52.891 66.9661 52.891 66.8982L52.9113 52.5944C52.9113 52.5265 52.9453 52.4926 53.0131 52.4926H55.3343C55.4022 52.4926 55.4361 52.5265 55.4361 52.5944L55.4158 64.4345H59.712C59.7799 64.4345 59.8138 64.4684 59.8138 64.5363V66.8982C59.8138 66.9661 59.7799 67 59.712 67ZM63.6214 67H61.2595C61.2052 67 61.178 66.9661 61.178 66.8982L61.1984 52.574C61.1984 52.5197 61.2323 52.4926 61.3002 52.4926H63.6214C63.6892 52.4926 63.7232 52.5197 63.7232 52.574L63.7028 58.2446H66.8283V52.574C66.8283 52.5197 66.8554 52.4926 66.9097 52.4926H69.2309C69.2988 52.4926 69.3327 52.5197 69.3327 52.574L69.3734 66.8982C69.3734 66.9661 69.3395 67 69.2716 67H66.9301C66.8622 67 66.8283 66.9661 66.8283 66.8982V60.7694H63.7028V66.8982C63.7028 66.9661 63.6757 67 63.6214 67ZM77.8946 67H71.155C71.1007 67 71.0736 66.9661 71.0736 66.8982L71.094 52.574C71.094 52.5197 71.1211 52.4926 71.1754 52.4926H77.8743C77.9286 52.4926 77.9557 52.5265 77.9557 52.5944V54.9258C77.9557 54.9801 77.9286 55.0072 77.8743 55.0072H73.5984V58.265H77.8743C77.9286 58.265 77.9557 58.2922 77.9557 58.3465L77.9761 60.7084C77.9761 60.7627 77.9489 60.7898 77.8946 60.7898H73.5984V64.4345H77.8946C77.9489 64.4345 77.9761 64.4684 77.9761 64.5363V66.9186C77.9761 66.9729 77.9489 67 77.8946 67ZM82.2927 67H79.9308C79.8629 67 79.829 66.9661 79.829 66.8982L79.8493 52.574C79.8493 52.5197 79.8765 52.4926 79.9308 52.4926H82.2723C82.3266 52.4926 82.3537 52.5197 82.3537 52.574L82.3741 66.8982C82.3741 66.9661 82.347 67 82.2927 67ZM86.65 67H84.2881C84.2338 67 84.2066 66.9661 84.2066 66.8982L84.2473 52.574C84.2473 52.5197 84.2745 52.4926 84.3288 52.4926H86.8739C86.9282 52.4926 86.9758 52.5197 87.0165 52.574L88.9203 55.3228L90.8139 52.574C90.8546 52.5197 90.9055 52.4926 90.9666 52.4926H93.5219C93.583 52.4926 93.6135 52.5197 93.6135 52.574L93.6543 66.8982C93.6543 66.9661 93.6271 67 93.5728 67H91.2109C91.1566 67 91.1295 66.9661 91.1295 66.8982L91.1091 56.2594L88.9203 59.4358L86.7518 56.2594L86.7314 66.8982C86.7314 66.9661 86.7043 67 86.65 67Z" fill="white"/>
</svg>
