<svg width="101" height="100" viewBox="0 0 101 100" fill="none" xmlns="http://www.w3.org/2000/svg">
<path fill-rule="evenodd" clip-rule="evenodd" d="M79.7098 7.70486C91.1946 15.516 95.3051 30.0743 97.0119 43.6915C98.8327 58.218 101.265 76.6942 89.3837 84.8853C77.5955 93.0119 63.0012 95.5862 48.498 96C34.4827 96.3998 21.0132 94.553 8.87712 87.182C-3.19865 79.8477 7.30225 62.9746 6.95149 49.0518C6.6238 36.0449 -2.38837 20.234 6.96879 11.4345C15.9934 2.94764 30.3075 7.4998 42.8535 6.85654C55.5848 6.20377 69.0231 0.436449 79.7098 7.70486Z" stroke="#FAFAFA" stroke-width="2"/>
<path d="M22.5262 56.8982L25.1121 42.574C25.1257 42.5197 25.1596 42.4926 25.2139 42.4926H28.2376C28.2919 42.4926 28.3258 42.5197 28.3394 42.574L30.8235 56.8982C30.8302 56.9661 30.8031 57 30.742 57H28.431C28.3631 57 28.3258 56.9661 28.319 56.8982L28.095 55.3711H25.2546L25.0307 56.8982C25.0239 56.9661 24.9899 57 24.9289 57H22.6077C22.5534 57 22.5262 56.9661 22.5262 56.8982ZM26.6087 47.2877L25.6721 53.1415H27.6776L26.8225 47.2877L26.7003 46.5139L26.6087 47.2877ZM38.9476 57H32.208C32.1537 57 32.1266 56.9661 32.1266 56.8982L32.1469 42.5944C32.1469 42.5265 32.1809 42.4926 32.2487 42.4926H34.5699C34.6378 42.4926 34.6717 42.5265 34.6717 42.5944L34.6514 54.4345H38.9476C39.0155 54.4345 39.0494 54.4684 39.0494 54.5363V56.8982C39.0494 56.9661 39.0155 57 38.9476 57ZM42.857 57H40.5154C40.4476 57 40.4136 56.9661 40.4136 56.8982L40.4543 42.574C40.4543 42.5197 40.4815 42.4926 40.5358 42.4926H47.2143C47.2822 42.4926 47.3161 42.5197 47.3161 42.574V44.9258C47.3161 44.9801 47.289 45.0072 47.2347 45.0072H42.9588V48.2446H47.2347C47.289 48.2446 47.3161 48.2786 47.3161 48.3465L47.3365 50.7084C47.3365 50.7627 47.3025 50.7898 47.2347 50.7898H42.9588V56.8982C42.9588 56.9661 42.9248 57 42.857 57ZM51.6327 57H49.2708C49.2165 57 49.1893 56.9661 49.1893 56.8982L49.2097 42.574C49.2097 42.5197 49.2436 42.4926 49.3115 42.4926H51.6327C51.7006 42.4926 51.7345 42.5197 51.7345 42.574L51.7141 48.2446H54.8396V42.574C54.8396 42.5197 54.8667 42.4926 54.921 42.4926H57.2422C57.3101 42.4926 57.344 42.5197 57.344 42.574L57.3848 56.8982C57.3848 56.9661 57.3508 57 57.2829 57H54.9414C54.8735 57 54.8396 56.9661 54.8396 56.8982V50.7694H51.7141V56.8982C51.7141 56.9661 51.687 57 51.6327 57ZM65.906 57H59.1664C59.1121 57 59.0849 56.9661 59.0849 56.8982L59.1053 42.574C59.1053 42.5197 59.1324 42.4926 59.1867 42.4926H65.8856C65.9399 42.4926 65.967 42.5265 65.967 42.5944V44.9258C65.967 44.9801 65.9399 45.0072 65.8856 45.0072H61.6097V48.265H65.8856C65.9399 48.265 65.967 48.2922 65.967 48.3465L65.9874 50.7084C65.9874 50.7627 65.9603 50.7898 65.906 50.7898H61.6097V54.4345H65.906C65.9603 54.4345 65.9874 54.4684 65.9874 54.5363V56.9186C65.9874 56.9729 65.9603 57 65.906 57ZM70.304 57H67.9421C67.8742 57 67.8403 56.9661 67.8403 56.8982L67.8606 42.574C67.8606 42.5197 67.8878 42.4926 67.9421 42.4926H70.2836C70.3379 42.4926 70.3651 42.5197 70.3651 42.574L70.3854 56.8982C70.3854 56.9661 70.3583 57 70.304 57ZM74.6613 57H72.2994C72.2451 57 72.218 56.9661 72.218 56.8982L72.2587 42.574C72.2587 42.5197 72.2858 42.4926 72.3401 42.4926H74.8853C74.9396 42.4926 74.9871 42.5197 75.0278 42.574L76.9316 45.3228L78.8252 42.574C78.8659 42.5197 78.9168 42.4926 78.9779 42.4926H81.5332C81.5943 42.4926 81.6249 42.5197 81.6249 42.574L81.6656 56.8982C81.6656 56.9661 81.6384 57 81.5841 57H79.2222C79.1679 57 79.1408 56.9661 79.1408 56.8982L79.1204 46.2594L76.9316 49.4358L74.7631 46.2594L74.7427 56.8982C74.7427 56.9661 74.7156 57 74.6613 57Z" fill="#FAFAFA"/>
</svg>
