<svg width="148" height="145" viewBox="0 0 148 145" fill="none" xmlns="http://www.w3.org/2000/svg">
<path fill-rule="evenodd" clip-rule="evenodd" d="M90.8954 119.865C78.3465 124.315 65.2582 127.795 52.6063 123.48C40.0084 119.183 30.9387 108.871 24.4364 97.1959C17.575 84.8763 12.0466 70.9748 15.8275 57.4432C19.7351 43.4583 25.7809 37.3528 39 31.5C51.637 25.9049 67.5951 37.4423 81 41C95.7141 44.9052 114.499 34.996 123.044 47.6768C132.496 61.7052 137.201 80.5309 130.352 95.9109C123.824 110.569 105.972 114.519 90.8954 119.865Z" fill="#FF4301" stroke="#FF4301" stroke-width="2"/>
<path d="M27.5559 83H25.194C25.1397 83 25.1126 82.9661 25.1126 82.8982L25.1533 68.574C25.1533 68.5197 25.1804 68.4926 25.2347 68.4926H27.7799C27.8342 68.4926 27.8817 68.5197 27.9224 68.574L29.8262 71.3228L31.7198 68.574C31.7605 68.5197 31.8114 68.4926 31.8725 68.4926H34.4278C34.4889 68.4926 34.5195 68.5197 34.5195 68.574L34.5602 82.8982C34.5602 82.9661 34.533 83 34.4787 83H32.1168C32.0625 83 32.0354 82.9661 32.0354 82.8982L32.015 72.2594L29.8262 75.4358L27.6577 72.2594L27.6374 82.8982C27.6374 82.9661 27.6102 83 27.5559 83ZM40.1494 83.2036C39.4164 83.2036 38.7376 83.0136 38.1132 82.6335C37.4888 82.2534 36.99 81.7444 36.6167 81.1064C36.2502 80.4616 36.0669 79.7592 36.0669 78.999L36.1076 68.574C36.1076 68.5197 36.1348 68.4926 36.1891 68.4926H38.5306C38.5849 68.4926 38.6121 68.5197 38.6121 68.574V78.999C38.6121 79.4673 38.7614 79.8678 39.06 80.2003C39.3587 80.5261 39.7218 80.689 40.1494 80.689C40.5973 80.689 40.9706 80.5261 41.2692 80.2003C41.5679 79.8678 41.7172 79.4673 41.7172 78.999V68.574C41.7172 68.5197 41.7443 68.4926 41.7986 68.4926H44.1402C44.1945 68.4926 44.2216 68.5197 44.2216 68.574L44.2623 78.999C44.2623 79.7659 44.0791 80.4718 43.7126 81.1166C43.3393 81.7546 42.8438 82.2636 42.2262 82.6437C41.6086 83.017 40.9163 83.2036 40.1494 83.2036ZM49.4443 83.2036C48.7045 83.2036 48.0224 83.0136 47.398 82.6335C46.7804 82.2534 46.2849 81.7478 45.9116 81.1166C45.5451 80.4786 45.3619 79.7795 45.3619 79.0194V78.0624C45.3619 77.9877 45.3958 77.9504 45.4637 77.9504H47.8052C47.8595 77.9504 47.8867 77.9877 47.8867 78.0624V79.0194C47.8867 79.4741 48.0394 79.8678 48.3448 80.2003C48.6502 80.5261 49.0167 80.689 49.4443 80.689C49.8787 80.689 50.2486 80.5227 50.554 80.1901C50.8594 79.8508 51.0121 79.4605 51.0121 79.0194C51.0121 78.5103 50.6795 78.0658 50.0144 77.6857C49.9058 77.6178 49.7633 77.5364 49.5868 77.4414C49.4171 77.3396 49.2135 77.2242 48.976 77.0952C48.7384 76.9663 48.5077 76.8407 48.2837 76.7185C48.0597 76.5896 47.8425 76.4674 47.6321 76.352C46.872 75.9041 46.3053 75.3442 45.932 74.6722C45.5655 73.9935 45.3822 73.2334 45.3822 72.3918C45.3822 71.618 45.5723 70.919 45.9523 70.2946C46.3324 69.6769 46.8279 69.1883 47.4387 68.8285C48.0563 68.462 48.7249 68.2788 49.4443 68.2788C50.1841 68.2788 50.8628 68.462 51.4804 68.8285C52.098 69.2018 52.5901 69.6973 52.9566 70.3149C53.3299 70.9325 53.5165 71.6248 53.5165 72.3918V74.1021C53.5165 74.1564 53.4894 74.1836 53.4351 74.1836H51.0936C51.0393 74.1836 51.0121 74.1564 51.0121 74.1021L50.9917 72.3918C50.9917 71.9031 50.839 71.5061 50.5336 71.2006C50.2282 70.8952 49.8651 70.7425 49.4443 70.7425C49.0167 70.7425 48.6502 70.9054 48.3448 71.2312C48.0394 71.557 47.8867 71.9438 47.8867 72.3918C47.8867 72.8465 47.9817 73.2266 48.1717 73.532C48.3685 73.8374 48.7249 74.1293 49.2407 74.4075C49.295 74.4347 49.4205 74.5026 49.6174 74.6112C49.8142 74.7197 50.0314 74.8419 50.2689 74.9777C50.5133 75.1066 50.7338 75.2254 50.9307 75.334C51.1275 75.4358 51.2463 75.4969 51.287 75.5172C51.9793 75.9041 52.5256 76.3792 52.9261 76.9425C53.3333 77.5058 53.5369 78.1981 53.5369 79.0194C53.5369 79.8135 53.3537 80.5261 52.9872 81.1573C52.6139 81.7885 52.1184 82.2874 51.5008 82.6539C50.8832 83.0204 50.1977 83.2036 49.4443 83.2036ZM57.4259 83H55.0844C55.0165 83 54.9826 82.9661 54.9826 82.8982L55.0233 68.574C55.0233 68.5197 55.0504 68.4926 55.1047 68.4926H59.1159C60.3919 68.4926 61.3998 68.8828 62.1396 69.6634C62.8861 70.4371 63.2594 71.4925 63.2594 72.8295C63.2594 73.8069 63.066 74.6587 62.6791 75.3849C62.2855 76.1043 61.7764 76.6609 61.152 77.0545C60.5276 77.4482 59.8489 77.645 59.1159 77.645H57.5277V82.8982C57.5277 82.9661 57.4938 83 57.4259 83ZM59.1159 70.9665L57.5277 70.9868V75.1202H59.1159C59.5571 75.1202 59.9405 74.9098 60.2663 74.489C60.5921 74.0614 60.755 73.5082 60.755 72.8295C60.755 72.2866 60.6091 71.842 60.3172 71.4959C60.0254 71.1429 59.6249 70.9665 59.1159 70.9665ZM71.3327 83H64.5931C64.5388 83 64.5116 82.9661 64.5116 82.8982L64.532 68.574C64.532 68.5197 64.5591 68.4926 64.6134 68.4926H71.3123C71.3666 68.4926 71.3938 68.5265 71.3938 68.5944V70.9258C71.3938 70.9801 71.3666 71.0072 71.3123 71.0072H67.0364V74.265H71.3123C71.3666 74.265 71.3938 74.2922 71.3938 74.3465L71.4141 76.7084C71.4141 76.7627 71.387 76.7898 71.3327 76.7898H67.0364V80.4345H71.3327C71.387 80.4345 71.4141 80.4684 71.4141 80.5363V82.9186C71.4141 82.9729 71.387 83 71.3327 83ZM80.088 83H73.3484C73.2941 83 73.267 82.9661 73.267 82.8982L73.2874 68.5944C73.2874 68.5265 73.3213 68.4926 73.3892 68.4926H75.7104C75.7782 68.4926 75.8122 68.5265 75.8122 68.5944L75.7918 80.4345H80.088C80.1559 80.4345 80.1898 80.4684 80.1898 80.5363V82.8982C80.1898 82.9661 80.1559 83 80.088 83ZM88.3751 83H81.6355C81.5812 83 81.554 82.9661 81.554 82.8982L81.5744 68.574C81.5744 68.5197 81.6015 68.4926 81.6558 68.4926H88.3547C88.409 68.4926 88.4362 68.5265 88.4362 68.5944V70.9258C88.4362 70.9801 88.409 71.0072 88.3547 71.0072H84.0788V74.265H88.3547C88.409 74.265 88.4362 74.2922 88.4362 74.3465L88.4565 76.7084C88.4565 76.7627 88.4294 76.7898 88.3751 76.7898H84.0788V80.4345H88.3751C88.4294 80.4345 88.4565 80.4684 88.4565 80.5363V82.9186C88.4565 82.9729 88.4294 83 88.3751 83ZM92.7527 83H90.3908C90.3365 83 90.3094 82.9661 90.3094 82.8982L90.3297 68.574C90.3297 68.5197 90.3637 68.4926 90.4316 68.4926H92.7527C92.8206 68.4926 92.8545 68.5197 92.8545 68.574L92.8342 74.2446H95.9596V68.574C95.9596 68.5197 95.9868 68.4926 96.0411 68.4926H98.3623C98.4301 68.4926 98.4641 68.5197 98.4641 68.574L98.5048 82.8982C98.5048 82.9661 98.4709 83 98.403 83H96.0615C95.9936 83 95.9596 82.9661 95.9596 82.8982V76.7694H92.8342V82.8982C92.8342 82.9661 92.807 83 92.7527 83ZM107.026 83H100.286C100.232 83 100.205 82.9661 100.205 82.8982L100.225 68.574C100.225 68.5197 100.252 68.4926 100.307 68.4926H107.006C107.06 68.4926 107.087 68.5265 107.087 68.5944V70.9258C107.087 70.9801 107.06 71.0072 107.006 71.0072H102.73V74.265H107.006C107.06 74.265 107.087 74.2922 107.087 74.3465L107.107 76.7084C107.107 76.7627 107.08 76.7898 107.026 76.7898H102.73V80.4345H107.026C107.08 80.4345 107.107 80.4684 107.107 80.5363V82.9186C107.107 82.9729 107.08 83 107.026 83ZM111.424 83H109.062C108.994 83 108.96 82.9661 108.96 82.8982L108.981 68.574C108.981 68.5197 109.008 68.4926 109.062 68.4926H111.404C111.458 68.4926 111.485 68.5197 111.485 68.574L111.505 82.8982C111.505 82.9661 111.478 83 111.424 83ZM115.781 83H113.419C113.365 83 113.338 82.9661 113.338 82.8982L113.379 68.574C113.379 68.5197 113.406 68.4926 113.46 68.4926H116.005C116.06 68.4926 116.107 68.5197 116.148 68.574L118.052 71.3228L119.945 68.574C119.986 68.5197 120.037 68.4926 120.098 68.4926H122.653C122.714 68.4926 122.745 68.5197 122.745 68.574L122.786 82.8982C122.786 82.9661 122.758 83 122.704 83H120.342C120.288 83 120.261 82.9661 120.261 82.8982L120.24 72.2594L118.052 75.4358L115.883 72.2594L115.863 82.8982C115.863 82.9661 115.836 83 115.781 83Z" fill="white"/>
</svg>
