<svg width="117" height="113" viewBox="0 0 117 113" fill="none" xmlns="http://www.w3.org/2000/svg">
<path fill-rule="evenodd" clip-rule="evenodd" d="M80.0001 111C65.8526 112.252 35.566 112.309 23.8644 104.203C10.6706 95.0638 2.46016 79.6765 1.30148 63.598C0.0867971 46.7423 5.64462 29.5167 17.6297 17.6865C29.3247 6.1427 46.593 -0.358511 62.6158 3.07605C76.7426 6.10418 81.9776 22.4129 91.3394 33.4865C99.0872 42.651 113.643 56.2005 115.28 68.1202C117.07 81.1589 112.878 95.0317 103.502 104.203C94.359 113.146 92.7006 109.876 80.0001 111Z" fill="#FF4301" stroke="#FF4301" stroke-width="2"/>
<path d="M20.8134 70.2036C20.0736 70.2036 19.3915 70.0136 18.7671 69.6335C18.1495 69.2534 17.654 68.7478 17.2807 68.1166C16.9142 67.4786 16.731 66.7795 16.731 66.0194V65.0624C16.731 64.9877 16.7649 64.9504 16.8328 64.9504H19.1743C19.2286 64.9504 19.2558 64.9877 19.2558 65.0624V66.0194C19.2558 66.4741 19.4085 66.8678 19.7139 67.2003C20.0193 67.5261 20.3858 67.689 20.8134 67.689C21.2478 67.689 21.6177 67.5227 21.9231 67.1901C22.2285 66.8508 22.3812 66.4605 22.3812 66.0194C22.3812 65.5103 22.0487 65.0658 21.3835 64.6857C21.2749 64.6178 21.1324 64.5364 20.9559 64.4414C20.7863 64.3396 20.5826 64.2242 20.3451 64.0952C20.1075 63.9663 19.8768 63.8407 19.6528 63.7185C19.4288 63.5896 19.2116 63.4674 19.0012 63.352C18.2411 62.9041 17.6744 62.3442 17.3011 61.6722C16.9346 60.9935 16.7513 60.2334 16.7513 59.3918C16.7513 58.618 16.9414 57.919 17.3214 57.2946C17.7015 56.6769 18.197 56.1883 18.8078 55.8285C19.4254 55.462 20.094 55.2788 20.8134 55.2788C21.5532 55.2788 22.2319 55.462 22.8495 55.8285C23.4672 56.2018 23.9592 56.6973 24.3257 57.3149C24.699 57.9325 24.8857 58.6248 24.8857 59.3918V61.1021C24.8857 61.1564 24.8585 61.1836 24.8042 61.1836H22.4627C22.4084 61.1836 22.3812 61.1564 22.3812 61.1021L22.3609 59.3918C22.3609 58.9031 22.2081 58.5061 21.9027 58.2006C21.5973 57.8952 21.2342 57.7425 20.8134 57.7425C20.3858 57.7425 20.0193 57.9054 19.7139 58.2312C19.4085 58.557 19.2558 58.9438 19.2558 59.3918C19.2558 59.8465 19.3508 60.2266 19.5408 60.532C19.7376 60.8374 20.094 61.1293 20.6098 61.4075C20.6641 61.4347 20.7896 61.5026 20.9865 61.6112C21.1833 61.7197 21.4005 61.8419 21.638 61.9777C21.8824 62.1066 22.1029 62.2254 22.2998 62.334C22.4966 62.4358 22.6154 62.4969 22.6561 62.5172C23.3484 62.9041 23.8947 63.3792 24.2952 63.9425C24.7024 64.5058 24.906 65.1981 24.906 66.0194C24.906 66.8135 24.7228 67.5261 24.3563 68.1573C23.983 68.7885 23.4875 69.2874 22.8699 69.6539C22.2523 70.0204 21.5668 70.2036 20.8134 70.2036ZM30.7904 70H28.2656C28.2045 70 28.1706 69.9661 28.1638 69.8982L25.2827 55.574C25.2691 55.5197 25.2963 55.4926 25.3641 55.4926H27.7261C27.7804 55.4926 27.8143 55.5197 27.8279 55.574L29.5382 65.1235L31.2078 55.574C31.2214 55.5197 31.2553 55.4926 31.3096 55.4926H33.641C33.7157 55.4926 33.7428 55.5197 33.7225 55.574L30.8922 69.8982C30.8854 69.9661 30.8515 70 30.7904 70ZM32.572 69.8982L35.1579 55.574C35.1715 55.5197 35.2054 55.4926 35.2597 55.4926H38.2834C38.3377 55.4926 38.3716 55.5197 38.3852 55.574L40.8693 69.8982C40.8761 69.9661 40.8489 70 40.7878 70H38.4768C38.4089 70 38.3716 69.9661 38.3648 69.8982L38.1409 68.3711H35.3005L35.0765 69.8982C35.0697 69.9661 35.0358 70 34.9747 70H32.6535C32.5992 70 32.572 69.9661 32.572 69.8982ZM36.6545 60.2877L35.7179 66.1415H37.7234L36.8683 60.2877L36.7461 59.5139L36.6545 60.2877ZM44.6157 70H42.2538C42.1995 70 42.1724 69.9661 42.1724 69.8982L42.2131 55.574C42.2131 55.5197 42.2403 55.4926 42.2946 55.4926H46.5093C47.2627 55.4926 47.955 55.6758 48.5862 56.0423C49.2174 56.4088 49.7196 56.9009 50.0929 57.5185C50.473 58.1362 50.663 58.8352 50.663 59.6157C50.663 60.1248 50.585 60.5863 50.4289 61.0003C50.2728 61.4143 50.0895 61.7639 49.8791 62.0489C49.6755 62.334 49.4889 62.5444 49.3192 62.6801C50.0726 63.5149 50.4493 64.4957 50.4493 65.6223L50.4696 69.8982C50.4696 69.9661 50.4357 70 50.3678 70H48.0059C47.9516 70 47.9245 69.9796 47.9245 69.9389V65.6223C47.9245 65.1201 47.748 64.6857 47.3951 64.3192C47.0421 63.9527 46.6078 63.7694 46.0919 63.7694H44.7175L44.6972 69.8982C44.6972 69.9661 44.67 70 44.6157 70ZM46.5093 57.9868H44.7175V61.265H46.5093C46.9369 61.265 47.317 61.1055 47.6496 60.7865C47.9889 60.4675 48.1586 60.0773 48.1586 59.6157C48.1586 59.1746 47.9957 58.7945 47.6699 58.4755C47.3442 58.1497 46.9573 57.9868 46.5093 57.9868ZM56.2522 70H53.9005C53.8394 70 53.8089 69.9661 53.8089 69.8982V58.0072H51.1008C51.0329 58.0072 50.999 57.9733 50.999 57.9054L51.0194 55.574C51.0194 55.5197 51.0465 55.4926 51.1008 55.4926H59.0214C59.096 55.4926 59.1333 55.5197 59.1333 55.574V57.9054C59.1333 57.9733 59.1062 58.0072 59.0519 58.0072H56.3133L56.3337 69.8982C56.3337 69.9661 56.3065 70 56.2522 70ZM62.5948 70H60.2328C60.1786 70 60.1514 69.9661 60.1514 69.8982L60.1718 55.574C60.1718 55.5197 60.2057 55.4926 60.2736 55.4926H62.5948C62.6626 55.4926 62.6966 55.5197 62.6966 55.574L62.6762 61.2446H65.8017V55.574C65.8017 55.5197 65.8288 55.4926 65.8831 55.4926H68.2043C68.2722 55.4926 68.3061 55.5197 68.3061 55.574L68.3468 69.8982C68.3468 69.9661 68.3129 70 68.245 70H65.9035C65.8356 70 65.8017 69.9661 65.8017 69.8982V63.7694H62.6762V69.8982C62.6762 69.9661 62.6491 70 62.5948 70ZM76.868 70H70.1284C70.0741 70 70.047 69.9661 70.047 69.8982L70.0673 55.574C70.0673 55.5197 70.0945 55.4926 70.1488 55.4926H76.8477C76.902 55.4926 76.9291 55.5265 76.9291 55.5944V57.9258C76.9291 57.9801 76.902 58.0072 76.8477 58.0072H72.5718V61.265H76.8477C76.902 61.265 76.9291 61.2922 76.9291 61.3465L76.9495 63.7084C76.9495 63.7627 76.9223 63.7898 76.868 63.7898H72.5718V67.4345H76.868C76.9223 67.4345 76.9495 67.4684 76.9495 67.5363V69.9186C76.9495 69.9729 76.9223 70 76.868 70ZM81.2661 70H78.9041C78.8363 70 78.8023 69.9661 78.8023 69.8982L78.8227 55.574C78.8227 55.5197 78.8499 55.4926 78.9041 55.4926H81.2457C81.3 55.4926 81.3271 55.5197 81.3271 55.574L81.3475 69.8982C81.3475 69.9661 81.3204 70 81.2661 70ZM85.6234 70H83.2615C83.2072 70 83.18 69.9661 83.18 69.8982L83.2207 55.574C83.2207 55.5197 83.2479 55.4926 83.3022 55.4926H85.8474C85.9016 55.4926 85.9492 55.5197 85.9899 55.574L87.8937 58.3228L89.7873 55.574C89.828 55.5197 89.8789 55.4926 89.94 55.4926H92.4953C92.5564 55.4926 92.5869 55.5197 92.5869 55.574L92.6277 69.8982C92.6277 69.9661 92.6005 70 92.5462 70H90.1843C90.13 70 90.1029 69.9661 90.1029 69.8982L90.0825 59.2594L87.8937 62.4358L85.7252 59.2594L85.7048 69.8982C85.7048 69.9661 85.6777 70 85.6234 70Z" fill="white"/>
</svg>
