<svg width="128" height="104" viewBox="0 0 128 104" fill="none" xmlns="http://www.w3.org/2000/svg">
<path fill-rule="evenodd" clip-rule="evenodd" d="M80.8935 93.8648C68.3445 98.3148 55.2562 101.795 42.6043 97.4797C30.0065 93.1826 20.9368 82.8709 14.4344 71.1959C7.57307 58.8763 2.04464 44.9748 5.82557 31.4432C9.73316 17.4583 15.7789 11.3528 28.998 5.5C41.6351 -0.0950804 57.5931 11.4423 70.998 15C85.7121 18.9052 104.497 8.99596 113.042 21.6768C122.494 35.7052 127.199 54.5309 120.35 69.9109C113.822 84.569 95.9698 88.5188 80.8935 93.8648Z" fill="#FF4301" stroke="#FF4301" stroke-width="2"/>
<path d="M17.554 57H15.192C15.1377 57 15.1106 56.9661 15.1106 56.8982L15.1513 42.574C15.1513 42.5197 15.1785 42.4926 15.2328 42.4926H17.7779C17.8322 42.4926 17.8797 42.5197 17.9205 42.574L19.8242 45.3228L21.7178 42.574C21.7586 42.5197 21.8095 42.4926 21.8705 42.4926H24.4259C24.487 42.4926 24.5175 42.5197 24.5175 42.574L24.5582 56.8982C24.5582 56.9661 24.5311 57 24.4768 57H22.1149C22.0606 57 22.0334 56.9661 22.0334 56.8982L22.0131 46.2594L19.8242 49.4358L17.6558 46.2594L17.6354 56.8982C17.6354 56.9661 17.6083 57 17.554 57ZM30.1474 57.2036C29.4144 57.2036 28.7357 57.0136 28.1113 56.6335C27.4869 56.2534 26.988 55.7444 26.6147 55.1064C26.2482 54.4616 26.065 53.7592 26.065 52.999L26.1057 42.574C26.1057 42.5197 26.1328 42.4926 26.1871 42.4926H28.5287C28.583 42.4926 28.6101 42.5197 28.6101 42.574V52.999C28.6101 53.4673 28.7594 53.8678 29.0581 54.2003C29.3567 54.5261 29.7198 54.689 30.1474 54.689C30.5954 54.689 30.9686 54.5261 31.2673 54.2003C31.5659 53.8678 31.7152 53.4673 31.7152 52.999V42.574C31.7152 42.5197 31.7424 42.4926 31.7967 42.4926H34.1382C34.1925 42.4926 34.2197 42.5197 34.2197 42.574L34.2604 52.999C34.2604 53.7659 34.0771 54.4718 33.7106 55.1166C33.3373 55.7546 32.8419 56.2636 32.2243 56.6437C31.6066 57.017 30.9144 57.2036 30.1474 57.2036ZM39.4423 57.2036C38.7025 57.2036 38.0204 57.0136 37.396 56.6335C36.7784 56.2534 36.2829 55.7478 35.9097 55.1166C35.5432 54.4786 35.3599 53.7795 35.3599 53.0194V52.0624C35.3599 51.9877 35.3938 51.9504 35.4617 51.9504H37.8033C37.8575 51.9504 37.8847 51.9877 37.8847 52.0624V53.0194C37.8847 53.4741 38.0374 53.8678 38.3428 54.2003C38.6482 54.5261 39.0147 54.689 39.4423 54.689C39.8767 54.689 40.2466 54.5227 40.552 54.1901C40.8574 53.8508 41.0102 53.4605 41.0102 53.0194C41.0102 52.5103 40.6776 52.0658 40.0125 51.6857C39.9039 51.6178 39.7613 51.5364 39.5849 51.4414C39.4152 51.3396 39.2116 51.2242 38.974 51.0952C38.7365 50.9663 38.5057 50.8407 38.2817 50.7185C38.0578 50.5896 37.8406 50.4674 37.6302 50.352C36.87 49.9041 36.3033 49.3442 35.93 48.6722C35.5635 47.9935 35.3803 47.2334 35.3803 46.3918C35.3803 45.618 35.5703 44.919 35.9504 44.2946C36.3305 43.6769 36.8259 43.1883 37.4367 42.8285C38.0544 42.462 38.7229 42.2788 39.4423 42.2788C40.1821 42.2788 40.8608 42.462 41.4785 42.8285C42.0961 43.2018 42.5882 43.6973 42.9547 44.3149C43.3279 44.9325 43.5146 45.6248 43.5146 46.3918V48.1021C43.5146 48.1564 43.4874 48.1836 43.4331 48.1836H41.0916C41.0373 48.1836 41.0102 48.1564 41.0102 48.1021L40.9898 46.3918C40.9898 45.9031 40.8371 45.5061 40.5317 45.2006C40.2262 44.8952 39.8631 44.7425 39.4423 44.7425C39.0147 44.7425 38.6482 44.9054 38.3428 45.2312C38.0374 45.557 37.8847 45.9438 37.8847 46.3918C37.8847 46.8465 37.9797 47.2266 38.1698 47.532C38.3666 47.8374 38.7229 48.1293 39.2387 48.4075C39.293 48.4347 39.4186 48.5026 39.6154 48.6112C39.8122 48.7197 40.0294 48.8419 40.267 48.9777C40.5113 49.1066 40.7319 49.2254 40.9287 49.334C41.1255 49.4358 41.2443 49.4969 41.285 49.5172C41.9773 49.9041 42.5237 50.3792 42.9241 50.9425C43.3313 51.5058 43.535 52.1981 43.535 53.0194C43.535 53.8135 43.3517 54.5261 42.9852 55.1573C42.6119 55.7885 42.1165 56.2874 41.4988 56.6539C40.8812 57.0204 40.1957 57.2036 39.4423 57.2036ZM47.424 57H45.0824C45.0145 57 44.9806 56.9661 44.9806 56.8982L45.0213 42.574C45.0213 42.5197 45.0485 42.4926 45.1028 42.4926H49.1139C50.3899 42.4926 51.3978 42.8828 52.1376 43.6634C52.8842 44.4371 53.2575 45.4925 53.2575 46.8295C53.2575 47.8069 53.064 48.6587 52.6772 49.3849C52.2835 50.1043 51.7745 50.6609 51.1501 51.0545C50.5257 51.4482 49.847 51.645 49.1139 51.645H47.5258V56.8982C47.5258 56.9661 47.4918 57 47.424 57ZM49.1139 44.9665L47.5258 44.9868V49.1202H49.1139C49.5551 49.1202 49.9386 48.9098 50.2644 48.489C50.5901 48.0614 50.753 47.5082 50.753 46.8295C50.753 46.2866 50.6071 45.842 50.3153 45.4959C50.0234 45.1429 49.623 44.9665 49.1139 44.9665ZM61.3307 57H54.5911C54.5368 57 54.5097 56.9661 54.5097 56.8982L54.53 42.574C54.53 42.5197 54.5572 42.4926 54.6115 42.4926H61.3104C61.3647 42.4926 61.3918 42.5265 61.3918 42.5944V44.9258C61.3918 44.9801 61.3647 45.0072 61.3104 45.0072H57.0345V48.265H61.3104C61.3647 48.265 61.3918 48.2922 61.3918 48.3465L61.4122 50.7084C61.4122 50.7627 61.385 50.7898 61.3307 50.7898H57.0345V54.4345H61.3307C61.385 54.4345 61.4122 54.4684 61.4122 54.5363V56.9186C61.4122 56.9729 61.385 57 61.3307 57ZM70.0861 57H63.3465C63.2922 57 63.265 56.9661 63.265 56.8982L63.2854 42.5944C63.2854 42.5265 63.3193 42.4926 63.3872 42.4926H65.7084C65.7763 42.4926 65.8102 42.5265 65.8102 42.5944L65.7898 54.4345H70.0861C70.1539 54.4345 70.1879 54.4684 70.1879 54.5363V56.8982C70.1879 56.9661 70.1539 57 70.0861 57ZM78.3731 57H71.6335C71.5792 57 71.5521 56.9661 71.5521 56.8982L71.5724 42.574C71.5724 42.5197 71.5996 42.4926 71.6539 42.4926H78.3528C78.407 42.4926 78.4342 42.5265 78.4342 42.5944V44.9258C78.4342 44.9801 78.407 45.0072 78.3528 45.0072H74.0769V48.265H78.3528C78.407 48.265 78.4342 48.2922 78.4342 48.3465L78.4546 50.7084C78.4546 50.7627 78.4274 50.7898 78.3731 50.7898H74.0769V54.4345H78.3731C78.4274 54.4345 78.4546 54.4684 78.4546 54.5363V56.9186C78.4546 56.9729 78.4274 57 78.3731 57ZM82.7508 57H80.3889C80.3346 57 80.3074 56.9661 80.3074 56.8982L80.3278 42.574C80.3278 42.5197 80.3617 42.4926 80.4296 42.4926H82.7508C82.8187 42.4926 82.8526 42.5197 82.8526 42.574L82.8322 48.2446H85.9577V42.574C85.9577 42.5197 85.9848 42.4926 86.0391 42.4926H88.3603C88.4282 42.4926 88.4621 42.5197 88.4621 42.574L88.5029 56.8982C88.5029 56.9661 88.4689 57 88.401 57H86.0595C85.9916 57 85.9577 56.9661 85.9577 56.8982V50.7694H82.8322V56.8982C82.8322 56.9661 82.8051 57 82.7508 57ZM97.0241 57H90.2845C90.2302 57 90.203 56.9661 90.203 56.8982L90.2234 42.574C90.2234 42.5197 90.2505 42.4926 90.3048 42.4926H97.0037C97.058 42.4926 97.0851 42.5265 97.0851 42.5944V44.9258C97.0851 44.9801 97.058 45.0072 97.0037 45.0072H92.7278V48.265H97.0037C97.058 48.265 97.0851 48.2922 97.0851 48.3465L97.1055 50.7084C97.1055 50.7627 97.0783 50.7898 97.0241 50.7898H92.7278V54.4345H97.0241C97.0783 54.4345 97.1055 54.4684 97.1055 54.5363V56.9186C97.1055 56.9729 97.0783 57 97.0241 57ZM101.422 57H99.0602C98.9923 57 98.9584 56.9661 98.9584 56.8982L98.9787 42.574C98.9787 42.5197 99.0059 42.4926 99.0602 42.4926H101.402C101.456 42.4926 101.483 42.5197 101.483 42.574L101.504 56.8982C101.504 56.9661 101.476 57 101.422 57ZM105.779 57H103.417C103.363 57 103.336 56.9661 103.336 56.8982L103.377 42.574C103.377 42.5197 103.404 42.4926 103.458 42.4926H106.003C106.058 42.4926 106.105 42.5197 106.146 42.574L108.05 45.3228L109.943 42.574C109.984 42.5197 110.035 42.4926 110.096 42.4926H112.651C112.712 42.4926 112.743 42.5197 112.743 42.574L112.784 56.8982C112.784 56.9661 112.757 57 112.702 57H110.34C110.286 57 110.259 56.9661 110.259 56.8982L110.239 46.2594L108.05 49.4358L105.881 46.2594L105.861 56.8982C105.861 56.9661 105.834 57 105.779 57Z" fill="#FAFAFA"/>
</svg>
