<svg width="115" height="111" viewBox="0 0 115 111" fill="none" xmlns="http://www.w3.org/2000/svg">
<path fill-rule="evenodd" clip-rule="evenodd" d="M48.0357 5.87229C59.867 7.10269 70.2675 11.3557 80.154 17.9513C92.2311 26.0084 106.445 33.2208 110.068 47.2564C114.196 63.247 111.126 81.802 99.732 93.7863C88.5846 105.511 70.6633 104.232 54.5299 105.672C37.7543 107.169 16.4572 115.354 6.05652 102.145C-4.49067 88.7487 13.8507 70.5732 13.4852 53.5413C13.1543 38.1232 -4.98011 22.5397 4.07974 10.0399C13.045 -2.32944 32.8188 4.28981 48.0357 5.87229Z" fill="#FF4301" stroke="#FF4301" stroke-width="2"/>
<path d="M32.6834 64H30.3215C30.2672 64 30.24 63.9661 30.24 63.8982L30.2604 49.574C30.2604 49.5197 30.2943 49.4926 30.3622 49.4926H32.6834C32.7513 49.4926 32.7852 49.5197 32.7852 49.574L32.7648 55.2446H35.8903V49.574C35.8903 49.5197 35.9174 49.4926 35.9717 49.4926H38.2929C38.3608 49.4926 38.3947 49.5197 38.3947 49.574L38.4354 63.8982C38.4354 63.9661 38.4015 64 38.3336 64H35.9921C35.9242 64 35.8903 63.9661 35.8903 63.8982V57.7694H32.7648V63.8982C32.7648 63.9661 32.7377 64 32.6834 64ZM46.9566 64H40.2171C40.1628 64 40.1356 63.9661 40.1356 63.8982L40.156 49.574C40.156 49.5197 40.1831 49.4926 40.2374 49.4926H46.9363C46.9906 49.4926 47.0177 49.5265 47.0177 49.5944V51.9258C47.0177 51.9801 46.9906 52.0072 46.9363 52.0072H42.6604V55.265H46.9363C46.9906 55.265 47.0177 55.2922 47.0177 55.3465L47.0381 57.7084C47.0381 57.7627 47.0109 57.7898 46.9566 57.7898H42.6604V61.4345H46.9566C47.0109 61.4345 47.0381 61.4684 47.0381 61.5363V63.9186C47.0381 63.9729 47.0109 64 46.9566 64ZM55.712 64H48.9724C48.9181 64 48.891 63.9661 48.891 63.8982L48.9113 49.5944C48.9113 49.5265 48.9453 49.4926 49.0131 49.4926H51.3343C51.4022 49.4926 51.4361 49.5265 51.4361 49.5944L51.4158 61.4345H55.712C55.7799 61.4345 55.8138 61.4684 55.8138 61.5363V63.8982C55.8138 63.9661 55.7799 64 55.712 64ZM59.6214 64H57.2595C57.2052 64 57.178 63.9661 57.178 63.8982L57.1984 49.574C57.1984 49.5197 57.2323 49.4926 57.3002 49.4926H59.6214C59.6892 49.4926 59.7232 49.5197 59.7232 49.574L59.7028 55.2446H62.8283V49.574C62.8283 49.5197 62.8554 49.4926 62.9097 49.4926H65.2309C65.2988 49.4926 65.3327 49.5197 65.3327 49.574L65.3734 63.8982C65.3734 63.9661 65.3395 64 65.2716 64H62.9301C62.8622 64 62.8283 63.9661 62.8283 63.8982V57.7694H59.7028V63.8982C59.7028 63.9661 59.6757 64 59.6214 64ZM73.8946 64H67.155C67.1007 64 67.0736 63.9661 67.0736 63.8982L67.094 49.574C67.094 49.5197 67.1211 49.4926 67.1754 49.4926H73.8743C73.9286 49.4926 73.9557 49.5265 73.9557 49.5944V51.9258C73.9557 51.9801 73.9286 52.0072 73.8743 52.0072H69.5984V55.265H73.8743C73.9286 55.265 73.9557 55.2922 73.9557 55.3465L73.9761 57.7084C73.9761 57.7627 73.9489 57.7898 73.8946 57.7898H69.5984V61.4345H73.8946C73.9489 61.4345 73.9761 61.4684 73.9761 61.5363V63.9186C73.9761 63.9729 73.9489 64 73.8946 64ZM78.2927 64H75.9308C75.8629 64 75.829 63.9661 75.829 63.8982L75.8493 49.574C75.8493 49.5197 75.8765 49.4926 75.9308 49.4926H78.2723C78.3266 49.4926 78.3537 49.5197 78.3537 49.574L78.3741 63.8982C78.3741 63.9661 78.347 64 78.2927 64ZM82.65 64H80.2881C80.2338 64 80.2066 63.9661 80.2066 63.8982L80.2473 49.574C80.2473 49.5197 80.2745 49.4926 80.3288 49.4926H82.8739C82.9282 49.4926 82.9758 49.5197 83.0165 49.574L84.9203 52.3228L86.8139 49.574C86.8546 49.5197 86.9055 49.4926 86.9666 49.4926H89.5219C89.583 49.4926 89.6135 49.5197 89.6135 49.574L89.6543 63.8982C89.6543 63.9661 89.6271 64 89.5728 64H87.2109C87.1566 64 87.1295 63.9661 87.1295 63.8982L87.1091 53.2594L84.9203 56.4358L82.7518 53.2594L82.7314 63.8982C82.7314 63.9661 82.7043 64 82.65 64Z" fill="#FAFAFA"/>
</svg>
