<svg width="154" height="154" viewBox="0 0 154 154" fill="none" xmlns="http://www.w3.org/2000/svg">
<path fill-rule="evenodd" clip-rule="evenodd" d="M109.712 34.7049C121.197 42.516 125.307 57.0743 127.014 70.6915C128.835 85.218 131.267 103.694 119.386 111.885C107.597 120.012 93.0032 122.586 78.5 123C64.4846 123.4 51.0151 121.553 38.8791 114.182C26.8033 106.848 37.3042 89.9746 36.9534 76.0518C36.6258 63.0449 27.6136 47.234 36.9707 38.4345C45.9954 29.9476 60.3095 34.4998 72.8554 33.8565C85.5868 33.2038 99.025 27.4364 109.712 34.7049Z" fill="#FF4301" stroke="#FF4301" stroke-width="2"/>
<path d="M52.5282 83.8982L55.1141 69.574C55.1276 69.5197 55.1616 69.4926 55.2159 69.4926H58.2395C58.2938 69.4926 58.3278 69.5197 58.3413 69.574L60.8254 83.8982C60.8322 83.9661 60.805 84 60.744 84H58.433C58.3651 84 58.3278 83.9661 58.321 83.8982L58.097 82.3711H55.2566L55.0326 83.8982C55.0258 83.9661 54.9919 84 54.9308 84H52.6096C52.5553 84 52.5282 83.9661 52.5282 83.8982ZM56.6106 74.2877L55.674 80.1415H57.6796L56.8244 74.2877L56.7023 73.5139L56.6106 74.2877ZM68.9496 84H62.21C62.1557 84 62.1285 83.9661 62.1285 83.8982L62.1489 69.5944C62.1489 69.5265 62.1828 69.4926 62.2507 69.4926H64.5719C64.6398 69.4926 64.6737 69.5265 64.6737 69.5944L64.6533 81.4345H68.9496C69.0174 81.4345 69.0514 81.4684 69.0514 81.5363V83.8982C69.0514 83.9661 69.0174 84 68.9496 84ZM72.8589 84H70.5174C70.4495 84 70.4156 83.9661 70.4156 83.8982L70.4563 69.574C70.4563 69.5197 70.4834 69.4926 70.5377 69.4926H77.2162C77.2841 69.4926 77.3181 69.5197 77.3181 69.574V71.9258C77.3181 71.9801 77.2909 72.0072 77.2366 72.0072H72.9607V75.2446H77.2366C77.2909 75.2446 77.3181 75.2786 77.3181 75.3465L77.3384 77.7084C77.3384 77.7627 77.3045 77.7898 77.2366 77.7898H72.9607V83.8982C72.9607 83.9661 72.9268 84 72.8589 84ZM81.6346 84H79.2727C79.2184 84 79.1913 83.9661 79.1913 83.8982L79.2117 69.574C79.2117 69.5197 79.2456 69.4926 79.3135 69.4926H81.6346C81.7025 69.4926 81.7365 69.5197 81.7365 69.574L81.7161 75.2446H84.8415V69.574C84.8415 69.5197 84.8687 69.4926 84.923 69.4926H87.2442C87.3121 69.4926 87.346 69.5197 87.346 69.574L87.3867 83.8982C87.3867 83.9661 87.3528 84 87.2849 84H84.9434C84.8755 84 84.8415 83.9661 84.8415 83.8982V77.7694H81.7161V83.8982C81.7161 83.9661 81.6889 84 81.6346 84ZM95.9079 84H89.1683C89.114 84 89.0869 83.9661 89.0869 83.8982L89.1072 69.574C89.1072 69.5197 89.1344 69.4926 89.1887 69.4926H95.8875C95.9418 69.4926 95.969 69.5265 95.969 69.5944V71.9258C95.969 71.9801 95.9418 72.0072 95.8875 72.0072H91.6117V75.265H95.8875C95.9418 75.265 95.969 75.2922 95.969 75.3465L95.9894 77.7084C95.9894 77.7627 95.9622 77.7898 95.9079 77.7898H91.6117V81.4345H95.9079C95.9622 81.4345 95.9894 81.4684 95.9894 81.5363V83.9186C95.9894 83.9729 95.9622 84 95.9079 84ZM100.306 84H97.944C97.8762 84 97.8422 83.9661 97.8422 83.8982L97.8626 69.574C97.8626 69.5197 97.8897 69.4926 97.944 69.4926H100.286C100.34 69.4926 100.367 69.5197 100.367 69.574L100.387 83.8982C100.387 83.9661 100.36 84 100.306 84ZM104.663 84H102.301C102.247 84 102.22 83.9661 102.22 83.8982L102.261 69.574C102.261 69.5197 102.288 69.4926 102.342 69.4926H104.887C104.942 69.4926 104.989 69.5197 105.03 69.574L106.934 72.3228L108.827 69.574C108.868 69.5197 108.919 69.4926 108.98 69.4926H111.535C111.596 69.4926 111.627 69.5197 111.627 69.574L111.668 83.8982C111.668 83.9661 111.64 84 111.586 84H109.224C109.17 84 109.143 83.9661 109.143 83.8982L109.122 73.2594L106.934 76.4358L104.765 73.2594L104.745 83.8982C104.745 83.9661 104.718 84 104.663 84Z" fill="white"/>
</svg>
