<svg width="117" height="113" viewBox="0 0 117 113" fill="none" xmlns="http://www.w3.org/2000/svg">
<path fill-rule="evenodd" clip-rule="evenodd" d="M79.9981 111C65.8506 112.252 35.5641 112.308 23.8625 104.203C10.6687 95.0637 2.45821 79.6764 1.29953 63.5978C0.084844 46.7422 5.64267 29.5166 17.6278 17.6864C29.3228 6.14258 46.591 -0.358633 62.6138 3.07593C76.7406 6.10406 81.9756 22.4128 91.3375 33.4864C99.0852 42.6508 113.641 56.2004 115.278 68.1201C117.068 81.1588 112.876 95.0315 103.5 104.203C94.357 113.146 92.6987 109.876 79.9981 111Z" fill="#FF4301" stroke="#FF4301" stroke-width="2"/>
<path d="M20.8114 70.2036C20.0717 70.2036 19.3895 70.0136 18.7651 69.6335C18.1475 69.2534 17.6521 68.7478 17.2788 68.1166C16.9123 67.4786 16.729 66.7795 16.729 66.0194V65.0624C16.729 64.9877 16.7629 64.9504 16.8308 64.9504H19.1724C19.2267 64.9504 19.2538 64.9877 19.2538 65.0624V66.0194C19.2538 66.4741 19.4065 66.8678 19.7119 67.2003C20.0174 67.5261 20.3839 67.689 20.8114 67.689C21.2458 67.689 21.6157 67.5227 21.9211 67.1901C22.2266 66.8508 22.3793 66.4605 22.3793 66.0194C22.3793 65.5103 22.0467 65.0658 21.3816 64.6857C21.273 64.6178 21.1304 64.5364 20.954 64.4414C20.7843 64.3396 20.5807 64.2242 20.3431 64.0952C20.1056 63.9663 19.8748 63.8407 19.6509 63.7185C19.4269 63.5896 19.2097 63.4674 18.9993 63.352C18.2391 62.9041 17.6724 62.3442 17.2991 61.6722C16.9326 60.9935 16.7494 60.2334 16.7494 59.3918C16.7494 58.618 16.9394 57.919 17.3195 57.2946C17.6996 56.6769 18.195 56.1883 18.8059 55.8285C19.4235 55.462 20.092 55.2788 20.8114 55.2788C21.5512 55.2788 22.2299 55.462 22.8476 55.8285C23.4652 56.2018 23.9573 56.6973 24.3238 57.3149C24.6971 57.9325 24.8837 58.6248 24.8837 59.3918V61.1021C24.8837 61.1564 24.8566 61.1836 24.8023 61.1836H22.4607C22.4064 61.1836 22.3793 61.1564 22.3793 61.1021L22.3589 59.3918C22.3589 58.9031 22.2062 58.5061 21.9008 58.2006C21.5954 57.8952 21.2322 57.7425 20.8114 57.7425C20.3839 57.7425 20.0174 57.9054 19.7119 58.2312C19.4065 58.557 19.2538 58.9438 19.2538 59.3918C19.2538 59.8465 19.3488 60.2266 19.5389 60.532C19.7357 60.8374 20.092 61.1293 20.6078 61.4075C20.6621 61.4347 20.7877 61.5026 20.9845 61.6112C21.1813 61.7197 21.3985 61.8419 21.6361 61.9777C21.8804 62.1066 22.101 62.2254 22.2978 62.334C22.4946 62.4358 22.6134 62.4969 22.6541 62.5172C23.3464 62.9041 23.8928 63.3792 24.2932 63.9425C24.7005 64.5058 24.9041 65.1981 24.9041 66.0194C24.9041 66.8135 24.7208 67.5261 24.3543 68.1573C23.981 68.7885 23.4856 69.2874 22.8679 69.6539C22.2503 70.0204 21.5648 70.2036 20.8114 70.2036ZM30.7885 70H28.2637C28.2026 70 28.1687 69.9661 28.1619 69.8982L25.2807 55.574C25.2672 55.5197 25.2943 55.4926 25.3622 55.4926H27.7241C27.7784 55.4926 27.8123 55.5197 27.8259 55.574L29.5363 65.1235L31.2059 55.574C31.2195 55.5197 31.2534 55.4926 31.3077 55.4926H33.6391C33.7137 55.4926 33.7409 55.5197 33.7205 55.574L30.8903 69.8982C30.8835 69.9661 30.8496 70 30.7885 70ZM32.5701 69.8982L35.156 55.574C35.1695 55.5197 35.2035 55.4926 35.2578 55.4926H38.2814C38.3357 55.4926 38.3697 55.5197 38.3832 55.574L40.8673 69.8982C40.8741 69.9661 40.847 70 40.7859 70H38.4749C38.407 70 38.3697 69.9661 38.3629 69.8982L38.1389 68.3711H35.2985L35.0745 69.8982C35.0677 69.9661 35.0338 70 34.9727 70H32.6515C32.5972 70 32.5701 69.9661 32.5701 69.8982ZM36.6525 60.2877L35.7159 66.1415H37.7215L36.8663 60.2877L36.7442 59.5139L36.6525 60.2877ZM44.6138 70H42.2519C42.1976 70 42.1704 69.9661 42.1704 69.8982L42.2112 55.574C42.2112 55.5197 42.2383 55.4926 42.2926 55.4926H46.5074C47.2608 55.4926 47.953 55.6758 48.5842 56.0423C49.2154 56.4088 49.7177 56.9009 50.091 57.5185C50.4711 58.1362 50.6611 58.8352 50.6611 59.6157C50.6611 60.1248 50.583 60.5863 50.4269 61.0003C50.2708 61.4143 50.0876 61.7639 49.8772 62.0489C49.6736 62.334 49.4869 62.5444 49.3172 62.6801C50.0706 63.5149 50.4473 64.4957 50.4473 65.6223L50.4677 69.8982C50.4677 69.9661 50.4337 70 50.3659 70H48.0039C47.9496 70 47.9225 69.9796 47.9225 69.9389V65.6223C47.9225 65.1201 47.746 64.6857 47.3931 64.3192C47.0402 63.9527 46.6058 63.7694 46.09 63.7694H44.7156L44.6952 69.8982C44.6952 69.9661 44.6681 70 44.6138 70ZM46.5074 57.9868H44.7156V61.265H46.5074C46.935 61.265 47.3151 61.1055 47.6476 60.7865C47.987 60.4675 48.1567 60.0773 48.1567 59.6157C48.1567 59.1746 47.9938 58.7945 47.668 58.4755C47.3422 58.1497 46.9553 57.9868 46.5074 57.9868ZM56.2503 70H53.8985C53.8375 70 53.8069 69.9661 53.8069 69.8982V58.0072H51.0989C51.031 58.0072 50.9971 57.9733 50.9971 57.9054L51.0174 55.574C51.0174 55.5197 51.0446 55.4926 51.0989 55.4926H59.0194C59.0941 55.4926 59.1314 55.5197 59.1314 55.574V57.9054C59.1314 57.9733 59.1042 58.0072 59.0499 58.0072H56.3113L56.3317 69.8982C56.3317 69.9661 56.3046 70 56.2503 70ZM62.5928 70H60.2309C60.1766 70 60.1494 69.9661 60.1494 69.8982L60.1698 55.574C60.1698 55.5197 60.2037 55.4926 60.2716 55.4926H62.5928C62.6607 55.4926 62.6946 55.5197 62.6946 55.574L62.6742 61.2446H65.7997V55.574C65.7997 55.5197 65.8269 55.4926 65.8812 55.4926H68.2023C68.2702 55.4926 68.3041 55.5197 68.3041 55.574L68.3449 69.8982C68.3449 69.9661 68.3109 70 68.2431 70H65.9015C65.8336 70 65.7997 69.9661 65.7997 69.8982V63.7694H62.6742V69.8982C62.6742 69.9661 62.6471 70 62.5928 70ZM76.8661 70H70.1265C70.0722 70 70.045 69.9661 70.045 69.8982L70.0654 55.574C70.0654 55.5197 70.0925 55.4926 70.1468 55.4926H76.8457C76.9 55.4926 76.9271 55.5265 76.9271 55.5944V57.9258C76.9271 57.9801 76.9 58.0072 76.8457 58.0072H72.5698V61.265H76.8457C76.9 61.265 76.9271 61.2922 76.9271 61.3465L76.9475 63.7084C76.9475 63.7627 76.9204 63.7898 76.8661 63.7898H72.5698V67.4345H76.8661C76.9204 67.4345 76.9475 67.4684 76.9475 67.5363V69.9186C76.9475 69.9729 76.9204 70 76.8661 70ZM81.2641 70H78.9022C78.8343 70 78.8004 69.9661 78.8004 69.8982L78.8208 55.574C78.8208 55.5197 78.8479 55.4926 78.9022 55.4926H81.2437C81.298 55.4926 81.3252 55.5197 81.3252 55.574L81.3456 69.8982C81.3456 69.9661 81.3184 70 81.2641 70ZM85.6214 70H83.2595C83.2052 70 83.1781 69.9661 83.1781 69.8982L83.2188 55.574C83.2188 55.5197 83.2459 55.4926 83.3002 55.4926H85.8454C85.8997 55.4926 85.9472 55.5197 85.9879 55.574L87.8917 58.3228L89.7853 55.574C89.826 55.5197 89.8769 55.4926 89.938 55.4926H92.4934C92.5544 55.4926 92.585 55.5197 92.585 55.574L92.6257 69.8982C92.6257 69.9661 92.5986 70 92.5443 70H90.1824C90.1281 70 90.1009 69.9661 90.1009 69.8982L90.0805 59.2594L87.8917 62.4358L85.7232 59.2594L85.7029 69.8982C85.7029 69.9661 85.6757 70 85.6214 70Z" fill="#FAFAFA"/>
</svg>
