<svg width="125" height="121" viewBox="0 0 125 121" fill="none" xmlns="http://www.w3.org/2000/svg">
<path fill-rule="evenodd" clip-rule="evenodd" d="M61.8356 7.76727C76.0097 8.66878 91.3753 7.4468 101.717 17.2283C113.377 28.2573 119.167 44.709 117.881 60.7779C116.534 77.6235 108.435 93.8107 94.7994 103.693C81.4935 113.336 63.4408 117.151 48.1214 111.334C34.6149 106.205 31.9058 89.292 24.3258 76.9302C18.0527 66.6997 8.03288 58.2864 8.2172 46.2563C8.41882 33.0968 14.6603 20.0173 25.315 12.369C35.7048 4.91084 49.1111 6.95797 61.8356 7.76727Z" fill="#FF4301" stroke="#FF4301" stroke-width="2"/>
<path d="M35.4252 64H33.3382C33.2296 64 33.1753 63.9525 33.1753 63.8575L33.1549 49.6555C33.1549 49.5469 33.2092 49.4926 33.3178 49.4926H35.2013L38.7238 57.7084L38.622 49.6555C38.622 49.5469 38.683 49.4926 38.8052 49.4926H40.8719C40.9533 49.4926 40.994 49.5469 40.994 49.6555L41.0144 63.8778C41.0144 63.9593 40.9805 64 40.9126 64H39.0801L35.466 56.3238L35.6187 63.8371C35.6187 63.9457 35.5542 64 35.4252 64ZM45.2903 64H42.9284C42.8605 64 42.8266 63.9661 42.8266 63.8982L42.8469 49.574C42.8469 49.5197 42.8741 49.4926 42.9284 49.4926H45.2699C45.3242 49.4926 45.3514 49.5197 45.3514 49.574L45.3717 63.8982C45.3717 63.9661 45.3446 64 45.2903 64ZM54.0253 64H47.2857C47.2314 64 47.2042 63.9661 47.2042 63.8982L47.2246 49.5944C47.2246 49.5265 47.2585 49.4926 47.3264 49.4926H49.6476C49.7155 49.4926 49.7494 49.5265 49.7494 49.5944L49.729 61.4345H54.0253C54.0931 61.4345 54.1271 61.4684 54.1271 61.5363V63.8982C54.1271 63.9661 54.0931 64 54.0253 64ZM57.9346 64H55.5931C55.5252 64 55.4913 63.9661 55.4913 63.8982L55.532 49.574C55.532 49.5197 55.5591 49.4926 55.6134 49.4926H62.2919C62.3598 49.4926 62.3938 49.5197 62.3938 49.574V51.9258C62.3938 51.9801 62.3666 52.0072 62.3123 52.0072H58.0364V55.2446H62.3123C62.3666 55.2446 62.3938 55.2786 62.3938 55.3465L62.4141 57.7084C62.4141 57.7627 62.3802 57.7898 62.3123 57.7898H58.0364V63.8982C58.0364 63.9661 58.0025 64 57.9346 64ZM66.7103 64H64.3484C64.2941 64 64.267 63.9661 64.267 63.8982L64.2874 49.574C64.2874 49.5197 64.3213 49.4926 64.3892 49.4926H66.7103C66.7782 49.4926 66.8122 49.5197 66.8122 49.574L66.7918 55.2446H69.9172V49.574C69.9172 49.5197 69.9444 49.4926 69.9987 49.4926H72.3199C72.3878 49.4926 72.4217 49.5197 72.4217 49.574L72.4624 63.8982C72.4624 63.9661 72.4285 64 72.3606 64H70.0191C69.9512 64 69.9172 63.9661 69.9172 63.8982V57.7694H66.7918V63.8982C66.7918 63.9661 66.7646 64 66.7103 64ZM80.9836 64H74.244C74.1897 64 74.1626 63.9661 74.1626 63.8982L74.1829 49.574C74.1829 49.5197 74.2101 49.4926 74.2644 49.4926H80.9632C81.0175 49.4926 81.0447 49.5265 81.0447 49.5944V51.9258C81.0447 51.9801 81.0175 52.0072 80.9632 52.0072H76.6874V55.265H80.9632C81.0175 55.265 81.0447 55.2922 81.0447 55.3465L81.0651 57.7084C81.0651 57.7627 81.0379 57.7898 80.9836 57.7898H76.6874V61.4345H80.9836C81.0379 61.4345 81.0651 61.4684 81.0651 61.5363V63.9186C81.0651 63.9729 81.0379 64 80.9836 64ZM85.3816 64H83.0197C82.9519 64 82.9179 63.9661 82.9179 63.8982L82.9383 49.574C82.9383 49.5197 82.9654 49.4926 83.0197 49.4926H85.3613C85.4156 49.4926 85.4427 49.5197 85.4427 49.574L85.4631 63.8982C85.4631 63.9661 85.4359 64 85.3816 64ZM89.739 64H87.3771C87.3228 64 87.2956 63.9661 87.2956 63.8982L87.3363 49.574C87.3363 49.5197 87.3635 49.4926 87.4178 49.4926H89.9629C90.0172 49.4926 90.0647 49.5197 90.1055 49.574L92.0092 52.3228L93.9028 49.574C93.9436 49.5197 93.9945 49.4926 94.0556 49.4926H96.6109C96.672 49.4926 96.7025 49.5197 96.7025 49.574L96.7432 63.8982C96.7432 63.9661 96.7161 64 96.6618 64H94.2999C94.2456 64 94.2184 63.9661 94.2184 63.8982L94.1981 53.2594L92.0092 56.4358L89.8408 53.2594L89.8204 63.8982C89.8204 63.9661 89.7933 64 89.739 64Z" fill="white"/>
</svg>
