<svg width="116" height="114" viewBox="0 0 116 114" fill="none" xmlns="http://www.w3.org/2000/svg">
<path fill-rule="evenodd" clip-rule="evenodd" d="M56.8337 4.76727C71.0078 5.66878 86.3733 4.4468 96.7149 14.2283C108.375 25.2573 114.165 41.709 112.879 57.7779C111.532 74.6235 103.433 90.8107 89.7974 100.693C76.4915 110.336 58.4388 114.151 43.1195 108.334C29.6129 103.205 26.9038 86.292 19.3239 73.9302C13.0507 63.6997 3.03093 55.2864 3.21525 43.2563C3.41687 30.0968 9.6583 17.0173 20.313 9.36901C30.7029 1.91084 44.1092 3.95797 56.8337 4.76727Z" fill="#FF4301" stroke="#FF4301" stroke-width="2"/>
<path d="M30.4233 61H28.3362C28.2277 61 28.1734 60.9525 28.1734 60.8575L28.153 46.6555C28.153 46.5469 28.2073 46.4926 28.3159 46.4926H30.1993L33.7218 54.7084L33.62 46.6555C33.62 46.5469 33.6811 46.4926 33.8033 46.4926H35.8699C35.9514 46.4926 35.9921 46.5469 35.9921 46.6555L36.0124 60.8778C36.0124 60.9593 35.9785 61 35.9106 61H34.0781L30.464 53.3238L30.6167 60.8371C30.6167 60.9457 30.5522 61 30.4233 61ZM40.2883 61H37.9264C37.8585 61 37.8246 60.9661 37.8246 60.8982L37.845 46.574C37.845 46.5197 37.8721 46.4926 37.9264 46.4926H40.268C40.3223 46.4926 40.3494 46.5197 40.3494 46.574L40.3698 60.8982C40.3698 60.9661 40.3426 61 40.2883 61ZM49.0233 61H42.2837C42.2294 61 42.2023 60.9661 42.2023 60.8982L42.2226 46.5944C42.2226 46.5265 42.2566 46.4926 42.3244 46.4926H44.6456C44.7135 46.4926 44.7474 46.5265 44.7474 46.5944L44.7271 58.4345H49.0233C49.0912 58.4345 49.1251 58.4684 49.1251 58.5363V60.8982C49.1251 60.9661 49.0912 61 49.0233 61ZM52.9327 61H50.5911C50.5233 61 50.4893 60.9661 50.4893 60.8982L50.53 46.574C50.53 46.5197 50.5572 46.4926 50.6115 46.4926H57.29C57.3579 46.4926 57.3918 46.5197 57.3918 46.574V48.9258C57.3918 48.9801 57.3647 49.0072 57.3104 49.0072H53.0345V52.2446H57.3104C57.3647 52.2446 57.3918 52.2786 57.3918 52.3465L57.4122 54.7084C57.4122 54.7627 57.3782 54.7898 57.3104 54.7898H53.0345V60.8982C53.0345 60.9661 53.0005 61 52.9327 61ZM61.7084 61H59.3465C59.2922 61 59.265 60.9661 59.265 60.8982L59.2854 46.574C59.2854 46.5197 59.3193 46.4926 59.3872 46.4926H61.7084C61.7763 46.4926 61.8102 46.5197 61.8102 46.574L61.7898 52.2446H64.9153V46.574C64.9153 46.5197 64.9424 46.4926 64.9967 46.4926H67.3179C67.3858 46.4926 67.4197 46.5197 67.4197 46.574L67.4605 60.8982C67.4605 60.9661 67.4265 61 67.3586 61H65.0171C64.9492 61 64.9153 60.9661 64.9153 60.8982V54.7694H61.7898V60.8982C61.7898 60.9661 61.7627 61 61.7084 61ZM75.9817 61H69.2421C69.1878 61 69.1606 60.9661 69.1606 60.8982L69.181 46.574C69.181 46.5197 69.2081 46.4926 69.2624 46.4926H75.9613C76.0156 46.4926 76.0427 46.5265 76.0427 46.5944V48.9258C76.0427 48.9801 76.0156 49.0072 75.9613 49.0072H71.6854V52.265H75.9613C76.0156 52.265 76.0427 52.2922 76.0427 52.3465L76.0631 54.7084C76.0631 54.7627 76.036 54.7898 75.9817 54.7898H71.6854V58.4345H75.9817C76.036 58.4345 76.0631 58.4684 76.0631 58.5363V60.9186C76.0631 60.9729 76.036 61 75.9817 61ZM80.3797 61H78.0178C77.9499 61 77.916 60.9661 77.916 60.8982L77.9363 46.574C77.9363 46.5197 77.9635 46.4926 78.0178 46.4926H80.3593C80.4136 46.4926 80.4408 46.5197 80.4408 46.574L80.4611 60.8982C80.4611 60.9661 80.434 61 80.3797 61ZM84.737 61H82.3751C82.3208 61 82.2937 60.9661 82.2937 60.8982L82.3344 46.574C82.3344 46.5197 82.3615 46.4926 82.4158 46.4926H84.961C85.0153 46.4926 85.0628 46.5197 85.1035 46.574L87.0073 49.3228L88.9009 46.574C88.9416 46.5197 88.9925 46.4926 89.0536 46.4926H91.6089C91.67 46.4926 91.7006 46.5197 91.7006 46.574L91.7413 60.8982C91.7413 60.9661 91.7141 61 91.6598 61H89.2979C89.2436 61 89.2165 60.9661 89.2165 60.8982L89.1961 50.2594L87.0073 53.4358L84.8388 50.2594L84.8185 60.8982C84.8185 60.9661 84.7913 61 84.737 61Z" fill="#FAFAFA"/>
</svg>
