<svg width="118" height="114" viewBox="0 0 118 114" fill="none" xmlns="http://www.w3.org/2000/svg">
<path fill-rule="evenodd" clip-rule="evenodd" d="M51.0376 8.87217C62.8689 10.1026 73.2695 14.3555 83.1559 20.9512C95.2331 29.0083 109.447 36.2206 113.07 50.2563C117.198 66.2468 114.128 84.8019 102.734 96.7862C91.5866 108.511 73.6652 107.232 57.5319 108.672C40.7562 110.168 19.4592 118.354 9.05847 105.144C-1.48872 91.7486 16.8527 73.573 16.4872 56.5412C16.1562 41.123 -1.97816 25.5396 7.08169 13.0398C16.047 0.67044 35.8208 7.28969 51.0376 8.87217Z" fill="#FF4301" stroke="#FF4301" stroke-width="2"/>
<path d="M35.6853 67H33.3234C33.2691 67 33.242 66.9661 33.242 66.8982L33.2623 52.574C33.2623 52.5197 33.2963 52.4926 33.3641 52.4926H35.6853C35.7532 52.4926 35.7871 52.5197 35.7871 52.574L35.7668 58.2446H38.8922V52.574C38.8922 52.5197 38.9194 52.4926 38.9737 52.4926H41.2949C41.3627 52.4926 41.3967 52.5197 41.3967 52.574L41.4374 66.8982C41.4374 66.9661 41.4035 67 41.3356 67H38.994C38.9262 67 38.8922 66.9661 38.8922 66.8982V60.7694H35.7668V66.8982C35.7668 66.9661 35.7396 67 35.6853 67ZM49.9586 67H43.219C43.1647 67 43.1376 66.9661 43.1376 66.8982L43.1579 52.574C43.1579 52.5197 43.1851 52.4926 43.2394 52.4926H49.9382C49.9925 52.4926 50.0197 52.5265 50.0197 52.5944V54.9258C50.0197 54.9801 49.9925 55.0072 49.9382 55.0072H45.6624V58.265H49.9382C49.9925 58.265 50.0197 58.2922 50.0197 58.3465L50.04 60.7084C50.04 60.7627 50.0129 60.7898 49.9586 60.7898H45.6624V64.4345H49.9586C50.0129 64.4345 50.04 64.4684 50.04 64.5363V66.9186C50.04 66.9729 50.0129 67 49.9586 67ZM58.7139 67H51.9744C51.9201 67 51.8929 66.9661 51.8929 66.8982L51.9133 52.5944C51.9133 52.5265 51.9472 52.4926 52.0151 52.4926H54.3363C54.4041 52.4926 54.4381 52.5265 54.4381 52.5944L54.4177 64.4345H58.7139C58.7818 64.4345 58.8158 64.4684 58.8158 64.5363V66.8982C58.8158 66.9661 58.7818 67 58.7139 67ZM62.6233 67H60.2614C60.2071 67 60.18 66.9661 60.18 66.8982L60.2003 52.574C60.2003 52.5197 60.2343 52.4926 60.3021 52.4926H62.6233C62.6912 52.4926 62.7251 52.5197 62.7251 52.574L62.7048 58.2446H65.8302V52.574C65.8302 52.5197 65.8574 52.4926 65.9117 52.4926H68.2329C68.3007 52.4926 68.3347 52.5197 68.3347 52.574L68.3754 66.8982C68.3754 66.9661 68.3414 67 68.2736 67H65.932C65.8642 67 65.8302 66.9661 65.8302 66.8982V60.7694H62.7048V66.8982C62.7048 66.9661 62.6776 67 62.6233 67ZM76.8966 67H70.157C70.1027 67 70.0755 66.9661 70.0755 66.8982L70.0959 52.574C70.0959 52.5197 70.1231 52.4926 70.1774 52.4926H76.8762C76.9305 52.4926 76.9577 52.5265 76.9577 52.5944V54.9258C76.9577 54.9801 76.9305 55.0072 76.8762 55.0072H72.6003V58.265H76.8762C76.9305 58.265 76.9577 58.2922 76.9577 58.3465L76.978 60.7084C76.978 60.7627 76.9509 60.7898 76.8966 60.7898H72.6003V64.4345H76.8966C76.9509 64.4345 76.978 64.4684 76.978 64.5363V66.9186C76.978 66.9729 76.9509 67 76.8966 67ZM81.2946 67H78.9327C78.8648 67 78.8309 66.9661 78.8309 66.8982L78.8513 52.574C78.8513 52.5197 78.8784 52.4926 78.9327 52.4926H81.2743C81.3286 52.4926 81.3557 52.5197 81.3557 52.574L81.3761 66.8982C81.3761 66.9661 81.3489 67 81.2946 67ZM85.6519 67H83.29C83.2357 67 83.2086 66.9661 83.2086 66.8982L83.2493 52.574C83.2493 52.5197 83.2764 52.4926 83.3307 52.4926H85.8759C85.9302 52.4926 85.9777 52.5197 86.0184 52.574L87.9222 55.3228L89.8158 52.574C89.8565 52.5197 89.9074 52.4926 89.9685 52.4926H92.5239C92.5849 52.4926 92.6155 52.5197 92.6155 52.574L92.6562 66.8982C92.6562 66.9661 92.6291 67 92.5748 67H90.2129C90.1586 67 90.1314 66.9661 90.1314 66.8982L90.111 56.2594L87.9222 59.4358L85.7537 56.2594L85.7334 66.8982C85.7334 66.9661 85.7062 67 85.6519 67Z" fill="white"/>
</svg>
