<svg width="325" height="56" viewBox="0 0 325 56" fill="none" xmlns="http://www.w3.org/2000/svg">
<circle cx="14.5" cy="14.5" r="14" fill="#61F180" stroke="#61F180"/>
<circle cx="108.5" cy="14.5" r="14" fill="#61F180" stroke="#61F180"/>
<circle cx="203.5" cy="14.5" r="14" fill="#FF4301" stroke="#FF4301"/>
<circle cx="298.5" cy="14.5" r="14" stroke="#FAFAFA"/>
<path d="M18.736 10.9699C18.8042 10.9003 18.8857 10.845 18.9756 10.8072C19.0655 10.7695 19.162 10.75 19.2595 10.75C19.357 10.75 19.4535 10.7695 19.5434 10.8072C19.6333 10.845 19.7147 10.9003 19.783 10.9699C20.069 11.2589 20.073 11.7259 19.793 12.0199L13.88 19.0099C13.8128 19.0837 13.7314 19.1429 13.6406 19.1841C13.5497 19.2252 13.4515 19.2474 13.3518 19.2493C13.2521 19.2511 13.1531 19.2327 13.0608 19.1949C12.9685 19.1572 12.8848 19.1011 12.815 19.0299L9.21698 15.3839C9.07822 15.2424 9.00049 15.0521 9.00049 14.8539C9.00049 14.6557 9.07822 14.4654 9.21698 14.3239C9.28523 14.2543 9.36668 14.199 9.45657 14.1612C9.54646 14.1235 9.64298 14.104 9.74048 14.104C9.83798 14.104 9.9345 14.1235 10.0244 14.1612C10.1143 14.199 10.1957 14.2543 10.264 14.3239L13.316 17.4169L18.716 10.9919C18.7222 10.9842 18.7289 10.9769 18.736 10.9699Z" fill="#FAFAFA"/>
<path d="M112.736 10.9699C112.804 10.9003 112.886 10.845 112.976 10.8072C113.065 10.7695 113.162 10.75 113.259 10.75C113.357 10.75 113.454 10.7695 113.543 10.8072C113.633 10.845 113.715 10.9003 113.783 10.9699C114.069 11.2589 114.073 11.7259 113.793 12.0199L107.88 19.0099C107.813 19.0837 107.731 19.1429 107.641 19.1841C107.55 19.2252 107.451 19.2474 107.352 19.2493C107.252 19.2511 107.153 19.2327 107.061 19.1949C106.968 19.1572 106.885 19.1011 106.815 19.0299L103.217 15.3839C103.078 15.2424 103 15.0521 103 14.8539C103 14.6557 103.078 14.4654 103.217 14.3239C103.285 14.2543 103.367 14.199 103.457 14.1612C103.546 14.1235 103.643 14.104 103.74 14.104C103.838 14.104 103.935 14.1235 104.024 14.1612C104.114 14.199 104.196 14.2543 104.264 14.3239L107.316 17.4169L112.716 10.9919C112.722 10.9842 112.729 10.9769 112.736 10.9699Z" fill="#FAFAFA"/>
<path d="M5.14702 36.5455C5.1044 36.1856 4.93158 35.9062 4.62855 35.7074C4.32552 35.5085 3.95384 35.4091 3.51349 35.4091C3.19152 35.4091 2.9098 35.4612 2.66832 35.5653C2.42921 35.6695 2.24219 35.8127 2.10724 35.995C1.97467 36.1773 1.90838 36.3845 1.90838 36.6165C1.90838 36.8106 1.95455 36.9775 2.04688 37.1172C2.14157 37.2545 2.26231 37.3693 2.40909 37.4616C2.55587 37.5516 2.70975 37.6262 2.87074 37.6854C3.03172 37.7422 3.17969 37.7884 3.31463 37.8239L4.05327 38.0227C4.24266 38.0724 4.45336 38.1411 4.68537 38.2287C4.91974 38.3163 5.14347 38.4358 5.35653 38.5874C5.57197 38.7365 5.74953 38.9283 5.8892 39.1626C6.02888 39.397 6.09872 39.6847 6.09872 40.0256C6.09872 40.4186 5.99574 40.7737 5.78977 41.0909C5.58617 41.4081 5.28788 41.6603 4.89489 41.8473C4.50426 42.0343 4.02959 42.1278 3.47088 42.1278C2.95005 42.1278 2.49905 42.0438 2.1179 41.8757C1.73911 41.7076 1.44081 41.4732 1.22301 41.1726C1.00758 40.8719 0.885653 40.5227 0.857244 40.125H1.76634C1.79001 40.3996 1.88234 40.6269 2.04332 40.8068C2.20668 40.9844 2.41264 41.117 2.66122 41.2045C2.91217 41.2898 3.18205 41.3324 3.47088 41.3324C3.80705 41.3324 4.1089 41.2779 4.37642 41.169C4.64394 41.0578 4.85582 40.9039 5.01207 40.7074C5.16832 40.5085 5.24645 40.2765 5.24645 40.0114C5.24645 39.7699 5.17898 39.5734 5.04403 39.4219C4.90909 39.2704 4.73153 39.1473 4.51136 39.0526C4.29119 38.9579 4.05327 38.875 3.79759 38.804L2.9027 38.5483C2.33452 38.3849 1.88471 38.1518 1.55327 37.8487C1.22183 37.5457 1.05611 37.1491 1.05611 36.6591C1.05611 36.2519 1.16619 35.8968 1.38636 35.5938C1.6089 35.2884 1.9072 35.0516 2.28125 34.8835C2.65767 34.7131 3.07789 34.6278 3.5419 34.6278C4.01065 34.6278 4.42732 34.7119 4.7919 34.88C5.15649 35.0457 5.44531 35.273 5.65838 35.5618C5.87382 35.8506 5.98745 36.1785 5.99929 36.5455H5.14702ZM9.71999 42.1136C9.19442 42.1136 8.74106 41.9976 8.35991 41.7656C7.98112 41.5312 7.68874 41.2045 7.48278 40.7855C7.27918 40.3641 7.17738 39.8741 7.17738 39.3153C7.17738 38.7566 7.27918 38.2642 7.48278 37.8381C7.68874 37.4096 7.9752 37.0758 8.34215 36.8366C8.71147 36.5952 9.14234 36.4744 9.63477 36.4744C9.91886 36.4744 10.1994 36.5218 10.4764 36.6165C10.7534 36.7112 11.0055 36.8651 11.2328 37.0781C11.46 37.2888 11.6412 37.5682 11.7761 37.9162C11.911 38.2642 11.9785 38.6927 11.9785 39.2017V39.5568H7.77397V38.8324H11.1262C11.1262 38.5246 11.0647 38.25 10.9416 38.0085C10.8208 37.767 10.648 37.5765 10.4231 37.4368C10.2006 37.2971 9.9378 37.2273 9.63477 37.2273C9.30096 37.2273 9.01213 37.3101 8.76829 37.4759C8.52681 37.6392 8.34097 37.8523 8.21076 38.1151C8.08055 38.3778 8.01545 38.6596 8.01545 38.9602V39.4432C8.01545 39.8551 8.08647 40.2043 8.22852 40.4908C8.37293 40.7749 8.57298 40.9915 8.82866 41.1406C9.08434 41.2874 9.38145 41.3608 9.71999 41.3608C9.94016 41.3608 10.139 41.33 10.3166 41.2685C10.4965 41.2045 10.6516 41.1098 10.7818 40.9844C10.912 40.8565 11.0126 40.6979 11.0836 40.5085L11.8933 40.7358C11.8081 41.0104 11.6648 41.2519 11.4636 41.4602C11.2624 41.6662 11.0138 41.8272 10.7179 41.9432C10.4219 42.0568 10.0893 42.1136 9.71999 42.1136ZM14.0914 34.7273V42H13.2534V34.7273H14.0914ZM17.9134 42.1136C17.3878 42.1136 16.9344 41.9976 16.5533 41.7656C16.1745 41.5312 15.8821 41.2045 15.6761 40.7855C15.4725 40.3641 15.3707 39.8741 15.3707 39.3153C15.3707 38.7566 15.4725 38.2642 15.6761 37.8381C15.8821 37.4096 16.1686 37.0758 16.5355 36.8366C16.9048 36.5952 17.3357 36.4744 17.8281 36.4744C18.1122 36.4744 18.3928 36.5218 18.6697 36.6165C18.9467 36.7112 19.1989 36.8651 19.4261 37.0781C19.6534 37.2888 19.8345 37.5682 19.9695 37.9162C20.1044 38.2642 20.1719 38.6927 20.1719 39.2017V39.5568H15.9673V38.8324H19.3196C19.3196 38.5246 19.258 38.25 19.1349 38.0085C19.0142 37.767 18.8414 37.5765 18.6165 37.4368C18.3939 37.2971 18.1312 37.2273 17.8281 37.2273C17.4943 37.2273 17.2055 37.3101 16.9616 37.4759C16.7202 37.6392 16.5343 37.8523 16.4041 38.1151C16.2739 38.3778 16.2088 38.6596 16.2088 38.9602V39.4432C16.2088 39.8551 16.2798 40.2043 16.4219 40.4908C16.5663 40.7749 16.7663 40.9915 17.022 41.1406C17.2777 41.2874 17.5748 41.3608 17.9134 41.3608C18.1335 41.3608 18.3324 41.33 18.5099 41.2685C18.6899 41.2045 18.8449 41.1098 18.9751 40.9844C19.1054 40.8565 19.206 40.6979 19.277 40.5085L20.0866 40.7358C20.0014 41.0104 19.8582 41.2519 19.657 41.4602C19.4557 41.6662 19.2071 41.8272 18.9112 41.9432C18.6153 42.0568 18.2827 42.1136 17.9134 42.1136ZM23.6626 42.1136C23.1513 42.1136 22.7109 41.9929 22.3416 41.7514C21.9723 41.5099 21.6882 41.1773 21.4893 40.7536C21.2905 40.3298 21.1911 39.8456 21.1911 39.3011C21.1911 38.7472 21.2929 38.2583 21.4964 37.8345C21.7024 37.4084 21.9889 37.0758 22.3558 36.8366C22.7251 36.5952 23.156 36.4744 23.6484 36.4744C24.032 36.4744 24.3776 36.5455 24.6854 36.6875C24.9931 36.8295 25.2453 37.0284 25.4418 37.2841C25.6383 37.5398 25.7602 37.8381 25.8075 38.179H24.9695C24.9055 37.9304 24.7635 37.7102 24.5433 37.5185C24.3255 37.3243 24.032 37.2273 23.6626 37.2273C23.3359 37.2273 23.0495 37.3125 22.8033 37.483C22.5594 37.651 22.3688 37.889 22.2315 38.1967C22.0966 38.5021 22.0291 38.8608 22.0291 39.2727C22.0291 39.6941 22.0954 40.0611 22.228 40.3736C22.3629 40.6861 22.5523 40.9287 22.7962 41.1016C23.0424 41.2744 23.3312 41.3608 23.6626 41.3608C23.8804 41.3608 24.0781 41.3229 24.2557 41.2472C24.4332 41.1714 24.5836 41.0625 24.7067 40.9205C24.8298 40.7784 24.9174 40.608 24.9695 40.4091H25.8075C25.7602 40.7311 25.643 41.0211 25.456 41.2791C25.2713 41.5348 25.0263 41.7384 24.7209 41.8899C24.4179 42.0391 24.0651 42.1136 23.6626 42.1136ZM29.4048 36.5455V37.2557H26.5781V36.5455H29.4048ZM27.402 35.2386H28.2401V40.4375C28.2401 40.6742 28.2744 40.8518 28.343 40.9702C28.4141 41.0862 28.504 41.1643 28.6129 41.2045C28.7242 41.2424 28.8414 41.2614 28.9645 41.2614C29.0568 41.2614 29.1326 41.2566 29.1918 41.2472C29.2509 41.2353 29.2983 41.2259 29.3338 41.2188L29.5043 41.9716C29.4474 41.9929 29.3681 42.0142 29.2663 42.0355C29.1645 42.0592 29.0355 42.071 28.8793 42.071C28.6425 42.071 28.4105 42.0201 28.1832 41.9183C27.9583 41.8165 27.7713 41.6615 27.6222 41.4531C27.4754 41.2448 27.402 40.982 27.402 40.6648V35.2386ZM3.94585 48.5455V49.2557H1.11914V48.5455H3.94585ZM1.943 47.2386H2.78107V52.4375C2.78107 52.6742 2.8154 52.8518 2.88406 52.9702C2.95508 53.0862 3.04504 53.1643 3.15394 53.2045C3.26521 53.2424 3.3824 53.2614 3.5055 53.2614C3.59783 53.2614 3.67359 53.2566 3.73278 53.2472C3.79196 53.2353 3.83931 53.2259 3.87482 53.2188L4.04528 53.9716C3.98846 53.9929 3.90915 54.0142 3.80735 54.0355C3.70555 54.0592 3.57653 54.071 3.42028 54.071C3.18353 54.071 2.95153 54.0201 2.72425 53.9183C2.49935 53.8165 2.31232 53.6615 2.16317 53.4531C2.01639 53.2448 1.943 52.982 1.943 52.6648V47.2386ZM5.2065 54V48.5455H6.04457V54H5.2065ZM5.63263 47.6364C5.46928 47.6364 5.32842 47.5807 5.21005 47.4695C5.09405 47.3582 5.03604 47.2244 5.03604 47.0682C5.03604 46.9119 5.09405 46.7782 5.21005 46.6669C5.32842 46.5556 5.46928 46.5 5.63263 46.5C5.79599 46.5 5.93567 46.5556 6.05167 46.6669C6.17004 46.7782 6.22923 46.9119 6.22923 47.0682C6.22923 47.2244 6.17004 47.3582 6.05167 47.4695C5.93567 47.5807 5.79599 47.6364 5.63263 47.6364ZM9.79545 54.1136C9.28409 54.1136 8.84375 53.9929 8.47443 53.7514C8.10511 53.5099 7.82102 53.1773 7.62216 52.7536C7.4233 52.3298 7.32386 51.8456 7.32386 51.3011C7.32386 50.7472 7.42566 50.2583 7.62926 49.8345C7.83523 49.4084 8.12169 49.0758 8.48864 48.8366C8.85795 48.5952 9.28883 48.4744 9.78125 48.4744C10.1648 48.4744 10.5104 48.5455 10.8182 48.6875C11.1259 48.8295 11.3781 49.0284 11.5746 49.2841C11.7711 49.5398 11.893 49.8381 11.9403 50.179H11.1023C11.0384 49.9304 10.8963 49.7102 10.6761 49.5185C10.4583 49.3243 10.1648 49.2273 9.79545 49.2273C9.46875 49.2273 9.18229 49.3125 8.93608 49.483C8.69223 49.651 8.50166 49.889 8.36435 50.1967C8.2294 50.5021 8.16193 50.8608 8.16193 51.2727C8.16193 51.6941 8.22822 52.0611 8.3608 52.3736C8.49574 52.6861 8.68513 52.9287 8.92898 53.1016C9.17519 53.2744 9.46402 53.3608 9.79545 53.3608C10.0133 53.3608 10.2109 53.3229 10.3885 53.2472C10.5661 53.1714 10.7164 53.0625 10.8395 52.9205C10.9626 52.7784 11.0502 52.608 11.1023 52.4091H11.9403C11.893 52.7311 11.7758 53.0211 11.5888 53.2791C11.4041 53.5348 11.1591 53.7384 10.8537 53.8899C10.5507 54.0391 10.1979 54.1136 9.79545 54.1136ZM13.9467 52.0114L13.9325 50.9744H14.103L16.4893 48.5455H17.5263L14.9837 51.1165H14.9126L13.9467 52.0114ZM13.1655 54V46.7273H14.0036V54H13.1655ZM16.6314 54L14.5007 51.3011L15.0973 50.7188L17.6967 54H16.6314ZM20.6673 54.1136C20.1417 54.1136 19.6883 53.9976 19.3072 53.7656C18.9284 53.5312 18.636 53.2045 18.43 52.7855C18.2264 52.3641 18.1246 51.8741 18.1246 51.3153C18.1246 50.7566 18.2264 50.2642 18.43 49.8381C18.636 49.4096 18.9225 49.0758 19.2894 48.8366C19.6587 48.5952 20.0896 48.4744 20.582 48.4744C20.8661 48.4744 21.1467 48.5218 21.4237 48.6165C21.7006 48.7112 21.9528 48.8651 22.18 49.0781C22.4073 49.2888 22.5884 49.5682 22.7234 49.9162C22.8583 50.2642 22.9258 50.6927 22.9258 51.2017V51.5568H18.7212V50.8324H22.0735C22.0735 50.5246 22.012 50.25 21.8888 50.0085C21.7681 49.767 21.5953 49.5765 21.3704 49.4368C21.1478 49.2971 20.8851 49.2273 20.582 49.2273C20.2482 49.2273 19.9594 49.3101 19.7156 49.4759C19.4741 49.6392 19.2882 49.8523 19.158 50.1151C19.0278 50.3778 18.9627 50.6596 18.9627 50.9602V51.4432C18.9627 51.8551 19.0337 52.2043 19.1758 52.4908C19.3202 52.7749 19.5202 52.9915 19.7759 53.1406C20.0316 53.2874 20.3287 53.3608 20.6673 53.3608C20.8874 53.3608 21.0863 53.33 21.2638 53.2685C21.4438 53.2045 21.5988 53.1098 21.729 52.9844C21.8593 52.8565 21.9599 52.6979 22.0309 52.5085L22.8406 52.7358C22.7553 53.0104 22.6121 53.2519 22.4109 53.4602C22.2096 53.6662 21.9611 53.8272 21.6651 53.9432C21.3692 54.0568 21.0366 54.1136 20.6673 54.1136ZM26.5728 48.5455V49.2557H23.7461V48.5455H26.5728ZM24.57 47.2386H25.408V52.4375C25.408 52.6742 25.4424 52.8518 25.511 52.9702C25.582 53.0862 25.672 53.1643 25.7809 53.2045C25.8922 53.2424 26.0094 53.2614 26.1325 53.2614C26.2248 53.2614 26.3005 53.2566 26.3597 53.2472C26.4189 53.2353 26.4663 53.2259 26.5018 53.2188L26.6722 53.9716C26.6154 53.9929 26.5361 54.0142 26.4343 54.0355C26.3325 54.0592 26.2035 54.071 26.0472 54.071C25.8105 54.071 25.5785 54.0201 25.3512 53.9183C25.1263 53.8165 24.9393 53.6615 24.7901 53.4531C24.6433 53.2448 24.57 52.982 24.57 52.6648V47.2386ZM31.5994 49.767L30.8466 49.9801C30.7992 49.8546 30.7294 49.7327 30.6371 49.6143C30.5471 49.4936 30.424 49.3942 30.2678 49.3161C30.1115 49.2379 29.9115 49.1989 29.6676 49.1989C29.3338 49.1989 29.0556 49.2758 28.8331 49.4297C28.6129 49.5812 28.5028 49.7741 28.5028 50.0085C28.5028 50.2169 28.5786 50.3814 28.7301 50.5021C28.8816 50.6229 29.1184 50.7235 29.4403 50.804L30.25 51.0028C30.7377 51.1212 31.1011 51.3023 31.3402 51.5462C31.5793 51.7876 31.6989 52.099 31.6989 52.4801C31.6989 52.7926 31.6089 53.072 31.429 53.3182C31.2514 53.5644 31.0028 53.7585 30.6832 53.9006C30.3636 54.0426 29.992 54.1136 29.5682 54.1136C29.0118 54.1136 28.5514 53.9929 28.1868 53.7514C27.8222 53.5099 27.5914 53.1572 27.4943 52.6932L28.2898 52.4943C28.3655 52.7879 28.5088 53.008 28.7195 53.1548C28.9325 53.3016 29.2107 53.375 29.554 53.375C29.9446 53.375 30.2547 53.2921 30.4844 53.1264C30.7164 52.9583 30.8324 52.7571 30.8324 52.5227C30.8324 52.3333 30.7661 52.1747 30.6335 52.0469C30.5009 51.9167 30.2973 51.8196 30.0227 51.7557L29.1136 51.5426C28.6141 51.4242 28.2472 51.2408 28.0128 50.9922C27.7808 50.7412 27.6648 50.4276 27.6648 50.0511C27.6648 49.7434 27.7512 49.4711 27.924 49.2344C28.0992 48.9976 28.3371 48.8118 28.6378 48.6768C28.9408 48.5419 29.2841 48.4744 29.6676 48.4744C30.2074 48.4744 30.6312 48.5928 30.9389 48.8295C31.2491 49.0663 31.4692 49.3788 31.5994 49.767Z" fill="white"/>
<path d="M74.9429 35.5085V34.7273H80.3975V35.5085H78.1105V42H77.2298V35.5085H74.9429ZM81.643 42V36.5455H82.4811V42H81.643ZM82.0692 35.6364C81.9058 35.6364 81.7649 35.5807 81.6466 35.4695C81.5306 35.3582 81.4726 35.2244 81.4726 35.0682C81.4726 34.9119 81.5306 34.7782 81.6466 34.6669C81.7649 34.5556 81.9058 34.5 82.0692 34.5C82.2325 34.5 82.3722 34.5556 82.4882 34.6669C82.6066 34.7782 82.6657 34.9119 82.6657 35.0682C82.6657 35.2244 82.6066 35.3582 82.4882 35.4695C82.3722 35.5807 82.2325 35.6364 82.0692 35.6364ZM86.232 42.1136C85.7206 42.1136 85.2803 41.9929 84.911 41.7514C84.5416 41.5099 84.2575 41.1773 84.0587 40.7536C83.8598 40.3298 83.7604 39.8456 83.7604 39.3011C83.7604 38.7472 83.8622 38.2583 84.0658 37.8345C84.2718 37.4084 84.5582 37.0758 84.9252 36.8366C85.2945 36.5952 85.7253 36.4744 86.2178 36.4744C86.6013 36.4744 86.9469 36.5455 87.2547 36.6875C87.5625 36.8295 87.8146 37.0284 88.0111 37.2841C88.2076 37.5398 88.3295 37.8381 88.3769 38.179H87.5388C87.4749 37.9304 87.3328 37.7102 87.1127 37.5185C86.8949 37.3243 86.6013 37.2273 86.232 37.2273C85.9053 37.2273 85.6188 37.3125 85.3726 37.483C85.1288 37.651 84.9382 37.889 84.8009 38.1967C84.6659 38.5021 84.5985 38.8608 84.5985 39.2727C84.5985 39.6941 84.6647 40.0611 84.7973 40.3736C84.9323 40.6861 85.1217 40.9287 85.3655 41.1016C85.6117 41.2744 85.9005 41.3608 86.232 41.3608C86.4498 41.3608 86.6475 41.3229 86.825 41.2472C87.0026 41.1714 87.1529 41.0625 87.276 40.9205C87.3991 40.7784 87.4867 40.608 87.5388 40.4091H88.3769C88.3295 40.7311 88.2123 41.0211 88.0253 41.2791C87.8406 41.5348 87.5956 41.7384 87.2902 41.8899C86.9872 42.0391 86.6344 42.1136 86.232 42.1136ZM90.3833 40.0114L90.3691 38.9744H90.5395L92.9259 36.5455H93.9628L91.4202 39.1165H91.3492L90.3833 40.0114ZM89.602 42V34.7273H90.4401V42H89.602ZM93.0679 42L90.9372 39.3011L91.5338 38.7188L94.1333 42H93.0679ZM97.1038 42.1136C96.5782 42.1136 96.1249 41.9976 95.7437 41.7656C95.3649 41.5312 95.0725 41.2045 94.8666 40.7855C94.663 40.3641 94.5612 39.8741 94.5612 39.3153C94.5612 38.7566 94.663 38.2642 94.8666 37.8381C95.0725 37.4096 95.359 37.0758 95.7259 36.8366C96.0953 36.5952 96.5261 36.4744 97.0186 36.4744C97.3026 36.4744 97.5832 36.5218 97.8602 36.6165C98.1372 36.7112 98.3893 36.8651 98.6166 37.0781C98.8438 37.2888 99.0249 37.5682 99.1599 37.9162C99.2948 38.2642 99.3623 38.6927 99.3623 39.2017V39.5568H95.1578V38.8324H98.51C98.51 38.5246 98.4485 38.25 98.3254 38.0085C98.2046 37.767 98.0318 37.5765 97.8069 37.4368C97.5844 37.2971 97.3216 37.2273 97.0186 37.2273C96.6847 37.2273 96.3959 37.3101 96.1521 37.4759C95.9106 37.6392 95.7248 37.8523 95.5945 38.1151C95.4643 38.3778 95.3992 38.6596 95.3992 38.9602V39.4432C95.3992 39.8551 95.4703 40.2043 95.6123 40.4908C95.7567 40.7749 95.9568 40.9915 96.2124 41.1406C96.4681 41.2874 96.7652 41.3608 97.1038 41.3608C97.324 41.3608 97.5228 41.33 97.7004 41.2685C97.8803 41.2045 98.0354 41.1098 98.1656 40.9844C98.2958 40.8565 98.3964 40.6979 98.4674 40.5085L99.2771 40.7358C99.1919 41.0104 99.0486 41.2519 98.8474 41.4602C98.6462 41.6662 98.3976 41.8272 98.1017 41.9432C97.8057 42.0568 97.4731 42.1136 97.1038 42.1136ZM103.009 36.5455V37.2557H100.183V36.5455H103.009ZM101.006 35.2386H101.845V40.4375C101.845 40.6742 101.879 40.8518 101.948 40.9702C102.019 41.0862 102.109 41.1643 102.217 41.2045C102.329 41.2424 102.446 41.2614 102.569 41.2614C102.661 41.2614 102.737 41.2566 102.796 41.2472C102.855 41.2353 102.903 41.2259 102.938 41.2188L103.109 41.9716C103.052 41.9929 102.973 42.0142 102.871 42.0355C102.769 42.0592 102.64 42.071 102.484 42.071C102.247 42.071 102.015 42.0201 101.788 41.9183C101.563 41.8165 101.376 41.6615 101.227 41.4531C101.08 41.2448 101.006 40.982 101.006 40.6648V35.2386ZM107.921 38.7188V42H107.082V34.7273H107.921V37.3977H107.992C108.119 37.116 108.311 36.8923 108.567 36.7266C108.825 36.5585 109.168 36.4744 109.597 36.4744C109.968 36.4744 110.294 36.549 110.573 36.6982C110.853 36.8449 111.069 37.071 111.223 37.3764C111.379 37.6795 111.457 38.0653 111.457 38.5341V42H110.619V38.5909C110.619 38.1577 110.507 37.8227 110.282 37.5859C110.06 37.3468 109.751 37.2273 109.355 37.2273C109.081 37.2273 108.834 37.2853 108.617 37.4013C108.401 37.5173 108.231 37.6866 108.105 37.9091C107.982 38.1316 107.921 38.4015 107.921 38.7188ZM115.207 42.1136C114.714 42.1136 114.282 41.9964 113.91 41.7621C113.541 41.5277 113.252 41.1998 113.044 40.7784C112.838 40.357 112.735 39.8646 112.735 39.3011C112.735 38.733 112.838 38.237 113.044 37.8132C113.252 37.3894 113.541 37.0604 113.91 36.826C114.282 36.5916 114.714 36.4744 115.207 36.4744C115.699 36.4744 116.13 36.5916 116.499 36.826C116.871 37.0604 117.16 37.3894 117.366 37.8132C117.574 38.237 117.678 38.733 117.678 39.3011C117.678 39.8646 117.574 40.357 117.366 40.7784C117.16 41.1998 116.871 41.5277 116.499 41.7621C116.13 41.9964 115.699 42.1136 115.207 42.1136ZM115.207 41.3608C115.581 41.3608 115.888 41.2649 116.13 41.0732C116.371 40.8814 116.55 40.6293 116.666 40.3168C116.782 40.0043 116.84 39.6657 116.84 39.3011C116.84 38.9366 116.782 38.5968 116.666 38.282C116.55 37.9671 116.371 37.7126 116.13 37.5185C115.888 37.3243 115.581 37.2273 115.207 37.2273C114.833 37.2273 114.525 37.3243 114.283 37.5185C114.042 37.7126 113.863 37.9671 113.747 38.282C113.631 38.5968 113.573 38.9366 113.573 39.3011C113.573 39.6657 113.631 40.0043 113.747 40.3168C113.863 40.6293 114.042 40.8814 114.283 41.0732C114.525 41.2649 114.833 41.3608 115.207 41.3608ZM119.796 34.7273V42H118.957V34.7273H119.796ZM123.39 42.1136C122.936 42.1136 122.534 41.9988 122.186 41.7692C121.838 41.5372 121.566 41.2105 121.37 40.7891C121.173 40.3653 121.075 39.8646 121.075 39.2869C121.075 38.714 121.173 38.2169 121.37 37.7955C121.566 37.3741 121.84 37.0485 122.19 36.8189C122.54 36.5893 122.945 36.4744 123.404 36.4744C123.759 36.4744 124.04 36.5336 124.246 36.652C124.454 36.768 124.613 36.9006 124.722 37.0497C124.833 37.1965 124.92 37.3172 124.981 37.4119H125.052V34.7273H125.89V42H125.081V41.1619H124.981C124.92 41.2614 124.832 41.3868 124.718 41.5384C124.605 41.6875 124.443 41.8213 124.232 41.9396C124.021 42.0556 123.741 42.1136 123.39 42.1136ZM123.504 41.3608C123.84 41.3608 124.124 41.2732 124.356 41.098C124.588 40.9205 124.764 40.6754 124.885 40.3629C125.006 40.0481 125.066 39.6847 125.066 39.2727C125.066 38.8655 125.007 38.5092 124.889 38.2038C124.77 37.8961 124.595 37.657 124.363 37.4865C124.131 37.3137 123.845 37.2273 123.504 37.2273C123.149 37.2273 122.853 37.3184 122.616 37.5007C122.382 37.6806 122.205 37.9257 122.087 38.2358C121.971 38.5436 121.913 38.8892 121.913 39.2727C121.913 39.661 121.972 40.0137 122.09 40.331C122.211 40.6458 122.389 40.8968 122.623 41.0838C122.86 41.2685 123.153 41.3608 123.504 41.3608ZM129.828 42.1136C129.303 42.1136 128.849 41.9976 128.468 41.7656C128.09 41.5312 127.797 41.2045 127.591 40.7855C127.388 40.3641 127.286 39.8741 127.286 39.3153C127.286 38.7566 127.388 38.2642 127.591 37.8381C127.797 37.4096 128.084 37.0758 128.451 36.8366C128.82 36.5952 129.251 36.4744 129.743 36.4744C130.027 36.4744 130.308 36.5218 130.585 36.6165C130.862 36.7112 131.114 36.8651 131.341 37.0781C131.568 37.2888 131.75 37.5682 131.884 37.9162C132.019 38.2642 132.087 38.6927 132.087 39.2017V39.5568H127.882V38.8324H131.235C131.235 38.5246 131.173 38.25 131.05 38.0085C130.929 37.767 130.756 37.5765 130.532 37.4368C130.309 37.2971 130.046 37.2273 129.743 37.2273C129.409 37.2273 129.121 37.3101 128.877 37.4759C128.635 37.6392 128.449 37.8523 128.319 38.1151C128.189 38.3778 128.124 38.6596 128.124 38.9602V39.4432C128.124 39.8551 128.195 40.2043 128.337 40.4908C128.481 40.7749 128.681 40.9915 128.937 41.1406C129.193 41.2874 129.49 41.3608 129.828 41.3608C130.049 41.3608 130.247 41.33 130.425 41.2685C130.605 41.2045 130.76 41.1098 130.89 40.9844C131.02 40.8565 131.121 40.6979 131.192 40.5085L132.002 40.7358C131.916 41.0104 131.773 41.2519 131.572 41.4602C131.371 41.6662 131.122 41.8272 130.826 41.9432C130.53 42.0568 130.198 42.1136 129.828 42.1136ZM133.362 42V36.5455H134.171V37.3693H134.228C134.328 37.0994 134.508 36.8804 134.768 36.7124C135.028 36.5443 135.322 36.4602 135.649 36.4602C135.71 36.4602 135.787 36.4614 135.88 36.4638C135.972 36.4661 136.042 36.4697 136.089 36.4744V37.3267C136.061 37.3196 135.996 37.3089 135.894 37.2947C135.794 37.2782 135.689 37.2699 135.578 37.2699C135.313 37.2699 135.076 37.3255 134.867 37.4368C134.661 37.5457 134.498 37.6972 134.377 37.8913C134.259 38.0831 134.2 38.3021 134.2 38.5483V42H133.362ZM140.946 37.767L140.193 37.9801C140.146 37.8546 140.076 37.7327 139.984 37.6143C139.894 37.4936 139.771 37.3942 139.614 37.3161C139.458 37.2379 139.258 37.1989 139.014 37.1989C138.68 37.1989 138.402 37.2758 138.18 37.4297C137.96 37.5812 137.85 37.7741 137.85 38.0085C137.85 38.2169 137.925 38.3814 138.077 38.5021C138.228 38.6229 138.465 38.7235 138.787 38.804L139.597 39.0028C140.084 39.1212 140.448 39.3023 140.687 39.5462C140.926 39.7876 141.046 40.099 141.046 40.4801C141.046 40.7926 140.956 41.072 140.776 41.3182C140.598 41.5644 140.35 41.7585 140.03 41.9006C139.71 42.0426 139.339 42.1136 138.915 42.1136C138.359 42.1136 137.898 41.9929 137.533 41.7514C137.169 41.5099 136.938 41.1572 136.841 40.6932L137.636 40.4943C137.712 40.7879 137.855 41.008 138.066 41.1548C138.279 41.3016 138.557 41.375 138.901 41.375C139.291 41.375 139.601 41.2921 139.831 41.1264C140.063 40.9583 140.179 40.7571 140.179 40.5227C140.179 40.3333 140.113 40.1747 139.98 40.0469C139.848 39.9167 139.644 39.8196 139.369 39.7557L138.46 39.5426C137.961 39.4242 137.594 39.2408 137.359 38.9922C137.127 38.7412 137.011 38.4276 137.011 38.0511C137.011 37.7434 137.098 37.4711 137.271 37.2344C137.446 36.9976 137.684 36.8118 137.984 36.6768C138.287 36.5419 138.631 36.4744 139.014 36.4744C139.554 36.4744 139.978 36.5928 140.286 36.8295C140.596 37.0663 140.816 37.3788 140.946 37.767ZM82.0483 54V48.5455H82.8864V54H82.0483ZM82.4744 47.6364C82.3111 47.6364 82.1702 47.5807 82.0518 47.4695C81.9358 47.3582 81.8778 47.2244 81.8778 47.0682C81.8778 46.9119 81.9358 46.7782 82.0518 46.6669C82.1702 46.5556 82.3111 46.5 82.4744 46.5C82.6378 46.5 82.7775 46.5556 82.8935 46.6669C83.0118 46.7782 83.071 46.9119 83.071 47.0682C83.071 47.2244 83.0118 47.3582 82.8935 47.4695C82.7775 47.5807 82.6378 47.6364 82.4744 47.6364ZM85.2594 50.7188V54H84.4213V48.5455H85.231V49.3977H85.302C85.4299 49.1207 85.624 48.8982 85.8844 48.7301C86.1448 48.5597 86.481 48.4744 86.8929 48.4744C87.2623 48.4744 87.5854 48.5502 87.8624 48.7017C88.1394 48.8509 88.3548 49.0781 88.5087 49.3835C88.6626 49.6866 88.7395 50.0701 88.7395 50.5341V54H87.9015V50.5909C87.9015 50.1624 87.7902 49.8286 87.5676 49.5895C87.3451 49.348 87.0397 49.2273 86.6515 49.2273C86.3839 49.2273 86.1448 49.2853 85.9341 49.4013C85.7258 49.5173 85.5613 49.6866 85.4405 49.9091C85.3198 50.1316 85.2594 50.4015 85.2594 50.7188ZM92.6999 48.5455V49.2557H89.7596V48.5455H92.6999ZM90.6403 54V47.7926C90.6403 47.4801 90.7137 47.2197 90.8604 47.0114C91.0072 46.803 91.1978 46.6468 91.4322 46.5426C91.6665 46.4384 91.9139 46.3864 92.1744 46.3864C92.3803 46.3864 92.5484 46.4029 92.6786 46.4361C92.8088 46.4692 92.9059 46.5 92.9698 46.5284L92.7283 47.2528C92.6857 47.2386 92.6265 47.2209 92.5508 47.1996C92.4774 47.1783 92.3803 47.1676 92.2596 47.1676C91.9826 47.1676 91.7826 47.2375 91.6594 47.3771C91.5387 47.5168 91.4783 47.7216 91.4783 47.9915V54H90.6403ZM95.8658 54.1136C95.3733 54.1136 94.9413 53.9964 94.5696 53.7621C94.2003 53.5277 93.9115 53.1998 93.7031 52.7784C93.4972 52.357 93.3942 51.8646 93.3942 51.3011C93.3942 50.733 93.4972 50.237 93.7031 49.8132C93.9115 49.3894 94.2003 49.0604 94.5696 48.826C94.9413 48.5916 95.3733 48.4744 95.8658 48.4744C96.3582 48.4744 96.7891 48.5916 97.1584 48.826C97.5301 49.0604 97.8189 49.3894 98.0249 49.8132C98.2332 50.237 98.3374 50.733 98.3374 51.3011C98.3374 51.8646 98.2332 52.357 98.0249 52.7784C97.8189 53.1998 97.5301 53.5277 97.1584 53.7621C96.7891 53.9964 96.3582 54.1136 95.8658 54.1136ZM95.8658 53.3608C96.2398 53.3608 96.5476 53.2649 96.7891 53.0732C97.0305 52.8814 97.2093 52.6293 97.3253 52.3168C97.4413 52.0043 97.4993 51.6657 97.4993 51.3011C97.4993 50.9366 97.4413 50.5968 97.3253 50.282C97.2093 49.9671 97.0305 49.7126 96.7891 49.5185C96.5476 49.3243 96.2398 49.2273 95.8658 49.2273C95.4917 49.2273 95.1839 49.3243 94.9425 49.5185C94.701 49.7126 94.5223 49.9671 94.4062 50.282C94.2902 50.5968 94.2322 50.9366 94.2322 51.3011C94.2322 51.6657 94.2902 52.0043 94.4062 52.3168C94.5223 52.6293 94.701 52.8814 94.9425 53.0732C95.1839 53.2649 95.4917 53.3608 95.8658 53.3608ZM99.6167 54V48.5455H100.426V49.3693H100.483C100.583 49.0994 100.762 48.8804 101.023 48.7124C101.283 48.5443 101.577 48.4602 101.904 48.4602C101.965 48.4602 102.042 48.4614 102.134 48.4638C102.227 48.4661 102.297 48.4697 102.344 48.4744V49.3267C102.316 49.3196 102.25 49.3089 102.149 49.2947C102.049 49.2782 101.944 49.2699 101.833 49.2699C101.567 49.2699 101.331 49.3255 101.122 49.4368C100.916 49.5457 100.753 49.6972 100.632 49.8913C100.514 50.0831 100.455 50.3021 100.455 50.5483V54H99.6167ZM103.337 54V48.5455H104.147V49.3977H104.218C104.332 49.1065 104.515 48.8804 104.768 48.7195C105.022 48.5561 105.326 48.4744 105.681 48.4744C106.041 48.4744 106.34 48.5561 106.58 48.7195C106.821 48.8804 107.009 49.1065 107.144 49.3977H107.201C107.341 49.116 107.55 48.8923 107.83 48.7266C108.109 48.5585 108.444 48.4744 108.835 48.4744C109.322 48.4744 109.721 48.6271 110.031 48.9325C110.341 49.2356 110.496 49.7079 110.496 50.3494V54H109.658V50.3494C109.658 49.947 109.548 49.6593 109.328 49.4865C109.108 49.3137 108.849 49.2273 108.55 49.2273C108.167 49.2273 107.87 49.3433 107.659 49.5753C107.448 49.8049 107.343 50.0961 107.343 50.4489V54H106.491V50.2642C106.491 49.9541 106.39 49.7043 106.189 49.5149C105.988 49.3232 105.728 49.2273 105.411 49.2273C105.193 49.2273 104.99 49.2853 104.8 49.4013C104.613 49.5173 104.462 49.6783 104.346 49.8842C104.232 50.0878 104.175 50.3234 104.175 50.5909V54H103.337ZM113.634 54.1278C113.288 54.1278 112.975 54.0627 112.693 53.9325C112.411 53.8 112.187 53.6094 112.022 53.3608C111.856 53.1098 111.773 52.8068 111.773 52.4517C111.773 52.1392 111.835 51.8859 111.958 51.6918C112.081 51.4953 112.245 51.3414 112.451 51.2301C112.657 51.1188 112.885 51.036 113.133 50.9815C113.384 50.9247 113.636 50.8797 113.89 50.8466C114.221 50.804 114.49 50.772 114.696 50.7507C114.904 50.727 115.056 50.688 115.15 50.6335C115.247 50.5791 115.296 50.4844 115.296 50.3494V50.321C115.296 49.9706 115.2 49.6984 115.008 49.5043C114.819 49.3101 114.531 49.2131 114.145 49.2131C113.745 49.2131 113.431 49.3007 113.204 49.4759C112.977 49.651 112.817 49.8381 112.725 50.0369L111.929 49.7528C112.071 49.4214 112.261 49.1634 112.498 48.9787C112.737 48.7917 112.997 48.6615 113.279 48.5881C113.563 48.5123 113.842 48.4744 114.117 48.4744C114.292 48.4744 114.493 48.4957 114.721 48.5384C114.95 48.5786 115.172 48.6626 115.385 48.7905C115.6 48.9183 115.779 49.1113 115.921 49.3693C116.063 49.6274 116.134 49.973 116.134 50.4062V54H115.296V53.2614H115.253C115.196 53.3797 115.102 53.5064 114.969 53.6413C114.837 53.7763 114.66 53.8911 114.44 53.9858C114.22 54.0805 113.951 54.1278 113.634 54.1278ZM113.762 53.375C114.093 53.375 114.373 53.3099 114.6 53.1797C114.829 53.0495 115.002 52.8814 115.118 52.6754C115.237 52.4695 115.296 52.2528 115.296 52.0256V51.2585C115.26 51.3011 115.182 51.3402 115.061 51.3757C114.943 51.4089 114.806 51.4384 114.65 51.4645C114.496 51.4882 114.345 51.5095 114.199 51.5284C114.054 51.545 113.937 51.5592 113.847 51.571C113.629 51.5994 113.426 51.6456 113.236 51.7095C113.049 51.7711 112.898 51.8646 112.782 51.9901C112.668 52.1132 112.611 52.2812 112.611 52.4943C112.611 52.7855 112.719 53.0057 112.934 53.1548C113.152 53.3016 113.428 53.375 113.762 53.375ZM120.036 48.5455V49.2557H117.209V48.5455H120.036ZM118.033 47.2386H118.871V52.4375C118.871 52.6742 118.905 52.8518 118.974 52.9702C119.045 53.0862 119.135 53.1643 119.244 53.2045C119.355 53.2424 119.472 53.2614 119.595 53.2614C119.688 53.2614 119.763 53.2566 119.823 53.2472C119.882 53.2353 119.929 53.2259 119.965 53.2188L120.135 53.9716C120.078 53.9929 119.999 54.0142 119.897 54.0355C119.795 54.0592 119.666 54.071 119.51 54.071C119.273 54.071 119.041 54.0201 118.814 53.9183C118.589 53.8165 118.402 53.6615 118.253 53.4531C118.106 53.2448 118.033 52.982 118.033 52.6648V47.2386ZM121.296 54V48.5455H122.134V54H121.296ZM121.722 47.6364C121.559 47.6364 121.418 47.5807 121.3 47.4695C121.184 47.3582 121.126 47.2244 121.126 47.0682C121.126 46.9119 121.184 46.7782 121.3 46.6669C121.418 46.5556 121.559 46.5 121.722 46.5C121.886 46.5 122.026 46.5556 122.142 46.6669C122.26 46.7782 122.319 46.9119 122.319 47.0682C122.319 47.2244 122.26 47.3582 122.142 47.4695C122.026 47.5807 121.886 47.6364 121.722 47.6364ZM125.885 54.1136C125.393 54.1136 124.961 53.9964 124.589 53.7621C124.22 53.5277 123.931 53.1998 123.723 52.7784C123.517 52.357 123.414 51.8646 123.414 51.3011C123.414 50.733 123.517 50.237 123.723 49.8132C123.931 49.3894 124.22 49.0604 124.589 48.826C124.961 48.5916 125.393 48.4744 125.885 48.4744C126.378 48.4744 126.809 48.5916 127.178 48.826C127.55 49.0604 127.838 49.3894 128.044 49.8132C128.253 50.237 128.357 50.733 128.357 51.3011C128.357 51.8646 128.253 52.357 128.044 52.7784C127.838 53.1998 127.55 53.5277 127.178 53.7621C126.809 53.9964 126.378 54.1136 125.885 54.1136ZM125.885 53.3608C126.259 53.3608 126.567 53.2649 126.809 53.0732C127.05 52.8814 127.229 52.6293 127.345 52.3168C127.461 52.0043 127.519 51.6657 127.519 51.3011C127.519 50.9366 127.461 50.5968 127.345 50.282C127.229 49.9671 127.05 49.7126 126.809 49.5185C126.567 49.3243 126.259 49.2273 125.885 49.2273C125.511 49.2273 125.203 49.3243 124.962 49.5185C124.721 49.7126 124.542 49.9671 124.426 50.282C124.31 50.5968 124.252 50.9366 124.252 51.3011C124.252 51.6657 124.31 52.0043 124.426 52.3168C124.542 52.6293 124.721 52.8814 124.962 53.0732C125.203 53.2649 125.511 53.3608 125.885 53.3608ZM130.474 50.7188V54H129.636V48.5455H130.446V49.3977H130.517C130.645 49.1207 130.839 48.8982 131.099 48.7301C131.36 48.5597 131.696 48.4744 132.108 48.4744C132.477 48.4744 132.8 48.5502 133.077 48.7017C133.354 48.8509 133.57 49.0781 133.724 49.3835C133.877 49.6866 133.954 50.0701 133.954 50.5341V54H133.116V50.5909C133.116 50.1624 133.005 49.8286 132.782 49.5895C132.56 49.348 132.255 49.2273 131.866 49.2273C131.599 49.2273 131.36 49.2853 131.149 49.4013C130.941 49.5173 130.776 49.6866 130.655 49.9091C130.535 50.1316 130.474 50.4015 130.474 50.7188Z" fill="white"/>
<path d="M189.911 42V34.7273H192.454C192.96 34.7273 193.378 34.8149 193.707 34.9901C194.036 35.1629 194.281 35.3961 194.442 35.6896C194.603 35.9808 194.684 36.304 194.684 36.6591C194.684 36.9716 194.628 37.2296 194.517 37.4332C194.408 37.6368 194.263 37.7978 194.084 37.9162C193.906 38.0346 193.713 38.1222 193.505 38.179V38.25C193.727 38.2642 193.951 38.3423 194.176 38.4844C194.401 38.6264 194.589 38.83 194.741 39.0952C194.892 39.3603 194.968 39.6847 194.968 40.0682C194.968 40.4328 194.885 40.7607 194.719 41.0518C194.553 41.343 194.292 41.5739 193.934 41.7443C193.577 41.9148 193.112 42 192.539 42H189.911ZM190.792 41.2188H192.539C193.114 41.2188 193.522 41.1075 193.764 40.8849C194.008 40.66 194.13 40.3878 194.13 40.0682C194.13 39.822 194.067 39.5947 193.941 39.3864C193.816 39.1757 193.637 39.0076 193.405 38.8821C193.173 38.7543 192.899 38.6903 192.581 38.6903H190.792V41.2188ZM190.792 37.9233H192.425C192.69 37.9233 192.929 37.8712 193.142 37.767C193.358 37.6629 193.528 37.5161 193.654 37.3267C193.782 37.1373 193.846 36.9148 193.846 36.6591C193.846 36.3395 193.734 36.0684 193.512 35.8459C193.289 35.621 192.937 35.5085 192.454 35.5085H190.792V37.9233ZM196.301 42V36.5455H197.139V42H196.301ZM196.727 35.6364C196.564 35.6364 196.423 35.5807 196.305 35.4695C196.189 35.3582 196.131 35.2244 196.131 35.0682C196.131 34.9119 196.189 34.7782 196.305 34.6669C196.423 34.5556 196.564 34.5 196.727 34.5C196.891 34.5 197.03 34.5556 197.146 34.6669C197.265 34.7782 197.324 34.9119 197.324 35.0682C197.324 35.2244 197.265 35.3582 197.146 35.4695C197.03 35.5807 196.891 35.6364 196.727 35.6364ZM199.512 34.7273V42H198.674V34.7273H199.512ZM201.885 34.7273V42H201.047V34.7273H201.885ZM203.42 42V36.5455H204.258V42H203.42ZM203.847 35.6364C203.683 35.6364 203.542 35.5807 203.424 35.4695C203.308 35.3582 203.25 35.2244 203.25 35.0682C203.25 34.9119 203.308 34.7782 203.424 34.6669C203.542 34.5556 203.683 34.5 203.847 34.5C204.01 34.5 204.15 34.5556 204.266 34.6669C204.384 34.7782 204.443 34.9119 204.443 35.0682C204.443 35.2244 204.384 35.3582 204.266 35.4695C204.15 35.5807 204.01 35.6364 203.847 35.6364ZM206.631 38.7188V42H205.793V36.5455H206.603V37.3977H206.674C206.802 37.1207 206.996 36.8982 207.256 36.7301C207.517 36.5597 207.853 36.4744 208.265 36.4744C208.634 36.4744 208.957 36.5502 209.234 36.7017C209.511 36.8509 209.727 37.0781 209.881 37.3835C210.035 37.6866 210.112 38.0701 210.112 38.5341V42H209.274V38.5909C209.274 38.1624 209.162 37.8286 208.94 37.5895C208.717 37.348 208.412 37.2273 208.024 37.2273C207.756 37.2273 207.517 37.2853 207.306 37.4013C207.098 37.5173 206.933 37.6866 206.813 37.9091C206.692 38.1316 206.631 38.4015 206.631 38.7188ZM213.845 44.1591C213.44 44.1591 213.092 44.107 212.801 44.0028C212.509 43.901 212.267 43.7661 212.073 43.598C211.881 43.4323 211.728 43.2547 211.615 43.0653L212.282 42.5966C212.358 42.696 212.454 42.8097 212.57 42.9375C212.686 43.0677 212.844 43.1802 213.046 43.2749C213.249 43.3719 213.516 43.4205 213.845 43.4205C214.285 43.4205 214.648 43.3139 214.935 43.1009C215.221 42.8878 215.365 42.554 215.365 42.0994V40.9915H215.294C215.232 41.0909 215.144 41.214 215.031 41.3608C214.92 41.5052 214.759 41.6342 214.548 41.7479C214.34 41.8591 214.058 41.9148 213.703 41.9148C213.262 41.9148 212.867 41.8106 212.517 41.6023C212.169 41.3939 211.893 41.0909 211.689 40.6932C211.488 40.2955 211.387 39.8125 211.387 39.2443C211.387 38.6856 211.486 38.1991 211.682 37.7848C211.879 37.3681 212.152 37.0462 212.502 36.8189C212.853 36.5893 213.258 36.4744 213.717 36.4744C214.072 36.4744 214.354 36.5336 214.562 36.652C214.773 36.768 214.934 36.9006 215.045 37.0497C215.159 37.1965 215.246 37.3172 215.308 37.4119H215.393V36.5455H216.203V42.1562C216.203 42.625 216.096 43.0062 215.883 43.2997C215.672 43.5956 215.388 43.8123 215.031 43.9496C214.676 44.0893 214.28 44.1591 213.845 44.1591ZM213.816 41.1619C214.152 41.1619 214.437 41.085 214.669 40.9311C214.901 40.7772 215.077 40.5559 215.198 40.267C215.318 39.9782 215.379 39.6326 215.379 39.2301C215.379 38.8371 215.32 38.4903 215.201 38.1896C215.083 37.889 214.908 37.6534 214.676 37.483C214.444 37.3125 214.157 37.2273 213.816 37.2273C213.461 37.2273 213.165 37.3172 212.929 37.4972C212.694 37.6771 212.518 37.9186 212.399 38.2216C212.283 38.5246 212.225 38.8608 212.225 39.2301C212.225 39.6089 212.285 39.9439 212.403 40.2351C212.524 40.5239 212.701 40.7512 212.936 40.9169C213.172 41.0803 213.466 41.1619 213.816 41.1619ZM177.048 54V48.5455H177.886V54H177.048ZM177.474 47.6364C177.311 47.6364 177.17 47.5807 177.052 47.4695C176.936 47.3582 176.878 47.2244 176.878 47.0682C176.878 46.9119 176.936 46.7782 177.052 46.6669C177.17 46.5556 177.311 46.5 177.474 46.5C177.638 46.5 177.777 46.5556 177.893 46.6669C178.012 46.7782 178.071 46.9119 178.071 47.0682C178.071 47.2244 178.012 47.3582 177.893 47.4695C177.777 47.5807 177.638 47.6364 177.474 47.6364ZM180.259 50.7188V54H179.421V48.5455H180.231V49.3977H180.302C180.43 49.1207 180.624 48.8982 180.884 48.7301C181.145 48.5597 181.481 48.4744 181.893 48.4744C182.262 48.4744 182.585 48.5502 182.862 48.7017C183.139 48.8509 183.355 49.0781 183.509 49.3835C183.663 49.6866 183.74 50.0701 183.74 50.5341V54H182.901V50.5909C182.901 50.1624 182.79 49.8286 182.568 49.5895C182.345 49.348 182.04 49.2273 181.651 49.2273C181.384 49.2273 181.145 49.2853 180.934 49.4013C180.726 49.5173 180.561 49.6866 180.441 49.9091C180.32 50.1316 180.259 50.4015 180.259 50.7188ZM187.7 48.5455V49.2557H184.76V48.5455H187.7ZM185.64 54V47.7926C185.64 47.4801 185.714 47.2197 185.86 47.0114C186.007 46.803 186.198 46.6468 186.432 46.5426C186.667 46.4384 186.914 46.3864 187.174 46.3864C187.38 46.3864 187.548 46.4029 187.679 46.4361C187.809 46.4692 187.906 46.5 187.97 46.5284L187.728 47.2528C187.686 47.2386 187.627 47.2209 187.551 47.1996C187.477 47.1783 187.38 47.1676 187.26 47.1676C186.983 47.1676 186.783 47.2375 186.659 47.3771C186.539 47.5168 186.478 47.7216 186.478 47.9915V54H185.64ZM190.866 54.1136C190.373 54.1136 189.941 53.9964 189.57 53.7621C189.2 53.5277 188.911 53.1998 188.703 52.7784C188.497 52.357 188.394 51.8646 188.394 51.3011C188.394 50.733 188.497 50.237 188.703 49.8132C188.911 49.3894 189.2 49.0604 189.57 48.826C189.941 48.5916 190.373 48.4744 190.866 48.4744C191.358 48.4744 191.789 48.5916 192.158 48.826C192.53 49.0604 192.819 49.3894 193.025 49.8132C193.233 50.237 193.337 50.733 193.337 51.3011C193.337 51.8646 193.233 52.357 193.025 52.7784C192.819 53.1998 192.53 53.5277 192.158 53.7621C191.789 53.9964 191.358 54.1136 190.866 54.1136ZM190.866 53.3608C191.24 53.3608 191.548 53.2649 191.789 53.0732C192.031 52.8814 192.209 52.6293 192.325 52.3168C192.441 52.0043 192.499 51.6657 192.499 51.3011C192.499 50.9366 192.441 50.5968 192.325 50.282C192.209 49.9671 192.031 49.7126 191.789 49.5185C191.548 49.3243 191.24 49.2273 190.866 49.2273C190.492 49.2273 190.184 49.3243 189.942 49.5185C189.701 49.7126 189.522 49.9671 189.406 50.282C189.29 50.5968 189.232 50.9366 189.232 51.3011C189.232 51.6657 189.29 52.0043 189.406 52.3168C189.522 52.6293 189.701 52.8814 189.942 53.0732C190.184 53.2649 190.492 53.3608 190.866 53.3608ZM194.617 54V48.5455H195.426V49.3693H195.483C195.583 49.0994 195.762 48.8804 196.023 48.7124C196.283 48.5443 196.577 48.4602 196.904 48.4602C196.965 48.4602 197.042 48.4614 197.134 48.4638C197.227 48.4661 197.297 48.4697 197.344 48.4744V49.3267C197.316 49.3196 197.25 49.3089 197.149 49.2947C197.049 49.2782 196.944 49.2699 196.833 49.2699C196.567 49.2699 196.331 49.3255 196.122 49.4368C195.916 49.5457 195.753 49.6972 195.632 49.8913C195.514 50.0831 195.455 50.3021 195.455 50.5483V54H194.617ZM198.337 54V48.5455H199.147V49.3977H199.218C199.332 49.1065 199.515 48.8804 199.768 48.7195C200.022 48.5561 200.326 48.4744 200.681 48.4744C201.041 48.4744 201.34 48.5561 201.58 48.7195C201.821 48.8804 202.009 49.1065 202.144 49.3977H202.201C202.341 49.116 202.55 48.8923 202.83 48.7266C203.109 48.5585 203.444 48.4744 203.835 48.4744C204.322 48.4744 204.721 48.6271 205.031 48.9325C205.341 49.2356 205.496 49.7079 205.496 50.3494V54H204.658V50.3494C204.658 49.947 204.548 49.6593 204.328 49.4865C204.108 49.3137 203.849 49.2273 203.55 49.2273C203.167 49.2273 202.87 49.3433 202.659 49.5753C202.448 49.8049 202.343 50.0961 202.343 50.4489V54H201.491V50.2642C201.491 49.9541 201.39 49.7043 201.189 49.5149C200.988 49.3232 200.728 49.2273 200.411 49.2273C200.193 49.2273 199.99 49.2853 199.8 49.4013C199.613 49.5173 199.462 49.6783 199.346 49.8842C199.232 50.0878 199.175 50.3234 199.175 50.5909V54H198.337ZM208.634 54.1278C208.288 54.1278 207.975 54.0627 207.693 53.9325C207.411 53.8 207.187 53.6094 207.022 53.3608C206.856 53.1098 206.773 52.8068 206.773 52.4517C206.773 52.1392 206.835 51.8859 206.958 51.6918C207.081 51.4953 207.245 51.3414 207.451 51.2301C207.657 51.1188 207.885 51.036 208.133 50.9815C208.384 50.9247 208.636 50.8797 208.89 50.8466C209.221 50.804 209.49 50.772 209.696 50.7507C209.904 50.727 210.056 50.688 210.15 50.6335C210.247 50.5791 210.296 50.4844 210.296 50.3494V50.321C210.296 49.9706 210.2 49.6984 210.008 49.5043C209.819 49.3101 209.531 49.2131 209.145 49.2131C208.745 49.2131 208.431 49.3007 208.204 49.4759C207.977 49.651 207.817 49.8381 207.725 50.0369L206.929 49.7528C207.071 49.4214 207.261 49.1634 207.498 48.9787C207.737 48.7917 207.997 48.6615 208.279 48.5881C208.563 48.5123 208.842 48.4744 209.117 48.4744C209.292 48.4744 209.493 48.4957 209.721 48.5384C209.95 48.5786 210.172 48.6626 210.385 48.7905C210.6 48.9183 210.779 49.1113 210.921 49.3693C211.063 49.6274 211.134 49.973 211.134 50.4062V54H210.296V53.2614H210.253C210.196 53.3797 210.102 53.5064 209.969 53.6413C209.837 53.7763 209.66 53.8911 209.44 53.9858C209.22 54.0805 208.951 54.1278 208.634 54.1278ZM208.762 53.375C209.093 53.375 209.373 53.3099 209.6 53.1797C209.829 53.0495 210.002 52.8814 210.118 52.6754C210.237 52.4695 210.296 52.2528 210.296 52.0256V51.2585C210.26 51.3011 210.182 51.3402 210.061 51.3757C209.943 51.4089 209.806 51.4384 209.65 51.4645C209.496 51.4882 209.345 51.5095 209.199 51.5284C209.054 51.545 208.937 51.5592 208.847 51.571C208.629 51.5994 208.426 51.6456 208.236 51.7095C208.049 51.7711 207.898 51.8646 207.782 51.9901C207.668 52.1132 207.611 52.2812 207.611 52.4943C207.611 52.7855 207.719 53.0057 207.934 53.1548C208.152 53.3016 208.428 53.375 208.762 53.375ZM215.036 48.5455V49.2557H212.209V48.5455H215.036ZM213.033 47.2386H213.871V52.4375C213.871 52.6742 213.905 52.8518 213.974 52.9702C214.045 53.0862 214.135 53.1643 214.244 53.2045C214.355 53.2424 214.472 53.2614 214.595 53.2614C214.688 53.2614 214.763 53.2566 214.823 53.2472C214.882 53.2353 214.929 53.2259 214.965 53.2188L215.135 53.9716C215.078 53.9929 214.999 54.0142 214.897 54.0355C214.795 54.0592 214.666 54.071 214.51 54.071C214.273 54.071 214.041 54.0201 213.814 53.9183C213.589 53.8165 213.402 53.6615 213.253 53.4531C213.106 53.2448 213.033 52.982 213.033 52.6648V47.2386ZM216.296 54V48.5455H217.134V54H216.296ZM216.722 47.6364C216.559 47.6364 216.418 47.5807 216.3 47.4695C216.184 47.3582 216.126 47.2244 216.126 47.0682C216.126 46.9119 216.184 46.7782 216.3 46.6669C216.418 46.5556 216.559 46.5 216.722 46.5C216.886 46.5 217.026 46.5556 217.142 46.6669C217.26 46.7782 217.319 46.9119 217.319 47.0682C217.319 47.2244 217.26 47.3582 217.142 47.4695C217.026 47.5807 216.886 47.6364 216.722 47.6364ZM220.885 54.1136C220.393 54.1136 219.961 53.9964 219.589 53.7621C219.22 53.5277 218.931 53.1998 218.723 52.7784C218.517 52.357 218.414 51.8646 218.414 51.3011C218.414 50.733 218.517 50.237 218.723 49.8132C218.931 49.3894 219.22 49.0604 219.589 48.826C219.961 48.5916 220.393 48.4744 220.885 48.4744C221.378 48.4744 221.809 48.5916 222.178 48.826C222.55 49.0604 222.838 49.3894 223.044 49.8132C223.253 50.237 223.357 50.733 223.357 51.3011C223.357 51.8646 223.253 52.357 223.044 52.7784C222.838 53.1998 222.55 53.5277 222.178 53.7621C221.809 53.9964 221.378 54.1136 220.885 54.1136ZM220.885 53.3608C221.259 53.3608 221.567 53.2649 221.809 53.0732C222.05 52.8814 222.229 52.6293 222.345 52.3168C222.461 52.0043 222.519 51.6657 222.519 51.3011C222.519 50.9366 222.461 50.5968 222.345 50.282C222.229 49.9671 222.05 49.7126 221.809 49.5185C221.567 49.3243 221.259 49.2273 220.885 49.2273C220.511 49.2273 220.203 49.3243 219.962 49.5185C219.721 49.7126 219.542 49.9671 219.426 50.282C219.31 50.5968 219.252 50.9366 219.252 51.3011C219.252 51.6657 219.31 52.0043 219.426 52.3168C219.542 52.6293 219.721 52.8814 219.962 53.0732C220.203 53.2649 220.511 53.3608 220.885 53.3608ZM225.474 50.7188V54H224.636V48.5455H225.446V49.3977H225.517C225.645 49.1207 225.839 48.8982 226.099 48.7301C226.36 48.5597 226.696 48.4744 227.108 48.4744C227.477 48.4744 227.8 48.5502 228.077 48.7017C228.354 48.8509 228.57 49.0781 228.724 49.3835C228.877 49.6866 228.954 50.0701 228.954 50.5341V54H228.116V50.5909C228.116 50.1624 228.005 49.8286 227.782 49.5895C227.56 49.348 227.255 49.2273 226.866 49.2273C226.599 49.2273 226.36 49.2853 226.149 49.4013C225.941 49.5173 225.776 49.6866 225.655 49.9091C225.535 50.1316 225.474 50.4015 225.474 50.7188Z" fill="white"/>
<path d="M293.395 37H292.514C292.462 36.7467 292.371 36.5241 292.241 36.3324C292.113 36.1406 291.957 35.9796 291.772 35.8494C291.59 35.7169 291.387 35.6174 291.165 35.5511C290.942 35.4848 290.71 35.4517 290.469 35.4517C290.029 35.4517 289.63 35.563 289.272 35.7855C288.917 36.008 288.634 36.3359 288.423 36.7692C288.215 37.2024 288.111 37.7339 288.111 38.3636C288.111 38.9934 288.215 39.5249 288.423 39.9581C288.634 40.3913 288.917 40.7192 289.272 40.9418C289.63 41.1643 290.029 41.2756 290.469 41.2756C290.71 41.2756 290.942 41.2424 291.165 41.1761C291.387 41.1098 291.59 41.0116 291.772 40.8814C291.957 40.7488 292.113 40.5866 292.241 40.3949C292.371 40.2008 292.462 39.9782 292.514 39.7273H293.395C293.329 40.099 293.208 40.4316 293.033 40.7251C292.858 41.0187 292.64 41.2685 292.379 41.4744C292.119 41.678 291.827 41.8331 291.502 41.9396C291.18 42.0462 290.836 42.0994 290.469 42.0994C289.849 42.0994 289.297 41.9479 288.814 41.6449C288.331 41.3419 287.951 40.911 287.674 40.3523C287.397 39.7936 287.259 39.1307 287.259 38.3636C287.259 37.5966 287.397 36.9337 287.674 36.375C287.951 35.8163 288.331 35.3854 288.814 35.0824C289.297 34.7794 289.849 34.6278 290.469 34.6278C290.836 34.6278 291.18 34.6811 291.502 34.7876C291.827 34.8942 292.119 35.0504 292.379 35.2564C292.64 35.46 292.858 35.7086 293.033 36.0021C293.208 36.2933 293.329 36.6259 293.395 37ZM296.31 42.1278C295.964 42.1278 295.65 42.0627 295.369 41.9325C295.087 41.8 294.863 41.6094 294.697 41.3608C294.532 41.1098 294.449 40.8068 294.449 40.4517C294.449 40.1392 294.51 39.8859 294.634 39.6918C294.757 39.4953 294.921 39.3414 295.127 39.2301C295.333 39.1188 295.56 39.036 295.809 38.9815C296.06 38.9247 296.312 38.8797 296.565 38.8466C296.897 38.804 297.165 38.772 297.371 38.7507C297.58 38.727 297.731 38.688 297.826 38.6335C297.923 38.5791 297.972 38.4844 297.972 38.3494V38.321C297.972 37.9706 297.876 37.6984 297.684 37.5043C297.495 37.3101 297.207 37.2131 296.821 37.2131C296.421 37.2131 296.107 37.3007 295.88 37.4759C295.653 37.651 295.493 37.8381 295.401 38.0369L294.605 37.7528C294.747 37.4214 294.937 37.1634 295.173 36.9787C295.412 36.7917 295.673 36.6615 295.955 36.5881C296.239 36.5123 296.518 36.4744 296.793 36.4744C296.968 36.4744 297.169 36.4957 297.396 36.5384C297.626 36.5786 297.847 36.6626 298.06 36.7905C298.276 36.9183 298.455 37.1113 298.597 37.3693C298.739 37.6274 298.81 37.973 298.81 38.4062V42H297.972V41.2614H297.929C297.872 41.3797 297.777 41.5064 297.645 41.6413C297.512 41.7763 297.336 41.8911 297.116 41.9858C296.896 42.0805 296.627 42.1278 296.31 42.1278ZM296.438 41.375C296.769 41.375 297.048 41.3099 297.276 41.1797C297.505 41.0495 297.678 40.8814 297.794 40.6754C297.912 40.4695 297.972 40.2528 297.972 40.0256V39.2585C297.936 39.3011 297.858 39.3402 297.737 39.3757C297.619 39.4089 297.482 39.4384 297.325 39.4645C297.171 39.4882 297.021 39.5095 296.874 39.5284C296.73 39.545 296.613 39.5592 296.523 39.571C296.305 39.5994 296.101 39.6456 295.912 39.7095C295.725 39.7711 295.573 39.8646 295.457 39.9901C295.344 40.1132 295.287 40.2812 295.287 40.4943C295.287 40.7855 295.395 41.0057 295.61 41.1548C295.828 41.3016 296.104 41.375 296.438 41.375ZM300.339 42V36.5455H301.149V37.3693H301.206C301.305 37.0994 301.485 36.8804 301.746 36.7124C302.006 36.5443 302.3 36.4602 302.626 36.4602C302.688 36.4602 302.765 36.4614 302.857 36.4638C302.949 36.4661 303.019 36.4697 303.067 36.4744V37.3267C303.038 37.3196 302.973 37.3089 302.871 37.2947C302.772 37.2782 302.666 37.2699 302.555 37.2699C302.29 37.2699 302.053 37.3255 301.845 37.4368C301.639 37.5457 301.476 37.6972 301.355 37.8913C301.237 38.0831 301.177 38.3021 301.177 38.5483V42H300.339ZM305.954 42.1136C305.499 42.1136 305.098 41.9988 304.75 41.7692C304.402 41.5372 304.13 41.2105 303.933 40.7891C303.737 40.3653 303.638 39.8646 303.638 39.2869C303.638 38.714 303.737 38.2169 303.933 37.7955C304.13 37.3741 304.403 37.0485 304.753 36.8189C305.104 36.5893 305.509 36.4744 305.968 36.4744C306.323 36.4744 306.604 36.5336 306.809 36.652C307.018 36.768 307.176 36.9006 307.285 37.0497C307.397 37.1965 307.483 37.3172 307.545 37.4119H307.616V34.7273H308.454V42H307.644V41.1619H307.545C307.483 41.2614 307.395 41.3868 307.282 41.5384C307.168 41.6875 307.006 41.8213 306.795 41.9396C306.585 42.0556 306.304 42.1136 305.954 42.1136ZM306.067 41.3608C306.403 41.3608 306.688 41.2732 306.92 41.098C307.152 40.9205 307.328 40.6754 307.449 40.3629C307.569 40.0481 307.63 39.6847 307.63 39.2727C307.63 38.8655 307.571 38.5092 307.452 38.2038C307.334 37.8961 307.159 37.657 306.927 37.4865C306.695 37.3137 306.408 37.2273 306.067 37.2273C305.712 37.2273 305.416 37.3184 305.18 37.5007C304.945 37.6806 304.769 37.9257 304.65 38.2358C304.534 38.5436 304.476 38.8892 304.476 39.2727C304.476 39.661 304.536 40.0137 304.654 40.331C304.775 40.6458 304.952 40.8968 305.187 41.0838C305.423 41.2685 305.717 41.3608 306.067 41.3608ZM272.048 54V48.5455H272.886V54H272.048ZM272.474 47.6364C272.311 47.6364 272.17 47.5807 272.052 47.4695C271.936 47.3582 271.878 47.2244 271.878 47.0682C271.878 46.9119 271.936 46.7782 272.052 46.6669C272.17 46.5556 272.311 46.5 272.474 46.5C272.638 46.5 272.777 46.5556 272.893 46.6669C273.012 46.7782 273.071 46.9119 273.071 47.0682C273.071 47.2244 273.012 47.3582 272.893 47.4695C272.777 47.5807 272.638 47.6364 272.474 47.6364ZM275.259 50.7188V54H274.421V48.5455H275.231V49.3977H275.302C275.43 49.1207 275.624 48.8982 275.884 48.7301C276.145 48.5597 276.481 48.4744 276.893 48.4744C277.262 48.4744 277.585 48.5502 277.862 48.7017C278.139 48.8509 278.355 49.0781 278.509 49.3835C278.663 49.6866 278.74 50.0701 278.74 50.5341V54H277.901V50.5909C277.901 50.1624 277.79 49.8286 277.568 49.5895C277.345 49.348 277.04 49.2273 276.651 49.2273C276.384 49.2273 276.145 49.2853 275.934 49.4013C275.726 49.5173 275.561 49.6866 275.441 49.9091C275.32 50.1316 275.259 50.4015 275.259 50.7188ZM282.7 48.5455V49.2557H279.76V48.5455H282.7ZM280.64 54V47.7926C280.64 47.4801 280.714 47.2197 280.86 47.0114C281.007 46.803 281.198 46.6468 281.432 46.5426C281.667 46.4384 281.914 46.3864 282.174 46.3864C282.38 46.3864 282.548 46.4029 282.679 46.4361C282.809 46.4692 282.906 46.5 282.97 46.5284L282.728 47.2528C282.686 47.2386 282.627 47.2209 282.551 47.1996C282.477 47.1783 282.38 47.1676 282.26 47.1676C281.983 47.1676 281.783 47.2375 281.659 47.3771C281.539 47.5168 281.478 47.7216 281.478 47.9915V54H280.64ZM285.866 54.1136C285.373 54.1136 284.941 53.9964 284.57 53.7621C284.2 53.5277 283.911 53.1998 283.703 52.7784C283.497 52.357 283.394 51.8646 283.394 51.3011C283.394 50.733 283.497 50.237 283.703 49.8132C283.911 49.3894 284.2 49.0604 284.57 48.826C284.941 48.5916 285.373 48.4744 285.866 48.4744C286.358 48.4744 286.789 48.5916 287.158 48.826C287.53 49.0604 287.819 49.3894 288.025 49.8132C288.233 50.237 288.337 50.733 288.337 51.3011C288.337 51.8646 288.233 52.357 288.025 52.7784C287.819 53.1998 287.53 53.5277 287.158 53.7621C286.789 53.9964 286.358 54.1136 285.866 54.1136ZM285.866 53.3608C286.24 53.3608 286.548 53.2649 286.789 53.0732C287.031 52.8814 287.209 52.6293 287.325 52.3168C287.441 52.0043 287.499 51.6657 287.499 51.3011C287.499 50.9366 287.441 50.5968 287.325 50.282C287.209 49.9671 287.031 49.7126 286.789 49.5185C286.548 49.3243 286.24 49.2273 285.866 49.2273C285.492 49.2273 285.184 49.3243 284.942 49.5185C284.701 49.7126 284.522 49.9671 284.406 50.282C284.29 50.5968 284.232 50.9366 284.232 51.3011C284.232 51.6657 284.29 52.0043 284.406 52.3168C284.522 52.6293 284.701 52.8814 284.942 53.0732C285.184 53.2649 285.492 53.3608 285.866 53.3608ZM289.617 54V48.5455H290.426V49.3693H290.483C290.583 49.0994 290.762 48.8804 291.023 48.7124C291.283 48.5443 291.577 48.4602 291.904 48.4602C291.965 48.4602 292.042 48.4614 292.134 48.4638C292.227 48.4661 292.297 48.4697 292.344 48.4744V49.3267C292.316 49.3196 292.25 49.3089 292.149 49.2947C292.049 49.2782 291.944 49.2699 291.833 49.2699C291.567 49.2699 291.331 49.3255 291.122 49.4368C290.916 49.5457 290.753 49.6972 290.632 49.8913C290.514 50.0831 290.455 50.3021 290.455 50.5483V54H289.617ZM293.337 54V48.5455H294.147V49.3977H294.218C294.332 49.1065 294.515 48.8804 294.768 48.7195C295.022 48.5561 295.326 48.4744 295.681 48.4744C296.041 48.4744 296.34 48.5561 296.58 48.7195C296.821 48.8804 297.009 49.1065 297.144 49.3977H297.201C297.341 49.116 297.55 48.8923 297.83 48.7266C298.109 48.5585 298.444 48.4744 298.835 48.4744C299.322 48.4744 299.721 48.6271 300.031 48.9325C300.341 49.2356 300.496 49.7079 300.496 50.3494V54H299.658V50.3494C299.658 49.947 299.548 49.6593 299.328 49.4865C299.108 49.3137 298.849 49.2273 298.55 49.2273C298.167 49.2273 297.87 49.3433 297.659 49.5753C297.448 49.8049 297.343 50.0961 297.343 50.4489V54H296.491V50.2642C296.491 49.9541 296.39 49.7043 296.189 49.5149C295.988 49.3232 295.728 49.2273 295.411 49.2273C295.193 49.2273 294.99 49.2853 294.8 49.4013C294.613 49.5173 294.462 49.6783 294.346 49.8842C294.232 50.0878 294.175 50.3234 294.175 50.5909V54H293.337ZM303.634 54.1278C303.288 54.1278 302.975 54.0627 302.693 53.9325C302.411 53.8 302.187 53.6094 302.022 53.3608C301.856 53.1098 301.773 52.8068 301.773 52.4517C301.773 52.1392 301.835 51.8859 301.958 51.6918C302.081 51.4953 302.245 51.3414 302.451 51.2301C302.657 51.1188 302.885 51.036 303.133 50.9815C303.384 50.9247 303.636 50.8797 303.89 50.8466C304.221 50.804 304.49 50.772 304.696 50.7507C304.904 50.727 305.056 50.688 305.15 50.6335C305.247 50.5791 305.296 50.4844 305.296 50.3494V50.321C305.296 49.9706 305.2 49.6984 305.008 49.5043C304.819 49.3101 304.531 49.2131 304.145 49.2131C303.745 49.2131 303.431 49.3007 303.204 49.4759C302.977 49.651 302.817 49.8381 302.725 50.0369L301.929 49.7528C302.071 49.4214 302.261 49.1634 302.498 48.9787C302.737 48.7917 302.997 48.6615 303.279 48.5881C303.563 48.5123 303.842 48.4744 304.117 48.4744C304.292 48.4744 304.493 48.4957 304.721 48.5384C304.95 48.5786 305.172 48.6626 305.385 48.7905C305.6 48.9183 305.779 49.1113 305.921 49.3693C306.063 49.6274 306.134 49.973 306.134 50.4062V54H305.296V53.2614H305.253C305.196 53.3797 305.102 53.5064 304.969 53.6413C304.837 53.7763 304.66 53.8911 304.44 53.9858C304.22 54.0805 303.951 54.1278 303.634 54.1278ZM303.762 53.375C304.093 53.375 304.373 53.3099 304.6 53.1797C304.829 53.0495 305.002 52.8814 305.118 52.6754C305.237 52.4695 305.296 52.2528 305.296 52.0256V51.2585C305.26 51.3011 305.182 51.3402 305.061 51.3757C304.943 51.4089 304.806 51.4384 304.65 51.4645C304.496 51.4882 304.345 51.5095 304.199 51.5284C304.054 51.545 303.937 51.5592 303.847 51.571C303.629 51.5994 303.426 51.6456 303.236 51.7095C303.049 51.7711 302.898 51.8646 302.782 51.9901C302.668 52.1132 302.611 52.2812 302.611 52.4943C302.611 52.7855 302.719 53.0057 302.934 53.1548C303.152 53.3016 303.428 53.375 303.762 53.375ZM310.036 48.5455V49.2557H307.209V48.5455H310.036ZM308.033 47.2386H308.871V52.4375C308.871 52.6742 308.905 52.8518 308.974 52.9702C309.045 53.0862 309.135 53.1643 309.244 53.2045C309.355 53.2424 309.472 53.2614 309.595 53.2614C309.688 53.2614 309.763 53.2566 309.823 53.2472C309.882 53.2353 309.929 53.2259 309.965 53.2188L310.135 53.9716C310.078 53.9929 309.999 54.0142 309.897 54.0355C309.795 54.0592 309.666 54.071 309.51 54.071C309.273 54.071 309.041 54.0201 308.814 53.9183C308.589 53.8165 308.402 53.6615 308.253 53.4531C308.106 53.2448 308.033 52.982 308.033 52.6648V47.2386ZM311.296 54V48.5455H312.134V54H311.296ZM311.722 47.6364C311.559 47.6364 311.418 47.5807 311.3 47.4695C311.184 47.3582 311.126 47.2244 311.126 47.0682C311.126 46.9119 311.184 46.7782 311.3 46.6669C311.418 46.5556 311.559 46.5 311.722 46.5C311.886 46.5 312.026 46.5556 312.142 46.6669C312.26 46.7782 312.319 46.9119 312.319 47.0682C312.319 47.2244 312.26 47.3582 312.142 47.4695C312.026 47.5807 311.886 47.6364 311.722 47.6364ZM315.885 54.1136C315.393 54.1136 314.961 53.9964 314.589 53.7621C314.22 53.5277 313.931 53.1998 313.723 52.7784C313.517 52.357 313.414 51.8646 313.414 51.3011C313.414 50.733 313.517 50.237 313.723 49.8132C313.931 49.3894 314.22 49.0604 314.589 48.826C314.961 48.5916 315.393 48.4744 315.885 48.4744C316.378 48.4744 316.809 48.5916 317.178 48.826C317.55 49.0604 317.838 49.3894 318.044 49.8132C318.253 50.237 318.357 50.733 318.357 51.3011C318.357 51.8646 318.253 52.357 318.044 52.7784C317.838 53.1998 317.55 53.5277 317.178 53.7621C316.809 53.9964 316.378 54.1136 315.885 54.1136ZM315.885 53.3608C316.259 53.3608 316.567 53.2649 316.809 53.0732C317.05 52.8814 317.229 52.6293 317.345 52.3168C317.461 52.0043 317.519 51.6657 317.519 51.3011C317.519 50.9366 317.461 50.5968 317.345 50.282C317.229 49.9671 317.05 49.7126 316.809 49.5185C316.567 49.3243 316.259 49.2273 315.885 49.2273C315.511 49.2273 315.203 49.3243 314.962 49.5185C314.721 49.7126 314.542 49.9671 314.426 50.282C314.31 50.5968 314.252 50.9366 314.252 51.3011C314.252 51.6657 314.31 52.0043 314.426 52.3168C314.542 52.6293 314.721 52.8814 314.962 53.0732C315.203 53.2649 315.511 53.3608 315.885 53.3608ZM320.474 50.7188V54H319.636V48.5455H320.446V49.3977H320.517C320.645 49.1207 320.839 48.8982 321.099 48.7301C321.36 48.5597 321.696 48.4744 322.108 48.4744C322.477 48.4744 322.8 48.5502 323.077 48.7017C323.354 48.8509 323.57 49.0781 323.724 49.3835C323.877 49.6866 323.954 50.0701 323.954 50.5341V54H323.116V50.5909C323.116 50.1624 323.005 49.8286 322.782 49.5895C322.56 49.348 322.255 49.2273 321.866 49.2273C321.599 49.2273 321.36 49.2853 321.149 49.4013C320.941 49.5173 320.776 49.6866 320.655 49.9091C320.535 50.1316 320.474 50.4015 320.474 50.7188Z" fill="white"/>
<line x1="28" y1="14.5" x2="94" y2="14.5" stroke="#FAFAFA"/>
<line x1="123" y1="14.5" x2="189" y2="14.5" stroke="#FAFAFA"/>
<line x1="218" y1="14.5" x2="284" y2="14.5" stroke="#FAFAFA"/>
<path d="M203.136 20.1591C202.386 20.1591 201.718 20.0303 201.131 19.7727C200.547 19.5152 200.083 19.1572 199.739 18.6989C199.398 18.2367 199.212 17.7008 199.182 17.0909H200.614C200.644 17.4659 200.773 17.7898 201 18.0625C201.227 18.3314 201.525 18.5398 201.892 18.6875C202.259 18.8352 202.667 18.9091 203.114 18.9091C203.614 18.9091 204.057 18.822 204.443 18.6477C204.83 18.4735 205.133 18.2311 205.352 17.9205C205.572 17.6098 205.682 17.25 205.682 16.8409C205.682 16.4129 205.576 16.036 205.364 15.7102C205.152 15.3807 204.841 15.1231 204.432 14.9375C204.023 14.7519 203.523 14.6591 202.932 14.6591H202V13.4091H202.932C203.394 13.4091 203.799 13.3258 204.148 13.1591C204.5 12.9924 204.775 12.7576 204.972 12.4545C205.172 12.1515 205.273 11.7955 205.273 11.3864C205.273 10.9924 205.186 10.6496 205.011 10.358C204.837 10.0663 204.591 9.83901 204.273 9.67614C203.958 9.51326 203.587 9.43182 203.159 9.43182C202.758 9.43182 202.379 9.50568 202.023 9.65341C201.67 9.79735 201.383 10.0076 201.159 10.2841C200.936 10.5568 200.814 10.8864 200.795 11.2727H199.432C199.455 10.6629 199.638 10.1288 199.983 9.67045C200.328 9.20833 200.778 8.84848 201.335 8.59091C201.896 8.33333 202.511 8.20455 203.182 8.20455C203.902 8.20455 204.519 8.35038 205.034 8.64205C205.549 8.92992 205.945 9.31061 206.222 9.78409C206.498 10.2576 206.636 10.7689 206.636 11.3182C206.636 11.9735 206.464 12.5322 206.119 12.9943C205.778 13.4564 205.314 13.7765 204.727 13.9545V14.0455C205.462 14.1667 206.036 14.4792 206.449 14.983C206.862 15.483 207.068 16.1023 207.068 16.8409C207.068 17.4735 206.896 18.0417 206.551 18.5455C206.21 19.0455 205.744 19.4394 205.153 19.7273C204.563 20.0152 203.89 20.1591 203.136 20.1591Z" fill="#FAFAFA"/>
<path d="M293.932 17.6136V16.4545L299.045 8.36364H299.886V10.1591H299.318L295.455 16.2727V16.3636H302.341V17.6136H293.932ZM299.409 20V17.2614V16.7216V8.36364H300.75V20H299.409Z" fill="#FAFAFA"/>
</svg>
