<svg width="421" height="57" viewBox="0 0 421 57" fill="none" xmlns="http://www.w3.org/2000/svg">
<circle cx="28.4837" cy="13.5492" r="13.0492" fill="#61F180" fill-opacity="0.25" stroke="#EFEFEF"/>
<circle cx="116.32" cy="13.5492" r="13.0492" fill="#61F180" fill-opacity="0.25" stroke="#FAFAFA"/>
<circle cx="205.09" cy="13.5492" r="13.0492" fill="#61F180" fill-opacity="0.25" stroke="#FAFAFA"/>
<circle cx="293.861" cy="13.5492" r="13.0492" fill="#61F180" fill-opacity="0.25" stroke="#FAFAFA"/>
<circle cx="382.222" cy="13.5492" r="13.0492" fill="#61F180" fill-opacity="0.25" stroke="#FAFAFA"/>
<path d="M32.4418 10.2504C32.5056 10.1854 32.5817 10.1337 32.6657 10.0984C32.7497 10.0631 32.8399 10.0449 32.931 10.0449C33.0221 10.0449 33.1123 10.0631 33.1963 10.0984C33.2803 10.1337 33.3564 10.1854 33.4202 10.2504C33.6874 10.5205 33.6912 10.9569 33.4295 11.2316L27.9043 17.7632C27.8415 17.8321 27.7654 17.8875 27.6805 17.9259C27.5957 17.9644 27.5038 17.9851 27.4107 17.9869C27.3175 17.9886 27.225 17.9713 27.1388 17.9361C27.0525 17.9009 26.9744 17.8484 26.9091 17.7819L23.547 14.375C23.4174 14.2428 23.3447 14.0649 23.3447 13.8797C23.3447 13.6945 23.4174 13.5167 23.547 13.3845C23.6108 13.3194 23.6869 13.2677 23.7709 13.2325C23.8549 13.1972 23.9451 13.179 24.0362 13.179C24.1273 13.179 24.2175 13.1972 24.3015 13.2325C24.3855 13.2677 24.4616 13.3194 24.5254 13.3845L27.3772 16.2747L32.4231 10.271C32.4289 10.2638 32.4352 10.2569 32.4418 10.2504Z" fill="#FAFAFA"/>
<path d="M120.901 10.2504C120.965 10.1854 121.041 10.1337 121.125 10.0984C121.209 10.0631 121.299 10.0449 121.39 10.0449C121.481 10.0449 121.571 10.0631 121.655 10.0984C121.739 10.1337 121.815 10.1854 121.879 10.2504C122.146 10.5205 122.15 10.9569 121.888 11.2316L116.363 17.7632C116.301 17.8321 116.224 17.8875 116.14 17.9259C116.055 17.9644 115.963 17.9851 115.87 17.9869C115.777 17.9886 115.684 17.9713 115.598 17.9361C115.511 17.9009 115.433 17.8484 115.368 17.7819L112.006 14.375C111.876 14.2428 111.804 14.0649 111.804 13.8797C111.804 13.6945 111.876 13.5167 112.006 13.3845C112.07 13.3194 112.146 13.2677 112.23 13.2325C112.314 13.1972 112.404 13.179 112.495 13.179C112.586 13.179 112.676 13.1972 112.76 13.2325C112.844 13.2677 112.921 13.3194 112.984 13.3845L115.836 16.2747L120.882 10.271C120.888 10.2638 120.894 10.2569 120.901 10.2504Z" fill="#FAFAFA"/>
<path d="M209.901 10.2504C209.965 10.1854 210.041 10.1337 210.125 10.0984C210.209 10.0631 210.299 10.0449 210.39 10.0449C210.481 10.0449 210.571 10.0631 210.655 10.0984C210.739 10.1337 210.815 10.1854 210.879 10.2504C211.146 10.5205 211.15 10.9569 210.888 11.2316L205.363 17.7632C205.301 17.8321 205.224 17.8875 205.14 17.9259C205.055 17.9644 204.963 17.9851 204.87 17.9869C204.777 17.9886 204.684 17.9713 204.598 17.9361C204.511 17.9009 204.433 17.8484 204.368 17.7819L201.006 14.375C200.876 14.2428 200.804 14.0649 200.804 13.8797C200.804 13.6945 200.876 13.5167 201.006 13.3845C201.07 13.3194 201.146 13.2677 201.23 13.2325C201.314 13.1972 201.404 13.179 201.495 13.179C201.586 13.179 201.676 13.1972 201.76 13.2325C201.844 13.2677 201.921 13.3194 201.984 13.3845L204.836 16.2747L209.882 10.271C209.888 10.2638 209.894 10.2569 209.901 10.2504Z" fill="#FAFAFA"/>
<path d="M297.901 10.2504C297.965 10.1854 298.041 10.1337 298.125 10.0984C298.209 10.0631 298.299 10.0449 298.39 10.0449C298.481 10.0449 298.571 10.0631 298.655 10.0984C298.739 10.1337 298.815 10.1854 298.879 10.2504C299.146 10.5205 299.15 10.9569 298.888 11.2316L293.363 17.7632C293.301 17.8321 293.224 17.8875 293.14 17.9259C293.055 17.9644 292.963 17.9851 292.87 17.9869C292.777 17.9886 292.684 17.9713 292.598 17.9361C292.511 17.9009 292.433 17.8484 292.368 17.7819L289.006 14.375C288.876 14.2428 288.804 14.0649 288.804 13.8797C288.804 13.6945 288.876 13.5167 289.006 13.3845C289.07 13.3194 289.146 13.2677 289.23 13.2325C289.314 13.1972 289.404 13.179 289.495 13.179C289.586 13.179 289.676 13.1972 289.76 13.2325C289.844 13.2677 289.921 13.3194 289.984 13.3845L292.836 16.2747L297.882 10.271C297.888 10.2638 297.894 10.2569 297.901 10.2504Z" fill="#FAFAFA"/>
<path d="M386.901 10.2504C386.965 10.1854 387.041 10.1337 387.125 10.0984C387.209 10.0631 387.299 10.0449 387.39 10.0449C387.481 10.0449 387.571 10.0631 387.655 10.0984C387.739 10.1337 387.815 10.1854 387.879 10.2504C388.146 10.5205 388.15 10.9569 387.888 11.2316L382.363 17.7632C382.301 17.8321 382.224 17.8875 382.14 17.9259C382.055 17.9644 381.963 17.9851 381.87 17.9869C381.777 17.9886 381.684 17.9713 381.598 17.9361C381.511 17.9009 381.433 17.8484 381.368 17.7819L378.006 14.375C377.876 14.2428 377.804 14.0649 377.804 13.8797C377.804 13.6945 377.876 13.5167 378.006 13.3845C378.07 13.3194 378.146 13.2677 378.23 13.2325C378.314 13.1972 378.404 13.179 378.495 13.179C378.586 13.179 378.676 13.1972 378.76 13.2325C378.844 13.2677 378.921 13.3194 378.984 13.3845L381.836 16.2747L386.882 10.271C386.888 10.2638 386.894 10.2569 386.901 10.2504Z" fill="#FAFAFA"/>
<line x1="41.0981" y1="13.5166" x2="102.77" y2="13.5166" stroke="#FAFAFA"/>
<line x1="129.869" y1="13.5166" x2="191.541" y2="13.5166" stroke="#FAFAFA"/>
<line x1="218.639" y1="13.5166" x2="280.311" y2="13.5166" stroke="#FAFAFA"/>
<line x1="307" y1="13.5166" x2="368.672" y2="13.5166" stroke="#FAFAFA"/>
<path d="M14.147 36.5455C14.1044 36.1856 13.9316 35.9062 13.6286 35.7074C13.3255 35.5085 12.9538 35.4091 12.5135 35.4091C12.1915 35.4091 11.9098 35.4612 11.6683 35.5653C11.4292 35.6695 11.2422 35.8127 11.1072 35.995C10.9747 36.1773 10.9084 36.3845 10.9084 36.6165C10.9084 36.8106 10.9545 36.9775 11.0469 37.1172C11.1416 37.2545 11.2623 37.3693 11.4091 37.4616C11.5559 37.5516 11.7098 37.6262 11.8707 37.6854C12.0317 37.7422 12.1797 37.7884 12.3146 37.8239L13.0533 38.0227C13.2427 38.0724 13.4534 38.1411 13.6854 38.2287C13.9197 38.3163 14.1435 38.4358 14.3565 38.5874C14.572 38.7365 14.7495 38.9283 14.8892 39.1626C15.0289 39.397 15.0987 39.6847 15.0987 40.0256C15.0987 40.4186 14.9957 40.7737 14.7898 41.0909C14.5862 41.4081 14.2879 41.6603 13.8949 41.8473C13.5043 42.0343 13.0296 42.1278 12.4709 42.1278C11.95 42.1278 11.4991 42.0438 11.1179 41.8757C10.7391 41.7076 10.4408 41.4732 10.223 41.1726C10.0076 40.8719 9.88565 40.5227 9.85724 40.125H10.7663C10.79 40.3996 10.8823 40.6269 11.0433 40.8068C11.2067 40.9844 11.4126 41.117 11.6612 41.2045C11.9122 41.2898 12.1821 41.3324 12.4709 41.3324C12.8071 41.3324 13.1089 41.2779 13.3764 41.169C13.6439 41.0578 13.8558 40.9039 14.0121 40.7074C14.1683 40.5085 14.2464 40.2765 14.2464 40.0114C14.2464 39.7699 14.179 39.5734 14.044 39.4219C13.9091 39.2704 13.7315 39.1473 13.5114 39.0526C13.2912 38.9579 13.0533 38.875 12.7976 38.804L11.9027 38.5483C11.3345 38.3849 10.8847 38.1518 10.5533 37.8487C10.2218 37.5457 10.0561 37.1491 10.0561 36.6591C10.0561 36.2519 10.1662 35.8968 10.3864 35.5938C10.6089 35.2884 10.9072 35.0516 11.2812 34.8835C11.6577 34.7131 12.0779 34.6278 12.5419 34.6278C13.0107 34.6278 13.4273 34.7119 13.7919 34.88C14.1565 35.0457 14.4453 35.273 14.6584 35.5618C14.8738 35.8506 14.9875 36.1785 14.9993 36.5455H14.147ZM18.72 42.1136C18.1944 42.1136 17.7411 41.9976 17.3599 41.7656C16.9811 41.5312 16.6887 41.2045 16.4828 40.7855C16.2792 40.3641 16.1774 39.8741 16.1774 39.3153C16.1774 38.7566 16.2792 38.2642 16.4828 37.8381C16.6887 37.4096 16.9752 37.0758 17.3422 36.8366C17.7115 36.5952 18.1423 36.4744 18.6348 36.4744C18.9189 36.4744 19.1994 36.5218 19.4764 36.6165C19.7534 36.7112 20.0055 36.8651 20.2328 37.0781C20.46 37.2888 20.6412 37.5682 20.7761 37.9162C20.911 38.2642 20.9785 38.6927 20.9785 39.2017V39.5568H16.774V38.8324H20.1262C20.1262 38.5246 20.0647 38.25 19.9416 38.0085C19.8208 37.767 19.648 37.5765 19.4231 37.4368C19.2006 37.2971 18.9378 37.2273 18.6348 37.2273C18.301 37.2273 18.0121 37.3101 17.7683 37.4759C17.5268 37.6392 17.341 37.8523 17.2108 38.1151C17.0806 38.3778 17.0154 38.6596 17.0154 38.9602V39.4432C17.0154 39.8551 17.0865 40.2043 17.2285 40.4908C17.3729 40.7749 17.573 40.9915 17.8287 41.1406C18.0843 41.2874 18.3815 41.3608 18.72 41.3608C18.9402 41.3608 19.139 41.33 19.3166 41.2685C19.4965 41.2045 19.6516 41.1098 19.7818 40.9844C19.912 40.8565 20.0126 40.6979 20.0836 40.5085L20.8933 40.7358C20.8081 41.0104 20.6648 41.2519 20.4636 41.4602C20.2624 41.6662 20.0138 41.8272 19.7179 41.9432C19.4219 42.0568 19.0893 42.1136 18.72 42.1136ZM23.0914 34.7273V42H22.2534V34.7273H23.0914ZM26.9134 42.1136C26.3878 42.1136 25.9344 41.9976 25.5533 41.7656C25.1745 41.5312 24.8821 41.2045 24.6761 40.7855C24.4725 40.3641 24.3707 39.8741 24.3707 39.3153C24.3707 38.7566 24.4725 38.2642 24.6761 37.8381C24.8821 37.4096 25.1686 37.0758 25.5355 36.8366C25.9048 36.5952 26.3357 36.4744 26.8281 36.4744C27.1122 36.4744 27.3928 36.5218 27.6697 36.6165C27.9467 36.7112 28.1989 36.8651 28.4261 37.0781C28.6534 37.2888 28.8345 37.5682 28.9695 37.9162C29.1044 38.2642 29.1719 38.6927 29.1719 39.2017V39.5568H24.9673V38.8324H28.3196C28.3196 38.5246 28.258 38.25 28.1349 38.0085C28.0142 37.767 27.8414 37.5765 27.6165 37.4368C27.3939 37.2971 27.1312 37.2273 26.8281 37.2273C26.4943 37.2273 26.2055 37.3101 25.9616 37.4759C25.7202 37.6392 25.5343 37.8523 25.4041 38.1151C25.2739 38.3778 25.2088 38.6596 25.2088 38.9602V39.4432C25.2088 39.8551 25.2798 40.2043 25.4219 40.4908C25.5663 40.7749 25.7663 40.9915 26.022 41.1406C26.2777 41.2874 26.5748 41.3608 26.9134 41.3608C27.1335 41.3608 27.3324 41.33 27.5099 41.2685C27.6899 41.2045 27.8449 41.1098 27.9751 40.9844C28.1054 40.8565 28.206 40.6979 28.277 40.5085L29.0866 40.7358C29.0014 41.0104 28.8582 41.2519 28.657 41.4602C28.4557 41.6662 28.2071 41.8272 27.9112 41.9432C27.6153 42.0568 27.2827 42.1136 26.9134 42.1136ZM32.6626 42.1136C32.1513 42.1136 31.7109 41.9929 31.3416 41.7514C30.9723 41.5099 30.6882 41.1773 30.4893 40.7536C30.2905 40.3298 30.1911 39.8456 30.1911 39.3011C30.1911 38.7472 30.2929 38.2583 30.4964 37.8345C30.7024 37.4084 30.9889 37.0758 31.3558 36.8366C31.7251 36.5952 32.156 36.4744 32.6484 36.4744C33.032 36.4744 33.3776 36.5455 33.6854 36.6875C33.9931 36.8295 34.2453 37.0284 34.4418 37.2841C34.6383 37.5398 34.7602 37.8381 34.8075 38.179H33.9695C33.9055 37.9304 33.7635 37.7102 33.5433 37.5185C33.3255 37.3243 33.032 37.2273 32.6626 37.2273C32.3359 37.2273 32.0495 37.3125 31.8033 37.483C31.5594 37.651 31.3688 37.889 31.2315 38.1967C31.0966 38.5021 31.0291 38.8608 31.0291 39.2727C31.0291 39.6941 31.0954 40.0611 31.228 40.3736C31.3629 40.6861 31.5523 40.9287 31.7962 41.1016C32.0424 41.2744 32.3312 41.3608 32.6626 41.3608C32.8804 41.3608 33.0781 41.3229 33.2557 41.2472C33.4332 41.1714 33.5836 41.0625 33.7067 40.9205C33.8298 40.7784 33.9174 40.608 33.9695 40.4091H34.8075C34.7602 40.7311 34.643 41.0211 34.456 41.2791C34.2713 41.5348 34.0263 41.7384 33.7209 41.8899C33.4179 42.0391 33.0651 42.1136 32.6626 42.1136ZM38.4048 36.5455V37.2557H35.5781V36.5455H38.4048ZM36.402 35.2386H37.2401V40.4375C37.2401 40.6742 37.2744 40.8518 37.343 40.9702C37.4141 41.0862 37.504 41.1643 37.6129 41.2045C37.7242 41.2424 37.8414 41.2614 37.9645 41.2614C38.0568 41.2614 38.1326 41.2566 38.1918 41.2472C38.2509 41.2353 38.2983 41.2259 38.3338 41.2188L38.5043 41.9716C38.4474 41.9929 38.3681 42.0142 38.2663 42.0355C38.1645 42.0592 38.0355 42.071 37.8793 42.071C37.6425 42.071 37.4105 42.0201 37.1832 41.9183C36.9583 41.8165 36.7713 41.6615 36.6222 41.4531C36.4754 41.2448 36.402 40.982 36.402 40.6648V35.2386ZM12.9458 48.5455V49.2557H10.1191V48.5455H12.9458ZM10.943 47.2386H11.7811V52.4375C11.7811 52.6742 11.8154 52.8518 11.8841 52.9702C11.9551 53.0862 12.045 53.1643 12.1539 53.2045C12.2652 53.2424 12.3824 53.2614 12.5055 53.2614C12.5978 53.2614 12.6736 53.2566 12.7328 53.2472C12.792 53.2353 12.8393 53.2259 12.8748 53.2188L13.0453 53.9716C12.9885 53.9929 12.9092 54.0142 12.8074 54.0355C12.7056 54.0592 12.5765 54.071 12.4203 54.071C12.1835 54.071 11.9515 54.0201 11.7243 53.9183C11.4993 53.8165 11.3123 53.6615 11.1632 53.4531C11.0164 53.2448 10.943 52.982 10.943 52.6648V47.2386ZM14.2065 54V48.5455H15.0446V54H14.2065ZM14.6326 47.6364C14.4693 47.6364 14.3284 47.5807 14.21 47.4695C14.094 47.3582 14.036 47.2244 14.036 47.0682C14.036 46.9119 14.094 46.7782 14.21 46.6669C14.3284 46.5556 14.4693 46.5 14.6326 46.5C14.796 46.5 14.9357 46.5556 15.0517 46.6669C15.17 46.7782 15.2292 46.9119 15.2292 47.0682C15.2292 47.2244 15.17 47.3582 15.0517 47.4695C14.9357 47.5807 14.796 47.6364 14.6326 47.6364ZM18.7955 54.1136C18.2841 54.1136 17.8438 53.9929 17.4744 53.7514C17.1051 53.5099 16.821 53.1773 16.6222 52.7536C16.4233 52.3298 16.3239 51.8456 16.3239 51.3011C16.3239 50.7472 16.4257 50.2583 16.6293 49.8345C16.8352 49.4084 17.1217 49.0758 17.4886 48.8366C17.858 48.5952 18.2888 48.4744 18.7812 48.4744C19.1648 48.4744 19.5104 48.5455 19.8182 48.6875C20.1259 48.8295 20.3781 49.0284 20.5746 49.2841C20.7711 49.5398 20.893 49.8381 20.9403 50.179H20.1023C20.0384 49.9304 19.8963 49.7102 19.6761 49.5185C19.4583 49.3243 19.1648 49.2273 18.7955 49.2273C18.4688 49.2273 18.1823 49.3125 17.9361 49.483C17.6922 49.651 17.5017 49.889 17.3643 50.1967C17.2294 50.5021 17.1619 50.8608 17.1619 51.2727C17.1619 51.6941 17.2282 52.0611 17.3608 52.3736C17.4957 52.6861 17.6851 52.9287 17.929 53.1016C18.1752 53.2744 18.464 53.3608 18.7955 53.3608C19.0133 53.3608 19.2109 53.3229 19.3885 53.2472C19.5661 53.1714 19.7164 53.0625 19.8395 52.9205C19.9626 52.7784 20.0502 52.608 20.1023 52.4091H20.9403C20.893 52.7311 20.7758 53.0211 20.5888 53.2791C20.4041 53.5348 20.1591 53.7384 19.8537 53.8899C19.5507 54.0391 19.1979 54.1136 18.7955 54.1136ZM22.9467 52.0114L22.9325 50.9744H23.103L25.4893 48.5455H26.5263L23.9837 51.1165H23.9126L22.9467 52.0114ZM22.1655 54V46.7273H23.0036V54H22.1655ZM25.6314 54L23.5007 51.3011L24.0973 50.7188L26.6967 54H25.6314ZM29.6673 54.1136C29.1417 54.1136 28.6883 53.9976 28.3072 53.7656C27.9284 53.5312 27.636 53.2045 27.43 52.7855C27.2264 52.3641 27.1246 51.8741 27.1246 51.3153C27.1246 50.7566 27.2264 50.2642 27.43 49.8381C27.636 49.4096 27.9225 49.0758 28.2894 48.8366C28.6587 48.5952 29.0896 48.4744 29.582 48.4744C29.8661 48.4744 30.1467 48.5218 30.4237 48.6165C30.7006 48.7112 30.9528 48.8651 31.18 49.0781C31.4073 49.2888 31.5884 49.5682 31.7234 49.9162C31.8583 50.2642 31.9258 50.6927 31.9258 51.2017V51.5568H27.7212V50.8324H31.0735C31.0735 50.5246 31.012 50.25 30.8888 50.0085C30.7681 49.767 30.5953 49.5765 30.3704 49.4368C30.1478 49.2971 29.8851 49.2273 29.582 49.2273C29.2482 49.2273 28.9594 49.3101 28.7156 49.4759C28.4741 49.6392 28.2882 49.8523 28.158 50.1151C28.0278 50.3778 27.9627 50.6596 27.9627 50.9602V51.4432C27.9627 51.8551 28.0337 52.2043 28.1758 52.4908C28.3202 52.7749 28.5202 52.9915 28.7759 53.1406C29.0316 53.2874 29.3287 53.3608 29.6673 53.3608C29.8874 53.3608 30.0863 53.33 30.2638 53.2685C30.4438 53.2045 30.5988 53.1098 30.729 52.9844C30.8593 52.8565 30.9599 52.6979 31.0309 52.5085L31.8406 52.7358C31.7553 53.0104 31.6121 53.2519 31.4109 53.4602C31.2096 53.6662 30.9611 53.8272 30.6651 53.9432C30.3692 54.0568 30.0366 54.1136 29.6673 54.1136ZM35.5728 48.5455V49.2557H32.7461V48.5455H35.5728ZM33.57 47.2386H34.408V52.4375C34.408 52.6742 34.4424 52.8518 34.511 52.9702C34.582 53.0862 34.672 53.1643 34.7809 53.2045C34.8922 53.2424 35.0094 53.2614 35.1325 53.2614C35.2248 53.2614 35.3005 53.2566 35.3597 53.2472C35.4189 53.2353 35.4663 53.2259 35.5018 53.2188L35.6722 53.9716C35.6154 53.9929 35.5361 54.0142 35.4343 54.0355C35.3325 54.0592 35.2035 54.071 35.0472 54.071C34.8105 54.071 34.5785 54.0201 34.3512 53.9183C34.1263 53.8165 33.9393 53.6615 33.7901 53.4531C33.6433 53.2448 33.57 52.982 33.57 52.6648V47.2386ZM40.5994 49.767L39.8466 49.9801C39.7992 49.8546 39.7294 49.7327 39.6371 49.6143C39.5471 49.4936 39.424 49.3942 39.2678 49.3161C39.1115 49.2379 38.9115 49.1989 38.6676 49.1989C38.3338 49.1989 38.0556 49.2758 37.8331 49.4297C37.6129 49.5812 37.5028 49.7741 37.5028 50.0085C37.5028 50.2169 37.5786 50.3814 37.7301 50.5021C37.8816 50.6229 38.1184 50.7235 38.4403 50.804L39.25 51.0028C39.7377 51.1212 40.1011 51.3023 40.3402 51.5462C40.5793 51.7876 40.6989 52.099 40.6989 52.4801C40.6989 52.7926 40.6089 53.072 40.429 53.3182C40.2514 53.5644 40.0028 53.7585 39.6832 53.9006C39.3636 54.0426 38.992 54.1136 38.5682 54.1136C38.0118 54.1136 37.5514 53.9929 37.1868 53.7514C36.8222 53.5099 36.5914 53.1572 36.4943 52.6932L37.2898 52.4943C37.3655 52.7879 37.5088 53.008 37.7195 53.1548C37.9325 53.3016 38.2107 53.375 38.554 53.375C38.9446 53.375 39.2547 53.2921 39.4844 53.1264C39.7164 52.9583 39.8324 52.7571 39.8324 52.5227C39.8324 52.3333 39.7661 52.1747 39.6335 52.0469C39.5009 51.9167 39.2973 51.8196 39.0227 51.7557L38.1136 51.5426C37.6141 51.4242 37.2472 51.2408 37.0128 50.9922C36.7808 50.7412 36.6648 50.4276 36.6648 50.0511C36.6648 49.7434 36.7512 49.4711 36.924 49.2344C37.0992 48.9976 37.3371 48.8118 37.6378 48.6768C37.9408 48.5419 38.2841 48.4744 38.6676 48.4744C39.2074 48.4744 39.6312 48.5928 39.9389 48.8295C40.2491 49.0663 40.4692 49.3788 40.5994 49.767Z" fill="white"/>
<path d="M100.645 37H99.7644C99.7123 36.7467 99.6211 36.5241 99.4909 36.3324C99.3631 36.1406 99.2068 35.9796 99.0222 35.8494C98.8399 35.7169 98.6375 35.6174 98.4149 35.5511C98.1924 35.4848 97.9604 35.4517 97.7189 35.4517C97.2786 35.4517 96.8797 35.563 96.5222 35.7855C96.1671 36.008 95.8842 36.3359 95.6735 36.7692C95.4651 37.2024 95.361 37.7339 95.361 38.3636C95.361 38.9934 95.4651 39.5249 95.6735 39.9581C95.8842 40.3913 96.1671 40.7192 96.5222 40.9418C96.8797 41.1643 97.2786 41.2756 97.7189 41.2756C97.9604 41.2756 98.1924 41.2424 98.4149 41.1761C98.6375 41.1098 98.8399 41.0116 99.0222 40.8814C99.2068 40.7488 99.3631 40.5866 99.4909 40.3949C99.6211 40.2008 99.7123 39.9782 99.7644 39.7273H100.645C100.579 40.099 100.458 40.4316 100.283 40.7251C100.108 41.0187 99.8898 41.2685 99.6294 41.4744C99.369 41.678 99.0766 41.8331 98.7523 41.9396C98.4303 42.0462 98.0859 42.0994 97.7189 42.0994C97.0986 42.0994 96.547 41.9479 96.0641 41.6449C95.5811 41.3419 95.2012 40.911 94.9242 40.3523C94.6472 39.7936 94.5087 39.1307 94.5087 38.3636C94.5087 37.5966 94.6472 36.9337 94.9242 36.375C95.2012 35.8163 95.5811 35.3854 96.0641 35.0824C96.547 34.7794 97.0986 34.6278 97.7189 34.6278C98.0859 34.6278 98.4303 34.6811 98.7523 34.7876C99.0766 34.8942 99.369 35.0504 99.6294 35.2564C99.8898 35.46 100.108 35.7086 100.283 36.0021C100.458 36.2933 100.579 36.6259 100.645 37ZM103.56 42.1278C103.214 42.1278 102.9 42.0627 102.619 41.9325C102.337 41.8 102.113 41.6094 101.947 41.3608C101.782 41.1098 101.699 40.8068 101.699 40.4517C101.699 40.1392 101.76 39.8859 101.884 39.6918C102.007 39.4953 102.171 39.3414 102.377 39.2301C102.583 39.1188 102.81 39.036 103.059 38.9815C103.31 38.9247 103.562 38.8797 103.815 38.8466C104.147 38.804 104.415 38.772 104.621 38.7507C104.83 38.727 104.981 38.688 105.076 38.6335C105.173 38.5791 105.222 38.4844 105.222 38.3494V38.321C105.222 37.9706 105.126 37.6984 104.934 37.5043C104.745 37.3101 104.457 37.2131 104.071 37.2131C103.671 37.2131 103.357 37.3007 103.13 37.4759C102.903 37.651 102.743 37.8381 102.651 38.0369L101.855 37.7528C101.997 37.4214 102.187 37.1634 102.423 36.9787C102.662 36.7917 102.923 36.6615 103.205 36.5881C103.489 36.5123 103.768 36.4744 104.043 36.4744C104.218 36.4744 104.419 36.4957 104.646 36.5384C104.876 36.5786 105.097 36.6626 105.31 36.7905C105.526 36.9183 105.705 37.1113 105.847 37.3693C105.989 37.6274 106.06 37.973 106.06 38.4062V42H105.222V41.2614H105.179C105.122 41.3797 105.027 41.5064 104.895 41.6413C104.762 41.7763 104.586 41.8911 104.366 41.9858C104.146 42.0805 103.877 42.1278 103.56 42.1278ZM103.687 41.375C104.019 41.375 104.298 41.3099 104.526 41.1797C104.755 41.0495 104.928 40.8814 105.044 40.6754C105.162 40.4695 105.222 40.2528 105.222 40.0256V39.2585C105.186 39.3011 105.108 39.3402 104.987 39.3757C104.869 39.4089 104.732 39.4384 104.575 39.4645C104.421 39.4882 104.271 39.5095 104.124 39.5284C103.98 39.545 103.863 39.5592 103.773 39.571C103.555 39.5994 103.351 39.6456 103.162 39.7095C102.975 39.7711 102.823 39.8646 102.707 39.9901C102.594 40.1132 102.537 40.2812 102.537 40.4943C102.537 40.7855 102.645 41.0057 102.86 41.1548C103.078 41.3016 103.354 41.375 103.687 41.375ZM107.589 42V36.5455H108.399V37.3977H108.47C108.584 37.1065 108.767 36.8804 109.02 36.7195C109.274 36.5561 109.578 36.4744 109.933 36.4744C110.293 36.4744 110.592 36.5561 110.831 36.7195C111.073 36.8804 111.261 37.1065 111.396 37.3977H111.453C111.593 37.116 111.802 36.8923 112.081 36.7266C112.361 36.5585 112.696 36.4744 113.086 36.4744C113.574 36.4744 113.973 36.6271 114.283 36.9325C114.593 37.2356 114.748 37.7079 114.748 38.3494V42H113.91V38.3494C113.91 37.947 113.8 37.6593 113.58 37.4865C113.36 37.3137 113.101 37.2273 112.802 37.2273C112.419 37.2273 112.122 37.3433 111.911 37.5753C111.7 37.8049 111.595 38.0961 111.595 38.4489V42H110.743V38.2642C110.743 37.9541 110.642 37.7043 110.441 37.5149C110.24 37.3232 109.98 37.2273 109.663 37.2273C109.445 37.2273 109.242 37.2853 109.052 37.4013C108.865 37.5173 108.714 37.6783 108.598 37.8842C108.484 38.0878 108.427 38.3234 108.427 38.5909V42H107.589ZM116.281 44.0455V36.5455H117.09V37.4119H117.19C117.251 37.3172 117.337 37.1965 117.445 37.0497C117.557 36.9006 117.715 36.768 117.921 36.652C118.13 36.5336 118.411 36.4744 118.766 36.4744C119.226 36.4744 119.631 36.5893 119.981 36.8189C120.331 37.0485 120.605 37.3741 120.801 37.7955C120.998 38.2169 121.096 38.714 121.096 39.2869C121.096 39.8646 120.998 40.3653 120.801 40.7891C120.605 41.2105 120.333 41.5372 119.985 41.7692C119.637 41.9988 119.235 42.1136 118.781 42.1136C118.43 42.1136 118.15 42.0556 117.939 41.9396C117.728 41.8213 117.566 41.6875 117.453 41.5384C117.339 41.3868 117.251 41.2614 117.19 41.1619H117.119V44.0455H116.281ZM117.105 39.2727C117.105 39.6847 117.165 40.0481 117.286 40.3629C117.406 40.6754 117.583 40.9205 117.815 41.098C118.047 41.2732 118.331 41.3608 118.667 41.3608C119.017 41.3608 119.31 41.2685 119.544 41.0838C119.781 40.8968 119.958 40.6458 120.077 40.331C120.198 40.0137 120.258 39.661 120.258 39.2727C120.258 38.8892 120.199 38.5436 120.08 38.2358C119.964 37.9257 119.788 37.6806 119.551 37.5007C119.317 37.3184 119.022 37.2273 118.667 37.2273C118.326 37.2273 118.04 37.3137 117.808 37.4865C117.576 37.657 117.4 37.8961 117.282 38.2038C117.164 38.5092 117.105 38.8655 117.105 39.2727ZM122.374 42V36.5455H123.213V42H122.374ZM122.801 35.6364C122.637 35.6364 122.496 35.5807 122.378 35.4695C122.262 35.3582 122.204 35.2244 122.204 35.0682C122.204 34.9119 122.262 34.7782 122.378 34.6669C122.496 34.5556 122.637 34.5 122.801 34.5C122.964 34.5 123.104 34.5556 123.22 34.6669C123.338 34.7782 123.397 34.9119 123.397 35.0682C123.397 35.2244 123.338 35.3582 123.22 35.4695C123.104 35.5807 122.964 35.6364 122.801 35.6364ZM125.586 38.7188V42H124.747V36.5455H125.557V37.3977H125.628C125.756 37.1207 125.95 36.8982 126.211 36.7301C126.471 36.5597 126.807 36.4744 127.219 36.4744C127.588 36.4744 127.912 36.5502 128.189 36.7017C128.466 36.8509 128.681 37.0781 128.835 37.3835C128.989 37.6866 129.066 38.0701 129.066 38.5341V42H128.228V38.5909C128.228 38.1624 128.116 37.8286 127.894 37.5895C127.671 37.348 127.366 37.2273 126.978 37.2273C126.71 37.2273 126.471 37.2853 126.26 37.4013C126.052 37.5173 125.887 37.6866 125.767 37.9091C125.646 38.1316 125.586 38.4015 125.586 38.7188ZM132.799 44.1591C132.394 44.1591 132.046 44.107 131.755 44.0028C131.464 43.901 131.221 43.7661 131.027 43.598C130.835 43.4323 130.682 43.2547 130.569 43.0653L131.236 42.5966C131.312 42.696 131.408 42.8097 131.524 42.9375C131.64 43.0677 131.799 43.1802 132 43.2749C132.203 43.3719 132.47 43.4205 132.799 43.4205C133.239 43.4205 133.603 43.3139 133.889 43.1009C134.175 42.8878 134.319 42.554 134.319 42.0994V40.9915H134.248C134.186 41.0909 134.099 41.214 133.985 41.3608C133.874 41.5052 133.713 41.6342 133.502 41.7479C133.294 41.8591 133.012 41.9148 132.657 41.9148C132.216 41.9148 131.821 41.8106 131.471 41.6023C131.123 41.3939 130.847 41.0909 130.643 40.6932C130.442 40.2955 130.341 39.8125 130.341 39.2443C130.341 38.6856 130.44 38.1991 130.636 37.7848C130.833 37.3681 131.106 37.0462 131.456 36.8189C131.807 36.5893 132.212 36.4744 132.671 36.4744C133.026 36.4744 133.308 36.5336 133.516 36.652C133.727 36.768 133.888 36.9006 133.999 37.0497C134.113 37.1965 134.2 37.3172 134.262 37.4119H134.347V36.5455H135.157V42.1562C135.157 42.625 135.05 43.0062 134.837 43.2997C134.626 43.5956 134.342 43.8123 133.985 43.9496C133.63 44.0893 133.234 44.1591 132.799 44.1591ZM132.77 41.1619C133.107 41.1619 133.391 41.085 133.623 40.9311C133.855 40.7772 134.031 40.5559 134.152 40.267C134.273 39.9782 134.333 39.6326 134.333 39.2301C134.333 38.8371 134.274 38.4903 134.155 38.1896C134.037 37.889 133.862 37.6534 133.63 37.483C133.398 37.3125 133.111 37.2273 132.77 37.2273C132.415 37.2273 132.119 37.3172 131.883 37.4972C131.648 37.6771 131.472 37.9186 131.354 38.2216C131.237 38.5246 131.179 38.8608 131.179 39.2301C131.179 39.6089 131.239 39.9439 131.357 40.2351C131.478 40.5239 131.655 40.7512 131.89 40.9169C132.126 41.0803 132.42 41.1619 132.77 41.1619ZM100.347 54.1136C99.8548 54.1136 99.4227 53.9964 99.051 53.7621C98.6817 53.5277 98.3929 53.1998 98.1846 52.7784C97.9786 52.357 97.8756 51.8646 97.8756 51.3011C97.8756 50.733 97.9786 50.237 98.1846 49.8132C98.3929 49.3894 98.6817 49.0604 99.051 48.826C99.4227 48.5916 99.8548 48.4744 100.347 48.4744C100.84 48.4744 101.27 48.5916 101.64 48.826C102.011 49.0604 102.3 49.3894 102.506 49.8132C102.715 50.237 102.819 50.733 102.819 51.3011C102.819 51.8646 102.715 52.357 102.506 52.7784C102.3 53.1998 102.011 53.5277 101.64 53.7621C101.27 53.9964 100.84 54.1136 100.347 54.1136ZM100.347 53.3608C100.721 53.3608 101.029 53.2649 101.27 53.0732C101.512 52.8814 101.691 52.6293 101.807 52.3168C101.923 52.0043 101.981 51.6657 101.981 51.3011C101.981 50.9366 101.923 50.5968 101.807 50.282C101.691 49.9671 101.512 49.7126 101.27 49.5185C101.029 49.3243 100.721 49.2273 100.347 49.2273C99.9731 49.2273 99.6654 49.3243 99.4239 49.5185C99.1824 49.7126 99.0037 49.9671 98.8877 50.282C98.7717 50.5968 98.7137 50.9366 98.7137 51.3011C98.7137 51.6657 98.7717 52.0043 98.8877 52.3168C99.0037 52.6293 99.1824 52.8814 99.4239 53.0732C99.6654 53.2649 99.9731 53.3608 100.347 53.3608ZM104.098 56.0455V48.5455H104.908V49.4119H105.007C105.069 49.3172 105.154 49.1965 105.263 49.0497C105.374 48.9006 105.533 48.768 105.739 48.652C105.947 48.5336 106.229 48.4744 106.584 48.4744C107.043 48.4744 107.448 48.5893 107.798 48.8189C108.149 49.0485 108.422 49.3741 108.619 49.7955C108.815 50.2169 108.913 50.714 108.913 51.2869C108.913 51.8646 108.815 52.3653 108.619 52.7891C108.422 53.2105 108.15 53.5372 107.802 53.7692C107.454 53.9988 107.053 54.1136 106.598 54.1136C106.248 54.1136 105.967 54.0556 105.756 53.9396C105.546 53.8213 105.384 53.6875 105.27 53.5384C105.156 53.3868 105.069 53.2614 105.007 53.1619H104.936V56.0455H104.098ZM104.922 51.2727C104.922 51.6847 104.982 52.0481 105.103 52.3629C105.224 52.6754 105.4 52.9205 105.632 53.098C105.864 53.2732 106.148 53.3608 106.484 53.3608C106.835 53.3608 107.127 53.2685 107.362 53.0838C107.598 52.8968 107.776 52.6458 107.894 52.331C108.015 52.0137 108.075 51.661 108.075 51.2727C108.075 50.8892 108.016 50.5436 107.898 50.2358C107.782 49.9257 107.605 49.6806 107.369 49.5007C107.134 49.3184 106.84 49.2273 106.484 49.2273C106.144 49.2273 105.857 49.3137 105.625 49.4865C105.393 49.657 105.218 49.8961 105.1 50.2038C104.981 50.5092 104.922 50.8655 104.922 51.2727ZM112.564 48.5455V49.2557H109.737V48.5455H112.564ZM110.561 47.2386H111.399V52.4375C111.399 52.6742 111.434 52.8518 111.502 52.9702C111.573 53.0862 111.663 53.1643 111.772 53.2045C111.883 53.2424 112.001 53.2614 112.124 53.2614C112.216 53.2614 112.292 53.2566 112.351 53.2472C112.41 53.2353 112.457 53.2259 112.493 53.2188L112.663 53.9716C112.607 53.9929 112.527 54.0142 112.425 54.0355C112.324 54.0592 112.195 54.071 112.038 54.071C111.802 54.071 111.57 54.0201 111.342 53.9183C111.117 53.8165 110.93 53.6615 110.781 53.4531C110.635 53.2448 110.561 52.982 110.561 52.6648V47.2386ZM113.825 54V48.5455H114.663V54H113.825ZM114.251 47.6364C114.087 47.6364 113.947 47.5807 113.828 47.4695C113.712 47.3582 113.654 47.2244 113.654 47.0682C113.654 46.9119 113.712 46.7782 113.828 46.6669C113.947 46.5556 114.087 46.5 114.251 46.5C114.414 46.5 114.554 46.5556 114.67 46.6669C114.788 46.7782 114.847 46.9119 114.847 47.0682C114.847 47.2244 114.788 47.3582 114.67 47.4695C114.554 47.5807 114.414 47.6364 114.251 47.6364ZM118.414 54.1136C117.921 54.1136 117.489 53.9964 117.117 53.7621C116.748 53.5277 116.459 53.1998 116.251 52.7784C116.045 52.357 115.942 51.8646 115.942 51.3011C115.942 50.733 116.045 50.237 116.251 49.8132C116.459 49.3894 116.748 49.0604 117.117 48.826C117.489 48.5916 117.921 48.4744 118.414 48.4744C118.906 48.4744 119.337 48.5916 119.706 48.826C120.078 49.0604 120.367 49.3894 120.573 49.8132C120.781 50.237 120.885 50.733 120.885 51.3011C120.885 51.8646 120.781 52.357 120.573 52.7784C120.367 53.1998 120.078 53.5277 119.706 53.7621C119.337 53.9964 118.906 54.1136 118.414 54.1136ZM118.414 53.3608C118.788 53.3608 119.095 53.2649 119.337 53.0732C119.578 52.8814 119.757 52.6293 119.873 52.3168C119.989 52.0043 120.047 51.6657 120.047 51.3011C120.047 50.9366 119.989 50.5968 119.873 50.282C119.757 49.9671 119.578 49.7126 119.337 49.5185C119.095 49.3243 118.788 49.2273 118.414 49.2273C118.04 49.2273 117.732 49.3243 117.49 49.5185C117.249 49.7126 117.07 49.9671 116.954 50.282C116.838 50.5968 116.78 50.9366 116.78 51.3011C116.78 51.6657 116.838 52.0043 116.954 52.3168C117.07 52.6293 117.249 52.8814 117.49 53.0732C117.732 53.2649 118.04 53.3608 118.414 53.3608ZM123.003 50.7188V54H122.164V48.5455H122.974V49.3977H123.045C123.173 49.1207 123.367 48.8982 123.628 48.7301C123.888 48.5597 124.224 48.4744 124.636 48.4744C125.005 48.4744 125.329 48.5502 125.606 48.7017C125.883 48.8509 126.098 49.0781 126.252 49.3835C126.406 49.6866 126.483 50.0701 126.483 50.5341V54H125.645V50.5909C125.645 50.1624 125.533 49.8286 125.311 49.5895C125.088 49.348 124.783 49.2273 124.395 49.2273C124.127 49.2273 123.888 49.2853 123.677 49.4013C123.469 49.5173 123.304 49.6866 123.184 49.9091C123.063 50.1316 123.003 50.4015 123.003 50.7188ZM131.878 49.767L131.125 49.9801C131.078 49.8546 131.008 49.7327 130.915 49.6143C130.825 49.4936 130.702 49.3942 130.546 49.3161C130.39 49.2379 130.19 49.1989 129.946 49.1989C129.612 49.1989 129.334 49.2758 129.111 49.4297C128.891 49.5812 128.781 49.7741 128.781 50.0085C128.781 50.2169 128.857 50.3814 129.008 50.5021C129.16 50.6229 129.397 50.7235 129.719 50.804L130.528 51.0028C131.016 51.1212 131.379 51.3023 131.619 51.5462C131.858 51.7876 131.977 52.099 131.977 52.4801C131.977 52.7926 131.887 53.072 131.707 53.3182C131.53 53.5644 131.281 53.7585 130.962 53.9006C130.642 54.0426 130.27 54.1136 129.846 54.1136C129.29 54.1136 128.83 53.9929 128.465 53.7514C128.101 53.5099 127.87 53.1572 127.773 52.6932L128.568 52.4943C128.644 52.7879 128.787 53.008 128.998 53.1548C129.211 53.3016 129.489 53.375 129.832 53.375C130.223 53.375 130.533 53.2921 130.763 53.1264C130.995 52.9583 131.111 52.7571 131.111 52.5227C131.111 52.3333 131.044 52.1747 130.912 52.0469C130.779 51.9167 130.576 51.8196 130.301 51.7557L129.392 51.5426C128.892 51.4242 128.525 51.2408 128.291 50.9922C128.059 50.7412 127.943 50.4276 127.943 50.0511C127.943 49.7434 128.029 49.4711 128.202 49.2344C128.378 48.9976 128.615 48.8118 128.916 48.6768C129.219 48.5419 129.562 48.4744 129.946 48.4744C130.486 48.4744 130.909 48.5928 131.217 48.8295C131.527 49.0663 131.748 49.3788 131.878 49.767Z" fill="white"/>
<path d="M280.911 42V34.7273H283.454C283.96 34.7273 284.378 34.8149 284.707 34.9901C285.036 35.1629 285.281 35.3961 285.442 35.6896C285.603 35.9808 285.684 36.304 285.684 36.6591C285.684 36.9716 285.628 37.2296 285.517 37.4332C285.408 37.6368 285.263 37.7978 285.084 37.9162C284.906 38.0346 284.713 38.1222 284.505 38.179V38.25C284.727 38.2642 284.951 38.3423 285.176 38.4844C285.401 38.6264 285.589 38.83 285.741 39.0952C285.892 39.3603 285.968 39.6847 285.968 40.0682C285.968 40.4328 285.885 40.7607 285.719 41.0518C285.553 41.343 285.292 41.5739 284.934 41.7443C284.577 41.9148 284.112 42 283.539 42H280.911ZM281.792 41.2188H283.539C284.114 41.2188 284.522 41.1075 284.764 40.8849C285.008 40.66 285.13 40.3878 285.13 40.0682C285.13 39.822 285.067 39.5947 284.941 39.3864C284.816 39.1757 284.637 39.0076 284.405 38.8821C284.173 38.7543 283.899 38.6903 283.581 38.6903H281.792V41.2188ZM281.792 37.9233H283.425C283.69 37.9233 283.929 37.8712 284.142 37.767C284.358 37.6629 284.528 37.5161 284.654 37.3267C284.782 37.1373 284.846 36.9148 284.846 36.6591C284.846 36.3395 284.734 36.0684 284.512 35.8459C284.289 35.621 283.937 35.5085 283.454 35.5085H281.792V37.9233ZM287.301 42V36.5455H288.139V42H287.301ZM287.727 35.6364C287.564 35.6364 287.423 35.5807 287.305 35.4695C287.189 35.3582 287.131 35.2244 287.131 35.0682C287.131 34.9119 287.189 34.7782 287.305 34.6669C287.423 34.5556 287.564 34.5 287.727 34.5C287.891 34.5 288.03 34.5556 288.146 34.6669C288.265 34.7782 288.324 34.9119 288.324 35.0682C288.324 35.2244 288.265 35.3582 288.146 35.4695C288.03 35.5807 287.891 35.6364 287.727 35.6364ZM290.512 34.7273V42H289.674V34.7273H290.512ZM292.885 34.7273V42H292.047V34.7273H292.885ZM294.42 42V36.5455H295.258V42H294.42ZM294.847 35.6364C294.683 35.6364 294.542 35.5807 294.424 35.4695C294.308 35.3582 294.25 35.2244 294.25 35.0682C294.25 34.9119 294.308 34.7782 294.424 34.6669C294.542 34.5556 294.683 34.5 294.847 34.5C295.01 34.5 295.15 34.5556 295.266 34.6669C295.384 34.7782 295.443 34.9119 295.443 35.0682C295.443 35.2244 295.384 35.3582 295.266 35.4695C295.15 35.5807 295.01 35.6364 294.847 35.6364ZM297.631 38.7188V42H296.793V36.5455H297.603V37.3977H297.674C297.802 37.1207 297.996 36.8982 298.256 36.7301C298.517 36.5597 298.853 36.4744 299.265 36.4744C299.634 36.4744 299.957 36.5502 300.234 36.7017C300.511 36.8509 300.727 37.0781 300.881 37.3835C301.035 37.6866 301.112 38.0701 301.112 38.5341V42H300.274V38.5909C300.274 38.1624 300.162 37.8286 299.94 37.5895C299.717 37.348 299.412 37.2273 299.024 37.2273C298.756 37.2273 298.517 37.2853 298.306 37.4013C298.098 37.5173 297.933 37.6866 297.813 37.9091C297.692 38.1316 297.631 38.4015 297.631 38.7188ZM304.845 44.1591C304.44 44.1591 304.092 44.107 303.801 44.0028C303.509 43.901 303.267 43.7661 303.073 43.598C302.881 43.4323 302.728 43.2547 302.615 43.0653L303.282 42.5966C303.358 42.696 303.454 42.8097 303.57 42.9375C303.686 43.0677 303.844 43.1802 304.046 43.2749C304.249 43.3719 304.516 43.4205 304.845 43.4205C305.285 43.4205 305.648 43.3139 305.935 43.1009C306.221 42.8878 306.365 42.554 306.365 42.0994V40.9915H306.294C306.232 41.0909 306.144 41.214 306.031 41.3608C305.92 41.5052 305.759 41.6342 305.548 41.7479C305.34 41.8591 305.058 41.9148 304.703 41.9148C304.262 41.9148 303.867 41.8106 303.517 41.6023C303.169 41.3939 302.893 41.0909 302.689 40.6932C302.488 40.2955 302.387 39.8125 302.387 39.2443C302.387 38.6856 302.486 38.1991 302.682 37.7848C302.879 37.3681 303.152 37.0462 303.502 36.8189C303.853 36.5893 304.258 36.4744 304.717 36.4744C305.072 36.4744 305.354 36.5336 305.562 36.652C305.773 36.768 305.934 36.9006 306.045 37.0497C306.159 37.1965 306.246 37.3172 306.308 37.4119H306.393V36.5455H307.203V42.1562C307.203 42.625 307.096 43.0062 306.883 43.2997C306.672 43.5956 306.388 43.8123 306.031 43.9496C305.676 44.0893 305.28 44.1591 304.845 44.1591ZM304.816 41.1619C305.152 41.1619 305.437 41.085 305.669 40.9311C305.901 40.7772 306.077 40.5559 306.198 40.267C306.318 39.9782 306.379 39.6326 306.379 39.2301C306.379 38.8371 306.32 38.4903 306.201 38.1896C306.083 37.889 305.908 37.6534 305.676 37.483C305.444 37.3125 305.157 37.2273 304.816 37.2273C304.461 37.2273 304.165 37.3172 303.929 37.4972C303.694 37.6771 303.518 37.9186 303.399 38.2216C303.283 38.5246 303.225 38.8608 303.225 39.2301C303.225 39.6089 303.285 39.9439 303.403 40.2351C303.524 40.5239 303.701 40.7512 303.936 40.9169C304.172 41.0803 304.466 41.1619 304.816 41.1619ZM268.048 54V48.5455H268.886V54H268.048ZM268.474 47.6364C268.311 47.6364 268.17 47.5807 268.052 47.4695C267.936 47.3582 267.878 47.2244 267.878 47.0682C267.878 46.9119 267.936 46.7782 268.052 46.6669C268.17 46.5556 268.311 46.5 268.474 46.5C268.638 46.5 268.777 46.5556 268.893 46.6669C269.012 46.7782 269.071 46.9119 269.071 47.0682C269.071 47.2244 269.012 47.3582 268.893 47.4695C268.777 47.5807 268.638 47.6364 268.474 47.6364ZM271.259 50.7188V54H270.421V48.5455H271.231V49.3977H271.302C271.43 49.1207 271.624 48.8982 271.884 48.7301C272.145 48.5597 272.481 48.4744 272.893 48.4744C273.262 48.4744 273.585 48.5502 273.862 48.7017C274.139 48.8509 274.355 49.0781 274.509 49.3835C274.663 49.6866 274.74 50.0701 274.74 50.5341V54H273.901V50.5909C273.901 50.1624 273.79 49.8286 273.568 49.5895C273.345 49.348 273.04 49.2273 272.651 49.2273C272.384 49.2273 272.145 49.2853 271.934 49.4013C271.726 49.5173 271.561 49.6866 271.441 49.9091C271.32 50.1316 271.259 50.4015 271.259 50.7188ZM278.7 48.5455V49.2557H275.76V48.5455H278.7ZM276.64 54V47.7926C276.64 47.4801 276.714 47.2197 276.86 47.0114C277.007 46.803 277.198 46.6468 277.432 46.5426C277.667 46.4384 277.914 46.3864 278.174 46.3864C278.38 46.3864 278.548 46.4029 278.679 46.4361C278.809 46.4692 278.906 46.5 278.97 46.5284L278.728 47.2528C278.686 47.2386 278.627 47.2209 278.551 47.1996C278.477 47.1783 278.38 47.1676 278.26 47.1676C277.983 47.1676 277.783 47.2375 277.659 47.3771C277.539 47.5168 277.478 47.7216 277.478 47.9915V54H276.64ZM281.866 54.1136C281.373 54.1136 280.941 53.9964 280.57 53.7621C280.2 53.5277 279.911 53.1998 279.703 52.7784C279.497 52.357 279.394 51.8646 279.394 51.3011C279.394 50.733 279.497 50.237 279.703 49.8132C279.911 49.3894 280.2 49.0604 280.57 48.826C280.941 48.5916 281.373 48.4744 281.866 48.4744C282.358 48.4744 282.789 48.5916 283.158 48.826C283.53 49.0604 283.819 49.3894 284.025 49.8132C284.233 50.237 284.337 50.733 284.337 51.3011C284.337 51.8646 284.233 52.357 284.025 52.7784C283.819 53.1998 283.53 53.5277 283.158 53.7621C282.789 53.9964 282.358 54.1136 281.866 54.1136ZM281.866 53.3608C282.24 53.3608 282.548 53.2649 282.789 53.0732C283.031 52.8814 283.209 52.6293 283.325 52.3168C283.441 52.0043 283.499 51.6657 283.499 51.3011C283.499 50.9366 283.441 50.5968 283.325 50.282C283.209 49.9671 283.031 49.7126 282.789 49.5185C282.548 49.3243 282.24 49.2273 281.866 49.2273C281.492 49.2273 281.184 49.3243 280.942 49.5185C280.701 49.7126 280.522 49.9671 280.406 50.282C280.29 50.5968 280.232 50.9366 280.232 51.3011C280.232 51.6657 280.29 52.0043 280.406 52.3168C280.522 52.6293 280.701 52.8814 280.942 53.0732C281.184 53.2649 281.492 53.3608 281.866 53.3608ZM285.617 54V48.5455H286.426V49.3693H286.483C286.583 49.0994 286.762 48.8804 287.023 48.7124C287.283 48.5443 287.577 48.4602 287.904 48.4602C287.965 48.4602 288.042 48.4614 288.134 48.4638C288.227 48.4661 288.297 48.4697 288.344 48.4744V49.3267C288.316 49.3196 288.25 49.3089 288.149 49.2947C288.049 49.2782 287.944 49.2699 287.833 49.2699C287.567 49.2699 287.331 49.3255 287.122 49.4368C286.916 49.5457 286.753 49.6972 286.632 49.8913C286.514 50.0831 286.455 50.3021 286.455 50.5483V54H285.617ZM289.337 54V48.5455H290.147V49.3977H290.218C290.332 49.1065 290.515 48.8804 290.768 48.7195C291.022 48.5561 291.326 48.4744 291.681 48.4744C292.041 48.4744 292.34 48.5561 292.58 48.7195C292.821 48.8804 293.009 49.1065 293.144 49.3977H293.201C293.341 49.116 293.55 48.8923 293.83 48.7266C294.109 48.5585 294.444 48.4744 294.835 48.4744C295.322 48.4744 295.721 48.6271 296.031 48.9325C296.341 49.2356 296.496 49.7079 296.496 50.3494V54H295.658V50.3494C295.658 49.947 295.548 49.6593 295.328 49.4865C295.108 49.3137 294.849 49.2273 294.55 49.2273C294.167 49.2273 293.87 49.3433 293.659 49.5753C293.448 49.8049 293.343 50.0961 293.343 50.4489V54H292.491V50.2642C292.491 49.9541 292.39 49.7043 292.189 49.5149C291.988 49.3232 291.728 49.2273 291.411 49.2273C291.193 49.2273 290.99 49.2853 290.8 49.4013C290.613 49.5173 290.462 49.6783 290.346 49.8842C290.232 50.0878 290.175 50.3234 290.175 50.5909V54H289.337ZM299.634 54.1278C299.288 54.1278 298.975 54.0627 298.693 53.9325C298.411 53.8 298.187 53.6094 298.022 53.3608C297.856 53.1098 297.773 52.8068 297.773 52.4517C297.773 52.1392 297.835 51.8859 297.958 51.6918C298.081 51.4953 298.245 51.3414 298.451 51.2301C298.657 51.1188 298.885 51.036 299.133 50.9815C299.384 50.9247 299.636 50.8797 299.89 50.8466C300.221 50.804 300.49 50.772 300.696 50.7507C300.904 50.727 301.056 50.688 301.15 50.6335C301.247 50.5791 301.296 50.4844 301.296 50.3494V50.321C301.296 49.9706 301.2 49.6984 301.008 49.5043C300.819 49.3101 300.531 49.2131 300.145 49.2131C299.745 49.2131 299.431 49.3007 299.204 49.4759C298.977 49.651 298.817 49.8381 298.725 50.0369L297.929 49.7528C298.071 49.4214 298.261 49.1634 298.498 48.9787C298.737 48.7917 298.997 48.6615 299.279 48.5881C299.563 48.5123 299.842 48.4744 300.117 48.4744C300.292 48.4744 300.493 48.4957 300.721 48.5384C300.95 48.5786 301.172 48.6626 301.385 48.7905C301.6 48.9183 301.779 49.1113 301.921 49.3693C302.063 49.6274 302.134 49.973 302.134 50.4062V54H301.296V53.2614H301.253C301.196 53.3797 301.102 53.5064 300.969 53.6413C300.837 53.7763 300.66 53.8911 300.44 53.9858C300.22 54.0805 299.951 54.1278 299.634 54.1278ZM299.762 53.375C300.093 53.375 300.373 53.3099 300.6 53.1797C300.829 53.0495 301.002 52.8814 301.118 52.6754C301.237 52.4695 301.296 52.2528 301.296 52.0256V51.2585C301.26 51.3011 301.182 51.3402 301.061 51.3757C300.943 51.4089 300.806 51.4384 300.65 51.4645C300.496 51.4882 300.345 51.5095 300.199 51.5284C300.054 51.545 299.937 51.5592 299.847 51.571C299.629 51.5994 299.426 51.6456 299.236 51.7095C299.049 51.7711 298.898 51.8646 298.782 51.9901C298.668 52.1132 298.611 52.2812 298.611 52.4943C298.611 52.7855 298.719 53.0057 298.934 53.1548C299.152 53.3016 299.428 53.375 299.762 53.375ZM306.036 48.5455V49.2557H303.209V48.5455H306.036ZM304.033 47.2386H304.871V52.4375C304.871 52.6742 304.905 52.8518 304.974 52.9702C305.045 53.0862 305.135 53.1643 305.244 53.2045C305.355 53.2424 305.472 53.2614 305.595 53.2614C305.688 53.2614 305.763 53.2566 305.823 53.2472C305.882 53.2353 305.929 53.2259 305.965 53.2188L306.135 53.9716C306.078 53.9929 305.999 54.0142 305.897 54.0355C305.795 54.0592 305.666 54.071 305.51 54.071C305.273 54.071 305.041 54.0201 304.814 53.9183C304.589 53.8165 304.402 53.6615 304.253 53.4531C304.106 53.2448 304.033 52.982 304.033 52.6648V47.2386ZM307.296 54V48.5455H308.134V54H307.296ZM307.722 47.6364C307.559 47.6364 307.418 47.5807 307.3 47.4695C307.184 47.3582 307.126 47.2244 307.126 47.0682C307.126 46.9119 307.184 46.7782 307.3 46.6669C307.418 46.5556 307.559 46.5 307.722 46.5C307.886 46.5 308.026 46.5556 308.142 46.6669C308.26 46.7782 308.319 46.9119 308.319 47.0682C308.319 47.2244 308.26 47.3582 308.142 47.4695C308.026 47.5807 307.886 47.6364 307.722 47.6364ZM311.885 54.1136C311.393 54.1136 310.961 53.9964 310.589 53.7621C310.22 53.5277 309.931 53.1998 309.723 52.7784C309.517 52.357 309.414 51.8646 309.414 51.3011C309.414 50.733 309.517 50.237 309.723 49.8132C309.931 49.3894 310.22 49.0604 310.589 48.826C310.961 48.5916 311.393 48.4744 311.885 48.4744C312.378 48.4744 312.809 48.5916 313.178 48.826C313.55 49.0604 313.838 49.3894 314.044 49.8132C314.253 50.237 314.357 50.733 314.357 51.3011C314.357 51.8646 314.253 52.357 314.044 52.7784C313.838 53.1998 313.55 53.5277 313.178 53.7621C312.809 53.9964 312.378 54.1136 311.885 54.1136ZM311.885 53.3608C312.259 53.3608 312.567 53.2649 312.809 53.0732C313.05 52.8814 313.229 52.6293 313.345 52.3168C313.461 52.0043 313.519 51.6657 313.519 51.3011C313.519 50.9366 313.461 50.5968 313.345 50.282C313.229 49.9671 313.05 49.7126 312.809 49.5185C312.567 49.3243 312.259 49.2273 311.885 49.2273C311.511 49.2273 311.203 49.3243 310.962 49.5185C310.721 49.7126 310.542 49.9671 310.426 50.282C310.31 50.5968 310.252 50.9366 310.252 51.3011C310.252 51.6657 310.31 52.0043 310.426 52.3168C310.542 52.6293 310.721 52.8814 310.962 53.0732C311.203 53.2649 311.511 53.3608 311.885 53.3608ZM316.474 50.7188V54H315.636V48.5455H316.446V49.3977H316.517C316.645 49.1207 316.839 48.8982 317.099 48.7301C317.36 48.5597 317.696 48.4744 318.108 48.4744C318.477 48.4744 318.8 48.5502 319.077 48.7017C319.354 48.8509 319.57 49.0781 319.724 49.3835C319.877 49.6866 319.954 50.0701 319.954 50.5341V54H319.116V50.5909C319.116 50.1624 319.005 49.8286 318.782 49.5895C318.56 49.348 318.255 49.2273 317.866 49.2273C317.599 49.2273 317.36 49.2853 317.149 49.4013C316.941 49.5173 316.776 49.6866 316.655 49.9091C316.535 50.1316 316.474 50.4015 316.474 50.7188Z" fill="white"/>
<path d="M190.961 35.5085V34.7273H196.416V35.5085H194.129V42H193.248V35.5085H190.961ZM197.662 42V36.5455H198.5V42H197.662ZM198.088 35.6364C197.924 35.6364 197.783 35.5807 197.665 35.4695C197.549 35.3582 197.491 35.2244 197.491 35.0682C197.491 34.9119 197.549 34.7782 197.665 34.6669C197.783 34.5556 197.924 34.5 198.088 34.5C198.251 34.5 198.391 34.5556 198.507 34.6669C198.625 34.7782 198.684 34.9119 198.684 35.0682C198.684 35.2244 198.625 35.3582 198.507 35.4695C198.391 35.5807 198.251 35.6364 198.088 35.6364ZM202.251 42.1136C201.739 42.1136 201.299 41.9929 200.93 41.7514C200.56 41.5099 200.276 41.1773 200.077 40.7536C199.878 40.3298 199.779 39.8456 199.779 39.3011C199.779 38.7472 199.881 38.2583 200.084 37.8345C200.29 37.4084 200.577 37.0758 200.944 36.8366C201.313 36.5952 201.744 36.4744 202.236 36.4744C202.62 36.4744 202.965 36.5455 203.273 36.6875C203.581 36.8295 203.833 37.0284 204.03 37.2841C204.226 37.5398 204.348 37.8381 204.395 38.179H203.557C203.493 37.9304 203.351 37.7102 203.131 37.5185C202.913 37.3243 202.62 37.2273 202.251 37.2273C201.924 37.2273 201.637 37.3125 201.391 37.483C201.147 37.651 200.957 37.889 200.819 38.1967C200.684 38.5021 200.617 38.8608 200.617 39.2727C200.617 39.6941 200.683 40.0611 200.816 40.3736C200.951 40.6861 201.14 40.9287 201.384 41.1016C201.63 41.2744 201.919 41.3608 202.251 41.3608C202.468 41.3608 202.666 41.3229 202.844 41.2472C203.021 41.1714 203.171 41.0625 203.295 40.9205C203.418 40.7784 203.505 40.608 203.557 40.4091H204.395C204.348 40.7311 204.231 41.0211 204.044 41.2791C203.859 41.5348 203.614 41.7384 203.309 41.8899C203.006 42.0391 202.653 42.1136 202.251 42.1136ZM206.402 40.0114L206.388 38.9744H206.558L208.944 36.5455H209.981L207.439 39.1165H207.368L206.402 40.0114ZM205.621 42V34.7273H206.459V42H205.621ZM209.086 42L206.956 39.3011L207.552 38.7188L210.152 42H209.086ZM213.122 42.1136C212.597 42.1136 212.143 41.9976 211.762 41.7656C211.383 41.5312 211.091 41.2045 210.885 40.7855C210.682 40.3641 210.58 39.8741 210.58 39.3153C210.58 38.7566 210.682 38.2642 210.885 37.8381C211.091 37.4096 211.378 37.0758 211.744 36.8366C212.114 36.5952 212.545 36.4744 213.037 36.4744C213.321 36.4744 213.602 36.5218 213.879 36.6165C214.156 36.7112 214.408 36.8651 214.635 37.0781C214.862 37.2888 215.044 37.5682 215.178 37.9162C215.313 38.2642 215.381 38.6927 215.381 39.2017V39.5568H211.176V38.8324H214.529C214.529 38.5246 214.467 38.25 214.344 38.0085C214.223 37.767 214.05 37.5765 213.825 37.4368C213.603 37.2971 213.34 37.2273 213.037 37.2273C212.703 37.2273 212.414 37.3101 212.171 37.4759C211.929 37.6392 211.743 37.8523 211.613 38.1151C211.483 38.3778 211.418 38.6596 211.418 38.9602V39.4432C211.418 39.8551 211.489 40.2043 211.631 40.4908C211.775 40.7749 211.975 40.9915 212.231 41.1406C212.487 41.2874 212.784 41.3608 213.122 41.3608C213.343 41.3608 213.541 41.33 213.719 41.2685C213.899 41.2045 214.054 41.1098 214.184 40.9844C214.314 40.8565 214.415 40.6979 214.486 40.5085L215.296 40.7358C215.21 41.0104 215.067 41.2519 214.866 41.4602C214.665 41.6662 214.416 41.8272 214.12 41.9432C213.824 42.0568 213.492 42.1136 213.122 42.1136ZM219.028 36.5455V37.2557H216.201V36.5455H219.028ZM217.025 35.2386H217.863V40.4375C217.863 40.6742 217.897 40.8518 217.966 40.9702C218.037 41.0862 218.127 41.1643 218.236 41.2045C218.347 41.2424 218.464 41.2614 218.588 41.2614C218.68 41.2614 218.756 41.2566 218.815 41.2472C218.874 41.2353 218.921 41.2259 218.957 41.2188L219.127 41.9716C219.07 41.9929 218.991 42.0142 218.889 42.0355C218.788 42.0592 218.659 42.071 218.502 42.071C218.266 42.071 218.034 42.0201 217.806 41.9183C217.581 41.8165 217.394 41.6615 217.245 41.4531C217.098 41.2448 217.025 40.982 217.025 40.6648V35.2386ZM188.993 50.7188V54H188.155V46.7273H188.993V49.3977H189.064C189.192 49.116 189.383 48.8923 189.639 48.7266C189.897 48.5585 190.24 48.4744 190.669 48.4744C191.041 48.4744 191.366 48.549 191.646 48.6982C191.925 48.8449 192.141 49.071 192.295 49.3764C192.452 49.6795 192.53 50.0653 192.53 50.5341V54H191.692V50.5909C191.692 50.1577 191.579 49.8227 191.354 49.5859C191.132 49.3468 190.823 49.2273 190.427 49.2273C190.153 49.2273 189.907 49.2853 189.689 49.4013C189.473 49.5173 189.303 49.6866 189.177 49.9091C189.054 50.1316 188.993 50.4015 188.993 50.7188ZM196.279 54.1136C195.786 54.1136 195.354 53.9964 194.983 53.7621C194.613 53.5277 194.325 53.1998 194.116 52.7784C193.91 52.357 193.807 51.8646 193.807 51.3011C193.807 50.733 193.91 50.237 194.116 49.8132C194.325 49.3894 194.613 49.0604 194.983 48.826C195.354 48.5916 195.786 48.4744 196.279 48.4744C196.771 48.4744 197.202 48.5916 197.571 48.826C197.943 49.0604 198.232 49.3894 198.438 49.8132C198.646 50.237 198.75 50.733 198.75 51.3011C198.75 51.8646 198.646 52.357 198.438 52.7784C198.232 53.1998 197.943 53.5277 197.571 53.7621C197.202 53.9964 196.771 54.1136 196.279 54.1136ZM196.279 53.3608C196.653 53.3608 196.961 53.2649 197.202 53.0732C197.444 52.8814 197.622 52.6293 197.738 52.3168C197.854 52.0043 197.912 51.6657 197.912 51.3011C197.912 50.9366 197.854 50.5968 197.738 50.282C197.622 49.9671 197.444 49.7126 197.202 49.5185C196.961 49.3243 196.653 49.2273 196.279 49.2273C195.905 49.2273 195.597 49.3243 195.356 49.5185C195.114 49.7126 194.935 49.9671 194.819 50.282C194.703 50.5968 194.645 50.9366 194.645 51.3011C194.645 51.6657 194.703 52.0043 194.819 52.3168C194.935 52.6293 195.114 52.8814 195.356 53.0732C195.597 53.2649 195.905 53.3608 196.279 53.3608ZM200.868 46.7273V54H200.03V46.7273H200.868ZM204.462 54.1136C204.008 54.1136 203.607 53.9988 203.259 53.7692C202.911 53.5372 202.638 53.2105 202.442 52.7891C202.245 52.3653 202.147 51.8646 202.147 51.2869C202.147 50.714 202.245 50.2169 202.442 49.7955C202.638 49.3741 202.912 49.0485 203.262 48.8189C203.613 48.5893 204.017 48.4744 204.477 48.4744C204.832 48.4744 205.112 48.5336 205.318 48.652C205.527 48.768 205.685 48.9006 205.794 49.0497C205.905 49.1965 205.992 49.3172 206.053 49.4119H206.124V46.7273H206.962V54H206.153V53.1619H206.053C205.992 53.2614 205.904 53.3868 205.791 53.5384C205.677 53.6875 205.515 53.8213 205.304 53.9396C205.093 54.0556 204.813 54.1136 204.462 54.1136ZM204.576 53.3608C204.912 53.3608 205.196 53.2732 205.428 53.098C205.66 52.9205 205.837 52.6754 205.957 52.3629C206.078 52.0481 206.139 51.6847 206.139 51.2727C206.139 50.8655 206.079 50.5092 205.961 50.2038C205.843 49.8961 205.667 49.657 205.435 49.4865C205.203 49.3137 204.917 49.2273 204.576 49.2273C204.221 49.2273 203.925 49.3184 203.688 49.5007C203.454 49.6806 203.278 49.9257 203.159 50.2358C203.043 50.5436 202.985 50.8892 202.985 51.2727C202.985 51.661 203.044 52.0137 203.163 52.331C203.283 52.6458 203.461 52.8968 203.695 53.0838C203.932 53.2685 204.226 53.3608 204.576 53.3608ZM210.901 54.1136C210.375 54.1136 209.922 53.9976 209.541 53.7656C209.162 53.5312 208.869 53.2045 208.663 52.7855C208.46 52.3641 208.358 51.8741 208.358 51.3153C208.358 50.7566 208.46 50.2642 208.663 49.8381C208.869 49.4096 209.156 49.0758 209.523 48.8366C209.892 48.5952 210.323 48.4744 210.815 48.4744C211.1 48.4744 211.38 48.5218 211.657 48.6165C211.934 48.7112 212.186 48.8651 212.413 49.0781C212.641 49.2888 212.822 49.5682 212.957 49.9162C213.092 50.2642 213.159 50.6927 213.159 51.2017V51.5568H208.955V50.8324H212.307C212.307 50.5246 212.245 50.25 212.122 50.0085C212.002 49.767 211.829 49.5765 211.604 49.4368C211.381 49.2971 211.118 49.2273 210.815 49.2273C210.482 49.2273 210.193 49.3101 209.949 49.4759C209.707 49.6392 209.522 49.8523 209.391 50.1151C209.261 50.3778 209.196 50.6596 209.196 50.9602V51.4432C209.196 51.8551 209.267 52.2043 209.409 52.4908C209.554 52.7749 209.754 52.9915 210.009 53.1406C210.265 53.2874 210.562 53.3608 210.901 53.3608C211.121 53.3608 211.32 53.33 211.497 53.2685C211.677 53.2045 211.832 53.1098 211.962 52.9844C212.093 52.8565 212.193 52.6979 212.264 52.5085L213.074 52.7358C212.989 53.0104 212.845 53.2519 212.644 53.4602C212.443 53.6662 212.194 53.8272 211.899 53.9432C211.603 54.0568 211.27 54.1136 210.901 54.1136ZM214.434 54V48.5455H215.244V49.3693H215.301C215.4 49.0994 215.58 48.8804 215.84 48.7124C216.101 48.5443 216.394 48.4602 216.721 48.4602C216.783 48.4602 216.859 48.4614 216.952 48.4638C217.044 48.4661 217.114 48.4697 217.161 48.4744V49.3267C217.133 49.3196 217.068 49.3089 216.966 49.2947C216.867 49.2782 216.761 49.2699 216.65 49.2699C216.385 49.2699 216.148 49.3255 215.94 49.4368C215.734 49.5457 215.57 49.6972 215.45 49.8913C215.331 50.0831 215.272 50.3021 215.272 50.5483V54H214.434ZM222.018 49.767L221.266 49.9801C221.218 49.8546 221.148 49.7327 221.056 49.6143C220.966 49.4936 220.843 49.3942 220.687 49.3161C220.53 49.2379 220.33 49.1989 220.087 49.1989C219.753 49.1989 219.475 49.2758 219.252 49.4297C219.032 49.5812 218.922 49.7741 218.922 50.0085C218.922 50.2169 218.998 50.3814 219.149 50.5021C219.301 50.6229 219.537 50.7235 219.859 50.804L220.669 51.0028C221.157 51.1212 221.52 51.3023 221.759 51.5462C221.998 51.7876 222.118 52.099 222.118 52.4801C222.118 52.7926 222.028 53.072 221.848 53.3182C221.67 53.5644 221.422 53.7585 221.102 53.9006C220.783 54.0426 220.411 54.1136 219.987 54.1136C219.431 54.1136 218.97 53.9929 218.606 53.7514C218.241 53.5099 218.01 53.1572 217.913 52.6932L218.709 52.4943C218.784 52.7879 218.928 53.008 219.138 53.1548C219.351 53.3016 219.63 53.375 219.973 53.375C220.364 53.375 220.674 53.2921 220.903 53.1264C221.135 52.9583 221.251 52.7571 221.251 52.5227C221.251 52.3333 221.185 52.1747 221.052 52.0469C220.92 51.9167 220.716 51.8196 220.442 51.7557L219.533 51.5426C219.033 51.4242 218.666 51.2408 218.432 50.9922C218.2 50.7412 218.084 50.4276 218.084 50.0511C218.084 49.7434 218.17 49.4711 218.343 49.2344C218.518 48.9976 218.756 48.8118 219.057 48.6768C219.36 48.5419 219.703 48.4744 220.087 48.4744C220.626 48.4744 221.05 48.5928 221.358 48.8295C221.668 49.0663 221.888 49.3788 222.018 49.767Z" fill="white"/>
<path d="M377.395 37H376.514C376.462 36.7467 376.371 36.5241 376.241 36.3324C376.113 36.1406 375.957 35.9796 375.772 35.8494C375.59 35.7169 375.387 35.6174 375.165 35.5511C374.942 35.4848 374.71 35.4517 374.469 35.4517C374.029 35.4517 373.63 35.563 373.272 35.7855C372.917 36.008 372.634 36.3359 372.423 36.7692C372.215 37.2024 372.111 37.7339 372.111 38.3636C372.111 38.9934 372.215 39.5249 372.423 39.9581C372.634 40.3913 372.917 40.7192 373.272 40.9418C373.63 41.1643 374.029 41.2756 374.469 41.2756C374.71 41.2756 374.942 41.2424 375.165 41.1761C375.387 41.1098 375.59 41.0116 375.772 40.8814C375.957 40.7488 376.113 40.5866 376.241 40.3949C376.371 40.2008 376.462 39.9782 376.514 39.7273H377.395C377.329 40.099 377.208 40.4316 377.033 40.7251C376.858 41.0187 376.64 41.2685 376.379 41.4744C376.119 41.678 375.827 41.8331 375.502 41.9396C375.18 42.0462 374.836 42.0994 374.469 42.0994C373.849 42.0994 373.297 41.9479 372.814 41.6449C372.331 41.3419 371.951 40.911 371.674 40.3523C371.397 39.7936 371.259 39.1307 371.259 38.3636C371.259 37.5966 371.397 36.9337 371.674 36.375C371.951 35.8163 372.331 35.3854 372.814 35.0824C373.297 34.7794 373.849 34.6278 374.469 34.6278C374.836 34.6278 375.18 34.6811 375.502 34.7876C375.827 34.8942 376.119 35.0504 376.379 35.2564C376.64 35.46 376.858 35.7086 377.033 36.0021C377.208 36.2933 377.329 36.6259 377.395 37ZM380.31 42.1278C379.964 42.1278 379.65 42.0627 379.369 41.9325C379.087 41.8 378.863 41.6094 378.697 41.3608C378.532 41.1098 378.449 40.8068 378.449 40.4517C378.449 40.1392 378.51 39.8859 378.634 39.6918C378.757 39.4953 378.921 39.3414 379.127 39.2301C379.333 39.1188 379.56 39.036 379.809 38.9815C380.06 38.9247 380.312 38.8797 380.565 38.8466C380.897 38.804 381.165 38.772 381.371 38.7507C381.58 38.727 381.731 38.688 381.826 38.6335C381.923 38.5791 381.972 38.4844 381.972 38.3494V38.321C381.972 37.9706 381.876 37.6984 381.684 37.5043C381.495 37.3101 381.207 37.2131 380.821 37.2131C380.421 37.2131 380.107 37.3007 379.88 37.4759C379.653 37.651 379.493 37.8381 379.401 38.0369L378.605 37.7528C378.747 37.4214 378.937 37.1634 379.173 36.9787C379.412 36.7917 379.673 36.6615 379.955 36.5881C380.239 36.5123 380.518 36.4744 380.793 36.4744C380.968 36.4744 381.169 36.4957 381.396 36.5384C381.626 36.5786 381.847 36.6626 382.06 36.7905C382.276 36.9183 382.455 37.1113 382.597 37.3693C382.739 37.6274 382.81 37.973 382.81 38.4062V42H381.972V41.2614H381.929C381.872 41.3797 381.777 41.5064 381.645 41.6413C381.512 41.7763 381.336 41.8911 381.116 41.9858C380.896 42.0805 380.627 42.1278 380.31 42.1278ZM380.438 41.375C380.769 41.375 381.048 41.3099 381.276 41.1797C381.505 41.0495 381.678 40.8814 381.794 40.6754C381.912 40.4695 381.972 40.2528 381.972 40.0256V39.2585C381.936 39.3011 381.858 39.3402 381.737 39.3757C381.619 39.4089 381.482 39.4384 381.325 39.4645C381.171 39.4882 381.021 39.5095 380.874 39.5284C380.73 39.545 380.613 39.5592 380.523 39.571C380.305 39.5994 380.101 39.6456 379.912 39.7095C379.725 39.7711 379.573 39.8646 379.457 39.9901C379.344 40.1132 379.287 40.2812 379.287 40.4943C379.287 40.7855 379.395 41.0057 379.61 41.1548C379.828 41.3016 380.104 41.375 380.438 41.375ZM384.339 42V36.5455H385.149V37.3693H385.206C385.305 37.0994 385.485 36.8804 385.746 36.7124C386.006 36.5443 386.3 36.4602 386.626 36.4602C386.688 36.4602 386.765 36.4614 386.857 36.4638C386.949 36.4661 387.019 36.4697 387.067 36.4744V37.3267C387.038 37.3196 386.973 37.3089 386.871 37.2947C386.772 37.2782 386.666 37.2699 386.555 37.2699C386.29 37.2699 386.053 37.3255 385.845 37.4368C385.639 37.5457 385.476 37.6972 385.355 37.8913C385.237 38.0831 385.177 38.3021 385.177 38.5483V42H384.339ZM389.954 42.1136C389.499 42.1136 389.098 41.9988 388.75 41.7692C388.402 41.5372 388.13 41.2105 387.933 40.7891C387.737 40.3653 387.638 39.8646 387.638 39.2869C387.638 38.714 387.737 38.2169 387.933 37.7955C388.13 37.3741 388.403 37.0485 388.753 36.8189C389.104 36.5893 389.509 36.4744 389.968 36.4744C390.323 36.4744 390.604 36.5336 390.809 36.652C391.018 36.768 391.176 36.9006 391.285 37.0497C391.397 37.1965 391.483 37.3172 391.545 37.4119H391.616V34.7273H392.454V42H391.644V41.1619H391.545C391.483 41.2614 391.395 41.3868 391.282 41.5384C391.168 41.6875 391.006 41.8213 390.795 41.9396C390.585 42.0556 390.304 42.1136 389.954 42.1136ZM390.067 41.3608C390.403 41.3608 390.688 41.2732 390.92 41.098C391.152 40.9205 391.328 40.6754 391.449 40.3629C391.569 40.0481 391.63 39.6847 391.63 39.2727C391.63 38.8655 391.571 38.5092 391.452 38.2038C391.334 37.8961 391.159 37.657 390.927 37.4865C390.695 37.3137 390.408 37.2273 390.067 37.2273C389.712 37.2273 389.416 37.3184 389.18 37.5007C388.945 37.6806 388.769 37.9257 388.65 38.2358C388.534 38.5436 388.476 38.8892 388.476 39.2727C388.476 39.661 388.536 40.0137 388.654 40.331C388.775 40.6458 388.952 40.8968 389.187 41.0838C389.423 41.2685 389.717 41.3608 390.067 41.3608ZM356.048 54V48.5455H356.886V54H356.048ZM356.474 47.6364C356.311 47.6364 356.17 47.5807 356.052 47.4695C355.936 47.3582 355.878 47.2244 355.878 47.0682C355.878 46.9119 355.936 46.7782 356.052 46.6669C356.17 46.5556 356.311 46.5 356.474 46.5C356.638 46.5 356.777 46.5556 356.893 46.6669C357.012 46.7782 357.071 46.9119 357.071 47.0682C357.071 47.2244 357.012 47.3582 356.893 47.4695C356.777 47.5807 356.638 47.6364 356.474 47.6364ZM359.259 50.7188V54H358.421V48.5455H359.231V49.3977H359.302C359.43 49.1207 359.624 48.8982 359.884 48.7301C360.145 48.5597 360.481 48.4744 360.893 48.4744C361.262 48.4744 361.585 48.5502 361.862 48.7017C362.139 48.8509 362.355 49.0781 362.509 49.3835C362.663 49.6866 362.74 50.0701 362.74 50.5341V54H361.901V50.5909C361.901 50.1624 361.79 49.8286 361.568 49.5895C361.345 49.348 361.04 49.2273 360.651 49.2273C360.384 49.2273 360.145 49.2853 359.934 49.4013C359.726 49.5173 359.561 49.6866 359.441 49.9091C359.32 50.1316 359.259 50.4015 359.259 50.7188ZM366.7 48.5455V49.2557H363.76V48.5455H366.7ZM364.64 54V47.7926C364.64 47.4801 364.714 47.2197 364.86 47.0114C365.007 46.803 365.198 46.6468 365.432 46.5426C365.667 46.4384 365.914 46.3864 366.174 46.3864C366.38 46.3864 366.548 46.4029 366.679 46.4361C366.809 46.4692 366.906 46.5 366.97 46.5284L366.728 47.2528C366.686 47.2386 366.627 47.2209 366.551 47.1996C366.477 47.1783 366.38 47.1676 366.26 47.1676C365.983 47.1676 365.783 47.2375 365.659 47.3771C365.539 47.5168 365.478 47.7216 365.478 47.9915V54H364.64ZM369.866 54.1136C369.373 54.1136 368.941 53.9964 368.57 53.7621C368.2 53.5277 367.911 53.1998 367.703 52.7784C367.497 52.357 367.394 51.8646 367.394 51.3011C367.394 50.733 367.497 50.237 367.703 49.8132C367.911 49.3894 368.2 49.0604 368.57 48.826C368.941 48.5916 369.373 48.4744 369.866 48.4744C370.358 48.4744 370.789 48.5916 371.158 48.826C371.53 49.0604 371.819 49.3894 372.025 49.8132C372.233 50.237 372.337 50.733 372.337 51.3011C372.337 51.8646 372.233 52.357 372.025 52.7784C371.819 53.1998 371.53 53.5277 371.158 53.7621C370.789 53.9964 370.358 54.1136 369.866 54.1136ZM369.866 53.3608C370.24 53.3608 370.548 53.2649 370.789 53.0732C371.031 52.8814 371.209 52.6293 371.325 52.3168C371.441 52.0043 371.499 51.6657 371.499 51.3011C371.499 50.9366 371.441 50.5968 371.325 50.282C371.209 49.9671 371.031 49.7126 370.789 49.5185C370.548 49.3243 370.24 49.2273 369.866 49.2273C369.492 49.2273 369.184 49.3243 368.942 49.5185C368.701 49.7126 368.522 49.9671 368.406 50.282C368.29 50.5968 368.232 50.9366 368.232 51.3011C368.232 51.6657 368.29 52.0043 368.406 52.3168C368.522 52.6293 368.701 52.8814 368.942 53.0732C369.184 53.2649 369.492 53.3608 369.866 53.3608ZM373.617 54V48.5455H374.426V49.3693H374.483C374.583 49.0994 374.762 48.8804 375.023 48.7124C375.283 48.5443 375.577 48.4602 375.904 48.4602C375.965 48.4602 376.042 48.4614 376.134 48.4638C376.227 48.4661 376.297 48.4697 376.344 48.4744V49.3267C376.316 49.3196 376.25 49.3089 376.149 49.2947C376.049 49.2782 375.944 49.2699 375.833 49.2699C375.567 49.2699 375.331 49.3255 375.122 49.4368C374.916 49.5457 374.753 49.6972 374.632 49.8913C374.514 50.0831 374.455 50.3021 374.455 50.5483V54H373.617ZM377.337 54V48.5455H378.147V49.3977H378.218C378.332 49.1065 378.515 48.8804 378.768 48.7195C379.022 48.5561 379.326 48.4744 379.681 48.4744C380.041 48.4744 380.34 48.5561 380.58 48.7195C380.821 48.8804 381.009 49.1065 381.144 49.3977H381.201C381.341 49.116 381.55 48.8923 381.83 48.7266C382.109 48.5585 382.444 48.4744 382.835 48.4744C383.322 48.4744 383.721 48.6271 384.031 48.9325C384.341 49.2356 384.496 49.7079 384.496 50.3494V54H383.658V50.3494C383.658 49.947 383.548 49.6593 383.328 49.4865C383.108 49.3137 382.849 49.2273 382.55 49.2273C382.167 49.2273 381.87 49.3433 381.659 49.5753C381.448 49.8049 381.343 50.0961 381.343 50.4489V54H380.491V50.2642C380.491 49.9541 380.39 49.7043 380.189 49.5149C379.988 49.3232 379.728 49.2273 379.411 49.2273C379.193 49.2273 378.99 49.2853 378.8 49.4013C378.613 49.5173 378.462 49.6783 378.346 49.8842C378.232 50.0878 378.175 50.3234 378.175 50.5909V54H377.337ZM387.634 54.1278C387.288 54.1278 386.975 54.0627 386.693 53.9325C386.411 53.8 386.187 53.6094 386.022 53.3608C385.856 53.1098 385.773 52.8068 385.773 52.4517C385.773 52.1392 385.835 51.8859 385.958 51.6918C386.081 51.4953 386.245 51.3414 386.451 51.2301C386.657 51.1188 386.885 51.036 387.133 50.9815C387.384 50.9247 387.636 50.8797 387.89 50.8466C388.221 50.804 388.49 50.772 388.696 50.7507C388.904 50.727 389.056 50.688 389.15 50.6335C389.247 50.5791 389.296 50.4844 389.296 50.3494V50.321C389.296 49.9706 389.2 49.6984 389.008 49.5043C388.819 49.3101 388.531 49.2131 388.145 49.2131C387.745 49.2131 387.431 49.3007 387.204 49.4759C386.977 49.651 386.817 49.8381 386.725 50.0369L385.929 49.7528C386.071 49.4214 386.261 49.1634 386.498 48.9787C386.737 48.7917 386.997 48.6615 387.279 48.5881C387.563 48.5123 387.842 48.4744 388.117 48.4744C388.292 48.4744 388.493 48.4957 388.721 48.5384C388.95 48.5786 389.172 48.6626 389.385 48.7905C389.6 48.9183 389.779 49.1113 389.921 49.3693C390.063 49.6274 390.134 49.973 390.134 50.4062V54H389.296V53.2614H389.253C389.196 53.3797 389.102 53.5064 388.969 53.6413C388.837 53.7763 388.66 53.8911 388.44 53.9858C388.22 54.0805 387.951 54.1278 387.634 54.1278ZM387.762 53.375C388.093 53.375 388.373 53.3099 388.6 53.1797C388.829 53.0495 389.002 52.8814 389.118 52.6754C389.237 52.4695 389.296 52.2528 389.296 52.0256V51.2585C389.26 51.3011 389.182 51.3402 389.061 51.3757C388.943 51.4089 388.806 51.4384 388.65 51.4645C388.496 51.4882 388.345 51.5095 388.199 51.5284C388.054 51.545 387.937 51.5592 387.847 51.571C387.629 51.5994 387.426 51.6456 387.236 51.7095C387.049 51.7711 386.898 51.8646 386.782 51.9901C386.668 52.1132 386.611 52.2812 386.611 52.4943C386.611 52.7855 386.719 53.0057 386.934 53.1548C387.152 53.3016 387.428 53.375 387.762 53.375ZM394.036 48.5455V49.2557H391.209V48.5455H394.036ZM392.033 47.2386H392.871V52.4375C392.871 52.6742 392.905 52.8518 392.974 52.9702C393.045 53.0862 393.135 53.1643 393.244 53.2045C393.355 53.2424 393.472 53.2614 393.595 53.2614C393.688 53.2614 393.763 53.2566 393.823 53.2472C393.882 53.2353 393.929 53.2259 393.965 53.2188L394.135 53.9716C394.078 53.9929 393.999 54.0142 393.897 54.0355C393.795 54.0592 393.666 54.071 393.51 54.071C393.273 54.071 393.041 54.0201 392.814 53.9183C392.589 53.8165 392.402 53.6615 392.253 53.4531C392.106 53.2448 392.033 52.982 392.033 52.6648V47.2386ZM395.296 54V48.5455H396.134V54H395.296ZM395.722 47.6364C395.559 47.6364 395.418 47.5807 395.3 47.4695C395.184 47.3582 395.126 47.2244 395.126 47.0682C395.126 46.9119 395.184 46.7782 395.3 46.6669C395.418 46.5556 395.559 46.5 395.722 46.5C395.886 46.5 396.026 46.5556 396.142 46.6669C396.26 46.7782 396.319 46.9119 396.319 47.0682C396.319 47.2244 396.26 47.3582 396.142 47.4695C396.026 47.5807 395.886 47.6364 395.722 47.6364ZM399.885 54.1136C399.393 54.1136 398.961 53.9964 398.589 53.7621C398.22 53.5277 397.931 53.1998 397.723 52.7784C397.517 52.357 397.414 51.8646 397.414 51.3011C397.414 50.733 397.517 50.237 397.723 49.8132C397.931 49.3894 398.22 49.0604 398.589 48.826C398.961 48.5916 399.393 48.4744 399.885 48.4744C400.378 48.4744 400.809 48.5916 401.178 48.826C401.55 49.0604 401.838 49.3894 402.044 49.8132C402.253 50.237 402.357 50.733 402.357 51.3011C402.357 51.8646 402.253 52.357 402.044 52.7784C401.838 53.1998 401.55 53.5277 401.178 53.7621C400.809 53.9964 400.378 54.1136 399.885 54.1136ZM399.885 53.3608C400.259 53.3608 400.567 53.2649 400.809 53.0732C401.05 52.8814 401.229 52.6293 401.345 52.3168C401.461 52.0043 401.519 51.6657 401.519 51.3011C401.519 50.9366 401.461 50.5968 401.345 50.282C401.229 49.9671 401.05 49.7126 400.809 49.5185C400.567 49.3243 400.259 49.2273 399.885 49.2273C399.511 49.2273 399.203 49.3243 398.962 49.5185C398.721 49.7126 398.542 49.9671 398.426 50.282C398.31 50.5968 398.252 50.9366 398.252 51.3011C398.252 51.6657 398.31 52.0043 398.426 52.3168C398.542 52.6293 398.721 52.8814 398.962 53.0732C399.203 53.2649 399.511 53.3608 399.885 53.3608ZM404.474 50.7188V54H403.636V48.5455H404.446V49.3977H404.517C404.645 49.1207 404.839 48.8982 405.099 48.7301C405.36 48.5597 405.696 48.4744 406.108 48.4744C406.477 48.4744 406.8 48.5502 407.077 48.7017C407.354 48.8509 407.57 49.0781 407.724 49.3835C407.877 49.6866 407.954 50.0701 407.954 50.5341V54H407.116V50.5909C407.116 50.1624 407.005 49.8286 406.782 49.5895C406.56 49.348 406.255 49.2273 405.866 49.2273C405.599 49.2273 405.36 49.2853 405.149 49.4013C404.941 49.5173 404.776 49.6866 404.655 49.9091C404.535 50.1316 404.474 50.4015 404.474 50.7188Z" fill="white"/>
</svg>
