<svg width="47" height="47" viewBox="0 0 47 47" fill="none" xmlns="http://www.w3.org/2000/svg">
<path d="M39.3169 46.0021H8.59778C8.36739 45.9535 8.137 45.9022 7.90661 45.8545C3.80462 45.005 0.968857 41.5365 0.962557 37.332C0.958958 27.7816 0.961357 18.2313 0.969757 8.68097C0.96265 8.12807 1.00542 7.57566 1.09755 7.03045C1.46396 5.06538 2.50373 3.28942 4.038 2.00809C5.57227 0.72677 7.50512 0.0201877 9.50403 0.00989951C19.142 -0.00329984 28.7799 -0.00329984 38.4178 0.00989951C40.2038 0.0138146 41.9438 0.57698 43.3934 1.62033C44.8431 2.66368 45.9295 4.13482 46.5003 5.82721C46.7019 6.41488 46.8063 7.03495 46.9557 7.63972V38.366C46.9211 38.43 46.8936 38.4976 46.8738 38.5676C46.3149 42.0774 44.2846 44.3687 41.0016 45.5944C40.4616 45.7942 39.8784 45.8698 39.3169 46.0021ZM24.6656 42.7686C27.9513 42.6156 31.9858 42.432 36.0194 42.2349C37.3289 42.1719 38.3449 41.5545 39.1252 40.5151C39.7335 39.7051 39.9477 38.7467 40.0251 37.7828C40.1943 35.6823 40.3383 33.5764 40.3905 31.4714C40.4526 28.9732 40.3581 26.4776 39.9567 24.0018C39.6651 22.2019 38.7607 20.9024 36.995 20.3705C36.2066 20.1329 35.3454 20.078 34.5138 20.0492C31.0148 19.9295 27.5148 19.8071 24.0149 19.7693C19.9147 19.7252 15.8136 19.7855 11.7287 20.2013C9.82082 20.3957 8.32419 21.7897 8.05961 23.6949C7.85532 25.1736 7.66363 26.6648 7.59253 28.1497C7.42334 31.6946 7.41254 35.2378 8.04791 38.753C8.35929 40.4737 9.64533 41.8497 11.3642 42.1548C12.1595 42.2928 12.9632 42.3761 13.7698 42.4041C17.1501 42.5319 20.5303 42.6327 24.6656 42.7686ZM31.9012 6.66777V7.24914C31.9012 9.68982 31.8796 12.1305 31.9156 14.5703C31.9255 15.2335 31.5952 15.6034 31.1057 15.8986C30.5243 16.2514 30.1544 16.0435 30.1499 15.3649C30.1319 12.6399 30.1274 9.91571 30.1175 7.19064V6.67227H28.1601C28.1484 6.79466 28.1295 6.89726 28.1304 6.99895C28.1421 10.0534 28.1511 13.107 28.1754 16.1605C28.1768 16.4738 28.2303 16.7846 28.3338 17.0803C28.5948 17.8002 29.4371 18.1008 30.2606 17.7102C30.8276 17.4402 31.3289 17.038 31.9057 16.6645V17.6877H33.8649V6.66777H31.9012ZM12.8645 2.88796C12.9239 3.08865 12.9698 3.25964 13.0265 3.42793C13.5115 4.86786 13.966 6.32399 14.4916 7.74772C15.3429 10.0606 15.7956 12.423 15.6111 14.8988C15.5535 15.6727 15.6021 16.4539 15.6021 17.2323V17.6823H17.8151V17.1666C17.8151 15.5062 17.8079 13.8449 17.8223 12.1836C17.8238 11.8564 17.8711 11.5311 17.9627 11.217C18.5027 9.40093 19.0634 7.59112 19.615 5.77951C19.9048 4.82646 20.1901 3.87251 20.4943 2.86276C19.84 2.86276 19.2434 2.87626 18.6485 2.85646C18.3569 2.84656 18.2435 2.94195 18.1697 3.23534C17.7485 4.91286 17.2994 6.58407 16.8576 8.25709C16.8315 8.35789 16.7865 8.45328 16.7208 8.63147C16.1808 6.65157 15.6633 4.75536 15.1531 2.88526L12.8645 2.88796ZM26.3836 12.1944C26.3836 11.1927 26.4556 10.1839 26.3665 9.19034C26.2207 7.56143 25.1453 6.58767 23.5766 6.52918C22.0575 6.47158 20.9047 7.33914 20.6887 8.94736C20.3914 11.1156 20.3947 13.3146 20.6986 15.4819C20.9191 17.0236 22.0782 17.9118 23.5334 17.8776C25.0706 17.8398 26.2171 16.8256 26.3611 15.2434C26.4583 14.2346 26.3836 13.2113 26.3836 12.1944Z" fill="white" fill-opacity="0.8"/>
<path d="M24.6313 23.5791H26.622V28.2589C27.0621 27.9475 27.4248 27.6109 27.8505 27.4048C28.9214 26.8855 29.9087 27.2788 30.2129 28.4173C30.4136 29.1705 30.4469 29.9823 30.455 30.7697C30.4757 32.5949 30.4442 34.4218 30.4145 36.2469C30.405 36.5758 30.348 36.9017 30.2453 37.2143C29.8412 38.4815 28.6505 38.8801 27.5454 38.1143C27.2448 37.9082 26.982 37.6472 26.6454 37.3673V38.3195H24.6313V23.5791ZM26.6427 32.8135C26.6427 33.8305 26.6382 34.8483 26.6472 35.8662C26.6472 36.0039 26.6778 36.2262 26.7615 36.264C27.0855 36.4179 27.4338 36.5997 27.7776 36.6105C28.1448 36.6213 28.305 36.2658 28.3797 35.9265C28.4234 35.7536 28.4482 35.5765 28.4535 35.3982C28.4598 33.6883 28.4643 31.9865 28.4535 30.2802C28.4434 30.0129 28.3899 29.7491 28.2951 29.499C28.152 29.0913 27.8388 28.9428 27.4032 29.0247C26.9307 29.1147 26.6481 29.4018 26.6472 29.805C26.6373 30.8084 26.6391 31.811 26.6391 32.8144L26.6427 32.8135Z" fill="white" fill-opacity="0.8"/>
<path d="M37.9614 33.1949H34.0394C34.0394 34.0534 34.0043 34.8607 34.0592 35.6616C34.0781 35.9424 34.2518 36.3087 34.4732 36.4527C34.6946 36.5967 35.1032 36.6129 35.3894 36.5427C35.7493 36.4527 35.8852 36.0873 35.9023 35.7264C35.9221 35.3422 35.9068 34.9561 35.9068 34.5448H37.9119C38.19 36.0648 37.7229 37.4103 36.6322 38.0726C35.1491 38.9726 32.4924 38.4812 32.1504 36.1071C31.9974 35.0326 32.0109 33.9283 32.0109 32.8412C32.0109 31.7675 32.0109 30.6813 32.1423 29.6211C32.3286 28.1047 33.4356 27.2165 34.9844 27.1985C36.4477 27.1823 37.5528 28.0759 37.8462 29.5275C37.9106 29.8344 37.9473 30.1465 37.956 30.4599C37.9704 31.3536 37.9614 32.2481 37.9614 33.1949ZM35.9707 31.5191C35.9446 30.9351 35.9536 30.3825 35.8852 29.8398C35.8168 29.2972 35.4605 29.0173 34.9853 29.0128C34.4957 29.0083 34.1672 29.2612 34.0853 29.8227C34.0034 30.3843 34.0097 30.9396 33.9764 31.5209L35.9707 31.5191Z" fill="white" fill-opacity="0.8"/>
<path d="M17.204 27.3516H19.1839C19.1839 27.5316 19.1839 27.7025 19.1839 27.8744C19.1839 30.5392 19.1839 33.204 19.2019 35.8687C19.2019 36.1108 19.3045 36.5158 19.4431 36.5554C19.6824 36.6247 20.0271 36.532 20.253 36.3898C20.703 36.1126 20.9235 35.7094 20.9163 35.1254C20.8857 32.5515 20.9028 29.9767 20.9028 27.3651H22.889V38.3148H20.9325V37.1863C20.5617 37.4968 20.2809 37.7757 19.9569 37.9899C19.6794 38.1916 19.3669 38.3401 19.0354 38.4282C17.9032 38.6694 17.2517 38.0961 17.2274 36.8389C17.1959 35.1479 17.1905 33.456 17.1824 31.7649C17.1761 30.4618 17.1824 29.1596 17.1824 27.8573C17.1824 27.6944 17.1959 27.5388 17.204 27.3516Z" fill="white" fill-opacity="0.8"/>
<path d="M14.5167 38.3267H12.2938V25.6994H9.97375V23.5791H16.8656V25.6733H14.5167V38.3267Z" fill="white" fill-opacity="0.8"/>
<path d="M24.4119 12.1925C24.4119 13.1645 24.4569 14.1382 24.3975 15.1066C24.3507 15.8707 23.7756 16.2369 23.1762 15.9958C22.7902 15.8401 22.6651 15.5008 22.6156 15.1417C22.5594 14.7268 22.5332 14.3085 22.5373 13.8899C22.5499 12.3491 22.5535 10.8075 22.6273 9.26859C22.6417 8.9644 22.8811 8.57202 23.1375 8.39833C23.664 8.03835 24.3525 8.46763 24.3912 9.18939C24.4461 10.1874 24.4056 11.1909 24.4056 12.1925H24.4119Z" fill="white" fill-opacity="0.8"/>
</svg>
