<svg width="141" height="116" viewBox="0 0 141 116" fill="none" xmlns="http://www.w3.org/2000/svg">
<g clip-path="url(#clip0_189_983)">
<path d="M85.0496 92.3455C84.9468 92.3416 84.8447 92.3284 84.7443 92.3062H84.2786L84.0804 92.0251C83.7368 91.7895 83.479 91.4503 83.3451 91.0579C82.7347 90.9891 82.0172 90.6136 81.6446 89.3614C81.6404 89.3499 81.6371 89.3381 81.6347 89.326C81.4933 89.3501 81.35 89.3619 81.2066 89.3614C81.0586 89.3614 80.9109 89.3502 80.7646 89.328L78.7073 91.6103L78.0355 88.1407C77.9778 87.8178 77.9004 87.4987 77.8035 87.1853L77.3358 87.0437L76.9989 86.3636C76.8297 85.9863 76.6309 85.6229 76.4043 85.2765L73.2114 83.2025L73.4254 69.3653C73.4254 68.9584 73.4373 68.286 73.4433 67.6255C73.4433 67.1164 73.4433 66.6151 73.4571 66.2495C73.4571 66.0529 73.4571 65.8956 73.4571 65.7836C73.4604 65.6784 73.469 65.5734 73.4829 65.4691C73.4829 64.9933 73.5047 64.3505 73.5146 63.1357C73.1763 62.8318 72.9004 62.466 72.702 62.0584C72.4412 62.0122 72.1832 61.9518 71.9291 61.8775C71.7613 61.8242 71.5897 61.7835 71.4157 61.7557L71.0193 61.9699L70.514 61.9385C70.4704 61.9385 70.4267 61.9385 70.3831 61.9385C70.0883 61.9473 69.7944 61.9749 69.5032 62.021C69.0985 62.0846 68.6899 62.1201 68.2803 62.1272C67.8647 62.1326 67.451 62.0709 67.0554 61.9444H63.1312L69.2158 49.2925H74.1707L74.2539 41.2464L74.2658 40.0257C74.2658 39.2394 74.2816 38.4786 74.2876 38.0874C74.2876 38.0874 74.2876 37.2264 74.2876 37.2165C73.5503 37.2008 72.9874 36.847 72.5752 36.5875C72.5038 36.5443 72.4107 36.4833 72.3354 36.442H72.268L71.9905 36.385L71.6238 36.3103C71.0767 36.173 70.5169 36.0913 69.9531 36.0666C69.7426 36.0645 69.5327 36.0896 69.3287 36.1413L68.7223 36.3005L68.2545 36.0901C68.1515 36.1098 67.977 36.1629 67.8581 36.2022C67.3938 36.364 66.9072 36.4542 66.4153 36.4695C65.8028 36.4732 65.2046 36.2862 64.7049 35.9349L57.0664 35.4434L73.5741 22.2096L74.3669 22.359C82.7844 23.9121 91.3306 24.6756 99.8924 24.6394C110.813 24.6394 121.496 23.5346 131.405 22.3413L136.305 21.7516L120.041 38.6083L117.532 38.5513C117.15 38.6843 116.747 38.7508 116.343 38.7479C115.718 38.726 115.099 38.6243 114.501 38.4452C114.045 38.3067 113.573 38.2229 113.096 38.1955C112.886 38.1925 112.677 38.2285 112.48 38.3017L111.328 38.7361L110.528 37.8083C109.957 37.1536 109.511 37.0632 109.116 37.0632C108.417 37.0632 107.531 37.3994 106.603 37.7552C106.252 37.8889 105.89 38.0284 105.517 38.1483L105 38.3253L104.518 38.1936C104.122 38.2132 103.091 38.7931 102.475 39.1411C101.325 39.7937 100.237 40.409 99.1056 40.409C98.7479 40.4158 98.3926 40.3496 98.0618 40.2143C97.7311 40.079 97.4319 39.8776 97.1831 39.6227C96.8439 39.2636 96.5972 38.8286 96.4636 38.3548C95.542 38.1759 94.7948 37.6431 94.222 37.2342L94.1864 37.2107L93.8613 37.997L92.2976 37.9616L92.0994 49.2846H105.801L102.431 56.3065C102.213 56.8607 101.932 57.3884 101.593 57.8791C101.31 58.2678 101.112 58.7111 101.012 59.1805L100.759 60.2105L100.437 60.2892C100.414 60.3678 100.396 60.4386 100.384 60.4857C100.023 61.7851 99.1234 61.9798 98.618 61.9817H98.0968L97.7261 62.4732L96.4557 61.7734C96.2456 61.7845 96.0365 61.8088 95.8294 61.8461C95.4045 61.9197 94.9744 61.9605 94.5431 61.968C94.3684 61.9679 94.1937 61.9587 94.0199 61.9404L93.7345 61.909L93.4748 61.7891C93.3951 61.7568 93.3091 61.7427 93.2231 61.7478C92.9834 61.759 92.7448 61.7886 92.5097 61.8363C92.1911 61.8988 91.8686 61.9395 91.5444 61.9581L91.3462 73.12L103.182 78.5928L93.021 85.1389C92.4513 85.4899 91.8321 85.755 91.1837 85.9252L90.7556 86.0549L89.1007 90.993L88.5279 88.8523L87.9333 90.7866L87.6776 89.8588L87.2158 91.0795L86.2645 101.021L85.0496 92.3455Z" fill="#F1F2F2"/>
<path d="M131.63 24.0732L119.314 36.8391L117.186 36.788C116.931 36.9324 116.642 37.0052 116.349 36.9983C115.424 36.9983 114.322 36.444 113.103 36.444C112.679 36.4414 112.259 36.5161 111.862 36.6642C110.986 35.6596 110.064 35.3137 109.115 35.3137C107.761 35.3137 106.35 36.0194 104.941 36.4931C104.812 36.4584 104.679 36.4412 104.545 36.442C102.902 36.442 100.498 38.6575 99.1141 38.6575C98.4066 38.6575 97.9646 38.0795 98.026 36.3319C97.765 36.5401 97.4413 36.6557 97.1064 36.6602C95.8836 36.6602 94.7717 35.1033 93.8243 35.1033C93.418 35.1033 93.0434 35.3903 92.7026 36.2061L90.5739 36.157L90.3123 51.0302H103.011C103.011 51.0302 102.737 51.6023 102.323 52.4614C101.909 53.3204 101.36 54.4625 100.811 55.6066C100.26 57.0259 99.7088 57.0771 99.2965 58.7519C98.916 58.8443 98.6523 60.2125 98.6147 60.2125C98.6147 60.2125 98.6147 60.2125 98.6147 60.181C98.6147 59.6365 98.476 59.3613 98.2342 59.3613C97.9924 59.3613 97.6515 59.6346 97.2432 60.181C96.9989 60.0548 96.7257 59.9938 96.4504 60.0041C95.8558 60.0041 95.2058 60.2007 94.5378 60.2007C94.4286 60.2017 94.3193 60.1958 94.2108 60.183C93.8988 60.0469 93.5606 59.9799 93.2198 59.9864C92.5539 59.9864 91.9177 60.2007 91.3806 60.2007C91.3143 60.2008 91.2481 60.1968 91.1824 60.1889H89.8069L89.5512 74.2149L99.5423 78.8345L92.0485 83.6508C91.6147 83.9147 91.1438 84.1134 90.6512 84.2405C90.4352 84.0675 90.2211 83.8945 90.0091 83.8945C89.797 83.8945 89.5314 84.1166 89.2975 84.8125C89.0637 83.9181 88.8338 83.4955 88.6098 83.4955C88.3858 83.4955 88.2134 83.8198 88.0311 84.439C87.9558 84.1638 87.8825 84.0459 87.8091 84.0459C87.488 84.0459 87.1828 86.2201 86.8974 86.9749C86.6576 86.3852 86.4297 84.7634 86.2176 84.7634C86.1225 84.7634 86.0194 85.1015 85.9401 86.0372C85.9025 85.7778 85.8668 85.6637 85.8311 85.6637C85.5972 85.6637 85.3891 90.5566 85.2127 90.5566C85.2127 90.5566 85.2127 90.5566 85.2008 90.5566C85.1908 90.5703 85.1781 90.5819 85.1634 90.5907C85.1488 90.5994 85.1325 90.6053 85.1156 90.6077C84.9511 90.6077 84.8183 89.8961 84.7192 86.5523C84.6083 86.8491 84.5508 86.4501 84.5508 88.4945C84.5508 89.2395 84.5369 89.6582 84.5091 89.6582C84.4814 89.6582 84.4279 89.0685 84.3625 87.7593C84.307 86.4815 84.2396 85.8996 84.1643 85.8996C84.089 85.8996 83.9661 86.7508 83.8413 88.2586C83.758 89.0331 83.6668 89.3319 83.5697 89.3319C83.2466 89.3319 82.8602 86.0097 82.4301 86.0097C82.3131 86.0097 82.1922 86.2554 82.0694 86.8825C81.7939 87.4841 81.5025 87.6236 81.2052 87.6236C80.9436 87.6236 80.678 87.5175 80.4125 87.5175C80.2892 87.5169 80.1674 87.544 80.0561 87.5968C79.9449 87.6496 79.8472 87.7266 79.7703 87.8222C79.3739 85.762 78.9775 85.7227 78.5811 85.6048C78.1848 84.8184 77.8181 84.1206 77.4633 83.8906L74.9839 82.2786C74.9839 82.2786 75.0869 75.4632 75.1821 69.4026C75.1979 68.3706 75.2138 65.6519 75.2277 65.6519C75.2328 65.7409 75.2328 65.8302 75.2277 65.9192C75.2455 65.2823 75.2594 64.6474 75.2733 62.9705C75.2872 61.8736 75.297 62.6776 75.305 60.9418C75.305 60.7708 75.305 60.6371 75.305 60.531C75.305 60.4248 75.3149 60.3049 75.3149 60.185V60.1653C75.3149 60.1653 75.3149 60.2223 75.3149 60.531C75.2772 61.3173 75.1167 61.8677 74.8392 61.8677C74.5617 61.8677 74.2446 61.39 73.8482 60.183C73.6772 60.2963 73.4751 60.3546 73.2695 60.3501C72.6967 60.3501 72.0486 59.9982 71.3767 59.9982C71.112 59.995 70.8508 60.0586 70.6176 60.183H70.3739C69.6425 60.183 68.9171 60.3796 68.271 60.3796C67.9652 60.39 67.6614 60.3273 67.3851 60.1968H65.9343L70.3362 51.044H75.9233L76.0264 41.2661C76.0383 40.1397 76.0502 38.7106 76.0601 38.1208C76.0601 37.189 76.0779 36.7153 76.0839 35.8189C76.0839 35.8955 76.0839 35.929 76.0839 35.929C76.0839 35.929 76.0839 35.4061 76.0839 35.0522C76.0839 35.0109 76.0839 34.9696 76.0839 34.9244V34.7377C76.0839 34.7377 76.0839 34.8733 76.0839 35.0522C76.07 35.5948 75.9669 35.9034 75.7866 35.9034C75.6062 35.9034 75.3426 35.581 75.0196 34.8556C74.8214 35.3156 74.5974 35.4749 74.3536 35.4749C73.8106 35.4749 73.1644 34.6787 72.4589 34.6787C72.4239 34.6767 72.3888 34.6767 72.3538 34.6787C71.6066 34.5293 70.796 34.3249 69.9636 34.3249C69.6013 34.3222 69.2401 34.3665 68.8894 34.4566C68.7111 34.3774 68.5179 34.3372 68.3226 34.3386C67.6745 34.3386 67.0323 34.7318 66.4199 34.7318C66.2275 34.7308 66.038 34.6858 65.8661 34.6002C65.6942 34.5146 65.5446 34.3908 65.4289 34.2384L62.7652 34.0673L61.6988 33.9985L74.0603 24.0732C82.5855 25.6473 91.2413 26.4213 99.9129 26.385C110.461 26.385 120.852 25.3726 131.624 24.0732H131.63ZM140.999 19.4221L131.202 20.6016C121.348 21.7811 110.734 22.8859 99.9089 22.8859C91.0496 22.8859 82.8067 22.1506 74.7084 20.635L73.107 20.3362L71.8385 21.3525L59.4771 31.2621L52.457 36.8961L61.4749 37.4741L62.5412 37.5429L62.8088 37.5606L64.1744 37.649C64.8659 38.022 65.6407 38.2166 66.4278 38.2152C67.0087 38.2077 67.5854 38.117 68.1402 37.9459L68.5881 38.1424L69.8011 37.824C69.8576 37.8114 69.9156 37.8061 69.9735 37.8083C70.4139 37.8353 70.851 37.9011 71.2796 38.0048L71.6582 38.0835L71.7474 38.1012C71.9977 38.2613 72.2585 38.4045 72.5283 38.5297C72.5283 38.9347 72.5282 39.4576 72.5124 39.9982C72.5124 40.4051 72.5124 40.8218 72.5005 41.2052L72.4351 47.5193H68.1144L67.1552 49.5126L62.7453 58.6851L60.3393 63.69H66.8083C67.2898 63.8137 67.7855 63.8752 68.2829 63.8728C68.7714 63.8658 69.2588 63.8251 69.7416 63.7509C69.955 63.7171 70.17 63.6941 70.3858 63.6821H70.4036L71.4164 63.745L71.6146 63.6389C71.6601 63.6998 71.7038 63.7588 71.7494 63.8158C71.7494 64.4783 71.7355 64.9186 71.7275 65.2627C71.7157 65.3609 71.7077 65.4592 71.7038 65.5595C71.7038 65.6027 71.7038 65.6656 71.7038 65.7462C71.7038 65.8622 71.7038 66.0273 71.7038 66.2259C71.7038 66.6033 71.6939 67.1066 71.6899 67.6157C71.6899 68.2743 71.678 68.9407 71.672 69.3456L71.4738 82.2216L71.4441 84.1481L73.0693 85.2018L75.1207 86.5346C75.19 86.6624 75.2891 86.8531 75.4318 87.142L76.1057 88.5024L76.3395 88.5731L77.6635 95.418L80.9951 91.7223C81.3192 92.0624 81.7088 92.3344 82.1407 92.5224C82.4784 93.0205 82.9371 93.4261 83.4746 93.7019L86.6278 116L88.5543 95.8584L88.8913 97.1421L92.1436 87.4428C92.7915 87.2389 93.4098 86.9521 93.9829 86.5896L101.477 81.7597L106.812 78.3215L101.045 75.6558L93.1306 71.9975L93.2832 63.5996L93.8283 63.6605C94.0672 63.6866 94.3074 63.6998 94.5478 63.6998C95.0687 63.6927 95.5882 63.6447 96.1016 63.5563L98.2282 64.7358L99.0072 63.6998C99.5989 63.6348 100.164 63.4227 100.652 63.0832C101.139 62.7437 101.532 62.2878 101.794 61.7576L102.228 61.6515L102.735 59.5913C102.787 59.3144 102.905 59.0541 103.08 58.8325C103.471 58.2612 103.799 57.6503 104.059 57.0102L105.52 53.975L106.208 52.5439L108.614 47.539H93.9115L94.0443 39.7544L95.0353 39.778V39.7524L95.1423 39.7957C95.3458 40.1816 95.6041 40.5364 95.9093 40.8494C96.3231 41.273 96.8192 41.6088 97.3677 41.8366C97.9162 42.0643 98.5057 42.1792 99.1003 42.1743C100.698 42.1743 102.041 41.4135 103.342 40.6764C103.683 40.4798 104.198 40.1928 104.545 40.0335L105.054 40.1712L106.087 39.8173C106.483 39.6797 106.864 39.5362 107.228 39.3966C107.868 39.1529 108.659 38.8521 109.052 38.8226C109.099 38.8657 109.144 38.9116 109.186 38.9602L110.8 40.81L113.085 39.951C113.412 39.9861 113.734 40.0519 114.048 40.1476C114.791 40.3638 115.558 40.484 116.331 40.5053C116.821 40.5059 117.309 40.4397 117.78 40.3088L119.215 40.3422L120.769 40.3776L121.845 39.263L134.159 26.499L140.983 19.4221H140.999Z" fill="#222222"/>
<path d="M32.5984 72.9254C32.4958 72.9207 32.3937 72.9076 32.2932 72.8861H31.8274L31.6292 72.6049C31.2856 72.369 31.0272 72.03 30.8919 71.6378C30.2835 71.569 29.564 71.1935 29.1934 69.9413L29.1815 69.9059C29.0402 69.9306 28.8969 69.9431 28.7534 69.9433C28.6061 69.9422 28.4591 69.931 28.3134 69.9098L26.2562 72.1902L25.5843 68.7205C25.5264 68.3982 25.4483 68.0798 25.3504 67.7671L24.8846 67.6236L24.5477 66.9434C24.3787 66.5667 24.1799 66.2039 23.9531 65.8583L20.7602 63.7844L20.9723 49.9452C20.9723 49.5382 20.9862 48.8679 20.9921 48.2054C20.9921 47.6982 20.9921 47.195 21.006 46.8195C21.006 46.623 21.006 46.4677 21.006 46.3536C21.0085 46.2491 21.0165 46.1448 21.0298 46.0411C21.0436 45.5103 21.0536 44.8813 21.0635 43.7077C20.7244 43.4045 20.4484 43.0386 20.2509 42.6304C19.99 42.5839 19.7319 42.5228 19.4779 42.4476C19.3099 42.3957 19.1383 42.3557 18.9646 42.3277L18.5682 42.54L18.0628 42.5085H17.932C17.6371 42.518 17.3432 42.5463 17.052 42.5931C16.6472 42.6556 16.2387 42.691 15.8291 42.6992C15.4136 42.7038 15 42.6421 14.6043 42.5164H10.68L16.7646 29.8645H21.7195L21.8027 21.8185L21.8146 20.5957C21.8146 19.8094 21.8305 19.0487 21.8364 18.6575C21.8364 18.6575 21.8364 17.7984 21.8364 17.7886C21.0972 17.7709 20.5363 17.419 20.124 17.1576L19.8842 17.0121H19.8148L19.5393 16.957L19.1727 16.8804C18.6253 16.7447 18.0655 16.6637 17.5019 16.6386C17.2915 16.6359 17.0816 16.6604 16.8776 16.7113L16.2711 16.8705L15.8034 16.6602C15.7003 16.6818 15.5259 16.7349 15.407 16.7723C14.9422 16.9351 14.4548 17.0253 13.9621 17.0396C13.3502 17.0432 12.7526 16.8562 12.2537 16.5049L4.61328 16.0154L21.1229 2.77968L21.9157 2.92908C30.1229 4.46437 38.4729 5.20941 47.4432 5.20941C58.3618 5.20941 69.0465 4.1066 78.9563 2.9114L83.8537 2.32166L67.5918 19.1804L65.0826 19.1214C64.7008 19.2551 64.2983 19.3216 63.8934 19.318C63.2691 19.2951 62.6502 19.1927 62.0522 19.0133C61.5962 18.8748 61.1251 18.791 60.649 18.7636C60.4387 18.7613 60.2298 18.7973 60.0326 18.8698L58.8811 19.3042L58.0744 18.3803C57.5036 17.7257 57.0577 17.6352 56.6613 17.6352C55.9636 17.6352 55.0757 17.9714 54.1502 18.3272C53.7994 18.4609 53.4347 18.5985 53.0641 18.7204L52.5468 18.8973L52.0196 18.7538C51.7599 18.7538 51.1178 19.1371 50.6917 19.3907C49.8256 19.9077 48.8445 20.4916 47.6632 20.4916C46.5454 20.4916 45.5842 19.9863 44.7894 18.9818H44.6447C43.4298 18.9818 42.4646 18.2997 41.7689 17.8023L41.7352 17.7768L41.4102 18.5631L39.8464 18.5258L39.6482 29.8507H53.3495L49.9801 36.8706C49.7599 37.4238 49.4787 37.9513 49.1418 38.4433C48.8573 38.8308 48.6588 39.2736 48.5591 39.7427L48.3054 40.7747L47.9863 40.8514L47.9308 41.0479C47.5701 42.3454 46.6703 42.542 46.1669 42.542H45.6436L45.275 43.0354L44.0026 42.3336C43.7925 42.3447 43.5833 42.369 43.3763 42.4063C42.9514 42.4807 42.5213 42.5221 42.09 42.5302C41.9151 42.5304 41.7404 42.5206 41.5668 42.5007L41.2814 42.4692L41.0217 42.3513C40.9422 42.318 40.8561 42.3033 40.77 42.308C40.5301 42.319 40.2915 42.3492 40.0565 42.3985C39.7378 42.4599 39.4154 42.5006 39.0913 42.5203L38.8931 53.6802L50.7293 59.153L40.5639 65.7011C39.9929 66.051 39.3732 66.316 38.7246 66.4874L38.2985 66.6152L36.6416 71.5533L36.0866 69.4282L35.492 71.3645L35.2384 70.4347L34.7766 71.6535L33.8252 81.5965L32.5984 72.9254Z" fill="#F1F2F2"/>
<path d="M79.177 4.65311L66.8631 17.4171L64.7345 17.3679C64.4794 17.5119 64.1895 17.5839 63.8961 17.5763C62.9726 17.5763 61.8706 17.0239 60.6517 17.0239C60.2282 17.0206 59.8076 17.0946 59.411 17.2421C58.535 16.2376 57.6134 15.8936 56.664 15.8936C55.3084 15.8936 53.8992 16.5973 52.49 17.073C52.3375 17.0325 52.1802 17.012 52.0223 17.0121C50.5418 17.0121 49.0692 18.7499 47.662 18.7499C46.9426 18.7499 46.2409 18.2918 45.5671 16.9118C45.3061 17.1217 44.9814 17.238 44.6455 17.2421C43.4246 17.2421 42.3127 15.6852 41.3653 15.6852C40.959 15.6852 40.5844 15.9702 40.2435 16.788L38.1129 16.7369L37.8593 31.6023H50.5596L49.8719 33.0314C49.4596 33.8905 48.9086 35.0346 48.3577 36.1767C47.8087 37.596 47.2577 37.6471 46.8454 39.322C46.4649 39.4163 46.2013 40.7826 46.1616 40.7826C46.1616 40.7826 46.1616 40.7727 46.1616 40.7531C46.1616 40.2066 46.0229 39.9333 45.7811 39.9333C45.5393 39.9333 45.1965 40.2046 44.7902 40.7531C44.5461 40.6261 44.2728 40.5645 43.9974 40.5742C43.4028 40.5742 42.7527 40.7708 42.0848 40.7708C41.9749 40.7707 41.865 40.7648 41.7558 40.7531C41.4442 40.6157 41.1057 40.5486 40.7648 40.5565C40.0969 40.5565 39.4627 40.7708 38.9255 40.7708C38.8595 40.7749 38.7933 40.7749 38.7273 40.7708H37.3519L37.0982 54.7948L47.0892 59.4125L39.5955 64.2425C39.1643 64.5048 38.697 64.7034 38.2081 64.8322C37.9921 64.6592 37.778 64.4882 37.5659 64.4882C37.3539 64.4882 37.0883 64.7103 36.8544 65.4062C36.6205 64.5118 36.3906 64.0872 36.1667 64.0872C35.9427 64.0872 35.7703 64.4135 35.5879 65.0307C35.5126 64.7555 35.4393 64.6376 35.364 64.6376C35.0449 64.6376 34.7396 66.8118 34.4542 67.5647C34.2124 66.9749 33.9865 65.3531 33.7745 65.3531C33.6773 65.3531 33.5763 65.6932 33.495 66.6289C33.4593 66.3675 33.4217 66.2554 33.388 66.2554C33.1521 66.2554 32.946 71.1463 32.7696 71.1463C32.7696 71.1463 32.7696 71.1463 32.7557 71.1463C32.735 71.1733 32.7043 71.191 32.6705 71.1955C32.506 71.1955 32.3752 70.4839 32.2741 67.14C32.1651 67.4388 32.1076 67.0398 32.1076 69.0823C32.1076 69.8273 32.0918 70.248 32.066 70.248C32.0403 70.248 31.9847 69.6582 31.9193 68.349C31.8638 67.0712 31.7964 66.4874 31.7211 66.4874C31.6458 66.4874 31.523 67.3386 31.4001 68.8464C31.3149 69.6228 31.2256 69.9197 31.1285 69.9197C30.8055 69.9197 30.417 66.5994 29.9889 66.5994C29.872 66.5994 29.7511 66.8452 29.6282 67.4703C29.3507 68.0738 29.0614 68.2134 28.7621 68.2134C28.5025 68.2134 28.2349 68.1072 27.9693 68.1072C27.8461 68.106 27.7243 68.1326 27.613 68.185C27.5017 68.2375 27.404 68.3144 27.3272 68.4099C26.9308 66.3517 26.5344 66.3124 26.138 66.1945C25.7515 65.4082 25.375 64.7083 25.0202 64.4783L22.5289 62.8487C22.5289 62.8487 22.6339 56.0313 22.7271 49.9727C22.7429 48.9406 22.7588 46.22 22.7726 46.22C22.7865 46.22 22.7726 46.3025 22.7726 46.4893C22.7885 45.8524 22.8043 45.2155 22.8182 43.5406C22.8301 42.4437 22.842 43.2457 22.848 41.5099C22.848 41.3389 22.848 41.2052 22.848 41.101C22.848 40.9968 22.848 40.873 22.848 40.7531V40.7334C22.848 40.7334 22.848 40.7904 22.848 41.101C22.8103 41.8874 22.6398 42.4378 22.3723 42.4378C22.1047 42.4378 21.7777 41.9601 21.3813 40.7531C21.2103 40.8663 21.0081 40.924 20.8026 40.9182C20.2318 40.9182 19.5837 40.5663 18.9118 40.5663C18.6453 40.5661 18.3832 40.6338 18.1507 40.7629C18.0714 40.7629 17.9902 40.7629 17.9089 40.7629C17.1756 40.7629 16.4522 40.9595 15.8061 40.9595C15.5004 40.969 15.1967 40.9063 14.9202 40.7767H13.4515L17.8554 31.6239H23.4426L23.5456 21.846C23.5575 20.7176 23.5694 19.2905 23.5793 18.7007C23.5793 17.767 23.5971 17.2932 23.6031 16.3968C23.6008 16.4335 23.6008 16.4702 23.6031 16.5069C23.6031 16.5069 23.6031 15.984 23.6031 15.6321C23.5892 16.1727 23.4841 16.4833 23.3058 16.4833C23.1274 16.4833 22.8618 16.1609 22.5368 15.4355C22.3386 15.8955 22.1166 16.0528 21.8728 16.0528C21.3298 16.0528 20.6836 15.2665 19.9781 15.2665C19.9431 15.2645 19.908 15.2645 19.8731 15.2665C19.1259 15.1151 18.3133 14.9126 17.4828 14.9126C17.1198 14.9101 16.7581 14.9544 16.4066 15.0443C16.2291 14.965 16.0364 14.9248 15.8418 14.9264C15.1937 14.9264 14.5515 15.3195 13.9371 15.3195C13.7449 15.3186 13.5556 15.2738 13.3838 15.1886C13.2119 15.1034 13.0621 14.98 12.9461 14.8281L10.2804 14.6571L9.21412 14.5883L21.5775 4.67866C30.1029 6.25117 38.7586 7.02452 47.4301 6.98848C57.978 6.98848 68.3694 5.97609 79.1413 4.67866L79.177 4.65311ZM88.5457 4.37894e-05L78.7509 1.17952C68.8946 2.35901 58.2833 3.46379 47.4579 3.46379C38.5985 3.46379 30.3556 2.72859 22.2573 1.21492L20.6559 0.914146L19.3874 1.93244L7.02604 11.842L-0.00195312 17.4741L9.01593 18.054L10.0802 18.1228L11.7133 18.227C12.4053 18.6006 13.181 18.7953 13.9688 18.7931C14.5498 18.7864 15.1266 18.6957 15.6812 18.5238L16.1291 18.7204L17.3421 18.4019C17.3988 18.3905 17.4567 18.3859 17.5145 18.3882C17.9543 18.4143 18.3909 18.4801 18.8187 18.5847L19.1992 18.6634L19.2883 18.6811C19.5392 18.8397 19.8 18.9822 20.0693 19.1076C20.0693 19.5146 20.0693 20.0355 20.0534 20.5781C20.0534 20.985 20.0534 21.4017 20.0415 21.7831L19.9761 28.0992H15.6535L14.6942 30.0906L10.2923 39.2453L7.88424 44.2502H14.3553C14.8371 44.3725 15.3326 44.4333 15.8299 44.4311C16.3184 44.4241 16.8058 44.3834 17.2886 44.3092C17.502 44.2757 17.717 44.2534 17.9327 44.2424H17.9505L18.9633 44.3073L19.1615 44.1991C19.2051 44.2601 19.2507 44.3191 19.2963 44.3761C19.2963 45.0405 19.2824 45.4808 19.2745 45.8249C19.2626 45.9218 19.2547 46.0201 19.2507 46.1197C19.2507 46.163 19.2507 46.2259 19.2507 46.3163C19.2507 46.4323 19.2507 46.5974 19.2507 46.796C19.2507 47.1734 19.2507 47.6786 19.2368 48.1877C19.2368 48.8443 19.225 49.5127 19.217 49.9177L19.0188 62.7937L18.9891 64.7182L20.6123 65.7738L22.6636 67.1047C22.735 67.2324 22.8341 67.4231 22.9768 67.7121L23.6486 69.0724L23.8825 69.1432L25.2085 75.9901L28.5401 72.2944C28.8637 72.6345 29.2534 72.906 29.6857 73.0925C30.0231 73.59 30.4811 73.9956 31.0176 74.272L34.1728 96.5701L36.0993 76.4285L36.4362 77.7121L39.6886 68.0148C40.3363 67.8097 40.9546 67.5223 41.5279 67.1597L49.0196 62.3317L54.357 58.8935L48.5895 56.2259L40.6756 52.5676L40.8282 44.1716L41.3733 44.2326C41.6122 44.258 41.8524 44.2705 42.0927 44.2699C42.6129 44.2633 43.1319 44.216 43.6446 44.1284L45.7712 45.3078L46.5501 44.2738C47.1416 44.2079 47.7068 43.9955 48.1938 43.6561C48.6807 43.3167 49.0738 42.8612 49.3367 42.3316L49.7708 42.2255L50.2782 40.1653C50.3296 39.8884 50.4479 39.6281 50.623 39.4065C51.0124 38.8345 51.3405 38.2238 51.6021 37.5842L53.0509 34.5451L53.7386 33.1159L56.1467 28.111H41.4446L41.5774 20.3264L42.5684 20.35L42.5802 20.3225C43.0178 20.5082 43.4784 20.6351 43.9498 20.6999C44.4294 21.1933 45.0046 21.5853 45.6408 21.8525C46.277 22.1197 46.9612 22.2566 47.6521 22.2549C49.3248 22.2549 50.625 21.4686 51.5902 20.9044C51.7408 20.8159 51.937 20.7078 52.1016 20.6075L52.597 20.7432L53.6316 20.3874C54.028 20.2498 54.4085 20.1063 54.7732 19.9667C55.4134 19.7229 56.2022 19.4222 56.5966 19.3946C56.6444 19.4377 56.6894 19.4837 56.7314 19.5323L58.3427 21.3821L60.6299 20.5211C60.9563 20.5573 61.2788 20.6231 61.5931 20.7176C62.3347 20.9346 63.1015 21.0555 63.8744 21.0774C64.3648 21.0788 64.853 21.0126 65.3251 20.8808L66.7581 20.9142L68.3139 20.9516L69.3901 19.835L81.704 7.07103L88.5259 -0.00585938L88.5457 4.37894e-05Z" fill="#222222"/>
</g>
<defs>
<clipPath id="clip0_189_983">
<rect width="141" height="116" fill="white"/>
</clipPath>
</defs>
</svg>
